<?xml version="1.0" encoding="UTF-8" standalone="no"?>
<!-- Created with Inkscape (http://www.inkscape.org/) -->

<svg
   xmlns:dc="http://purl.org/dc/elements/1.1/"
   xmlns:cc="http://creativecommons.org/ns#"
   xmlns:rdf="http://www.w3.org/1999/02/22-rdf-syntax-ns#"
   xmlns:svg="http://www.w3.org/2000/svg"
   xmlns="http://www.w3.org/2000/svg"
   xmlns:xlink="http://www.w3.org/1999/xlink"
   xmlns:sodipodi="http://sodipodi.sourceforge.net/DTD/sodipodi-0.dtd"
   xmlns:inkscape="http://www.inkscape.org/namespaces/inkscape"
   width="256px"
   height="256px"
   id="svg3665"
   version="1.1"
   inkscape:version="0.48.4 r9939"
   sodipodi:docname="document-newdat.svg">
  <defs
     id="defs3667">
    <radialGradient
       inkscape:collect="always"
       xlink:href="#linearGradient4542"
       id="radialGradient4548"
       cx="24.306795"
       cy="42.07798"
       fx="24.306795"
       fy="42.07798"
       r="15.821514"
       gradientTransform="matrix(1,0,0,0.284916,0,30.08928)"
       gradientUnits="userSpaceOnUse" />
    <linearGradient
       inkscape:collect="always"
       id="linearGradient4542">
      <stop
         style="stop-color:#000000;stop-opacity:1;"
         offset="0"
         id="stop4544" />
      <stop
         style="stop-color:#000000;stop-opacity:0;"
         offset="1"
         id="stop4546" />
    </linearGradient>
    <radialGradient
       inkscape:collect="always"
       xlink:href="#linearGradient259"
       id="radialGradient15658"
       gradientUnits="userSpaceOnUse"
       gradientTransform="matrix(5.005426,0,0,5.4256607,-0.16794603,3.8219121)"
       cx="33.966679"
       cy="35.736916"
       fx="33.966679"
       fy="35.736916"
       r="86.70845" />
    <linearGradient
       id="linearGradient259">
      <stop
         id="stop260"
         offset="0.0000000"
         style="stop-color:#fafafa;stop-opacity:1.0000000;" />
      <stop
         id="stop261"
         offset="1.0000000"
         style="stop-color:#bbbbbb;stop-opacity:1.0000000;" />
    </linearGradient>
    <radialGradient
       inkscape:collect="always"
       xlink:href="#linearGradient269"
       id="radialGradient15656"
       gradientUnits="userSpaceOnUse"
       gradientTransform="matrix(5.0459699,0,0,5.3820681,17.308488,7.1907471)"
       cx="8.824419"
       cy="3.7561285"
       fx="8.824419"
       fy="3.7561285"
       r="37.751713" />
    <linearGradient
       id="linearGradient269">
      <stop
         id="stop270"
         offset="0.0000000"
         style="stop-color:#a3a3a3;stop-opacity:1.0000000;" />
      <stop
         id="stop271"
         offset="1"
         style="stop-color:#8a8a8a;stop-opacity:1;" />
    </linearGradient>
    <radialGradient
       inkscape:collect="always"
       xlink:href="#linearGradient15662"
       id="radialGradient15668"
       gradientUnits="userSpaceOnUse"
       gradientTransform="matrix(5.0459699,0,0,5.3820681,17.308488,7.1907471)"
       cx="8.1435566"
       cy="7.2678967"
       fx="8.1435566"
       fy="7.2678967"
       r="38.158695" />
    <linearGradient
       id="linearGradient15662">
      <stop
         id="stop15664"
         offset="0.0000000"
         style="stop-color:#ffffff;stop-opacity:1.0000000;" />
      <stop
         id="stop15666"
         offset="1.0000000"
         style="stop-color:#f8f8f8;stop-opacity:1.0000000;" />
    </linearGradient>
    <radialGradient
       inkscape:collect="always"
       xlink:href="#linearGradient4790"
       id="radialGradient4796"
       cx="37.030354"
       cy="12.98915"
       fx="37.030354"
       fy="12.98915"
       r="4.2929163"
       gradientTransform="matrix(9.0919259,0,0,6.6904506,-138.69789,-14.304892)"
       gradientUnits="userSpaceOnUse" />
    <linearGradient
       inkscape:collect="always"
       id="linearGradient4790">
      <stop
         style="stop-color:#000000;stop-opacity:1;"
         offset="0"
         id="stop4792" />
      <stop
         style="stop-color:#000000;stop-opacity:0;"
         offset="1"
         id="stop4794" />
    </linearGradient>
    <radialGradient
       inkscape:collect="always"
       xlink:href="#linearGradient259"
       id="radialGradient5352"
       gradientUnits="userSpaceOnUse"
       gradientTransform="matrix(0.77312376,0.05258924,-0.05755568,0.8461342,130.42805,70.615573)"
       cx="30.653816"
       cy="14.9373"
       fx="30.653816"
       fy="14.9373"
       r="86.70845" />
    <linearGradient
       id="linearGradient3632">
      <stop
         id="stop3634"
         offset="0.0000000"
         style="stop-color:#fafafa;stop-opacity:1.0000000;" />
      <stop
         id="stop3636"
         offset="1.0000000"
         style="stop-color:#bbbbbb;stop-opacity:1.0000000;" />
    </linearGradient>
    <radialGradient
       inkscape:collect="always"
       xlink:href="#linearGradient269"
       id="radialGradient5350"
       gradientUnits="userSpaceOnUse"
       gradientTransform="matrix(1.7287736,0,0,1.8439227,104.6068,53.75824)"
       cx="31.863327"
       cy="2.3667307"
       fx="31.863327"
       fy="2.3667307"
       r="37.751713" />
    <linearGradient
       id="linearGradient3639">
      <stop
         id="stop3641"
         offset="0.0000000"
         style="stop-color:#a3a3a3;stop-opacity:1.0000000;" />
      <stop
         id="stop3643"
         offset="1"
         style="stop-color:#8a8a8a;stop-opacity:1;" />
    </linearGradient>
    <linearGradient
       inkscape:collect="always"
       xlink:href="#linearGradient2251"
       id="linearGradient8166"
       gradientUnits="userSpaceOnUse"
       gradientTransform="matrix(-0.17082348,-5.2085106,5.2085106,-0.17082348,-3.8660997,238.65778)"
       x1="33.396004"
       y1="36.921333"
       x2="34.170048"
       y2="38.070381" />
    <linearGradient
       inkscape:collect="always"
       id="linearGradient2251">
      <stop
         style="stop-color:#ffffff;stop-opacity:1;"
         offset="0"
         id="stop2253" />
      <stop
         style="stop-color:#ffffff;stop-opacity:0;"
         offset="1"
         id="stop2255" />
    </linearGradient>
    <radialGradient
       inkscape:collect="always"
       xlink:href="#linearGradient2378"
       id="radialGradient3271"
       cx="38.658855"
       cy="9.3411446"
       fx="38.658855"
       fy="9.3411446"
       r="8.341651"
       gradientUnits="userSpaceOnUse" />
    <linearGradient
       id="linearGradient2378">
      <stop
         style="stop-color:#ffffff;stop-opacity:1;"
         offset="0"
         id="stop2380" />
      <stop
         id="stop4146"
         offset="0.25"
         style="stop-color:#fefede;stop-opacity:0.91836733;" />
      <stop
         id="stop2386"
         offset="0.5"
         style="stop-color:#f5f328;stop-opacity:1;" />
      <stop
         style="stop-color:#f5f32d;stop-opacity:0.12234043;"
         offset="1"
         id="stop2382" />
    </linearGradient>
    <radialGradient
       r="15.821514"
       fy="42.07798"
       fx="24.306795"
       cy="42.07798"
       cx="24.306795"
       gradientTransform="matrix(1,0,0,0.284916,0,30.08928)"
       gradientUnits="userSpaceOnUse"
       id="radialGradient3663"
       xlink:href="#linearGradient4542"
       inkscape:collect="always" />
  </defs>
  <sodipodi:namedview
     id="base"
     pagecolor="#ffffff"
     bordercolor="#666666"
     borderopacity="1.0"
     inkscape:pageopacity="0.0"
     inkscape:pageshadow="2"
     inkscape:zoom="1.375"
     inkscape:cx="-124.75607"
     inkscape:cy="249.64719"
     inkscape:current-layer="layer1"
     showgrid="true"
     inkscape:document-units="px"
     inkscape:grid-bbox="true"
     inkscape:window-width="1035"
     inkscape:window-height="841"
     inkscape:window-x="76"
     inkscape:window-y="34"
     inkscape:window-maximized="0" />
  <metadata
     id="metadata3670">
    <rdf:RDF>
      <cc:Work
         rdf:about="">
        <dc:format>image/svg+xml</dc:format>
        <dc:type
           rdf:resource="http://purl.org/dc/dcmitype/StillImage" />
        <dc:title></dc:title>
      </cc:Work>
    </rdf:RDF>
  </metadata>
  <g
     id="layer1"
     inkscape:label="Layer 1"
     inkscape:groupmode="layer">
    <path
       sodipodi:type="arc"
       style="opacity:0.47252748;color:#000000;fill:url(#radialGradient3663);fill-opacity:1;fill-rule:evenodd;stroke:none;stroke-width:2;marker:none;visibility:visible;display:inline;overflow:visible"
       id="path3667"
       sodipodi:cx="24.306795"
       sodipodi:cy="42.07798"
       sodipodi:rx="15.821514"
       sodipodi:ry="4.5078058"
       d="m 40.128309,42.07798 a 15.821514,4.5078058 0 1 1 -31.643028,0 15.821514,4.5078058 0 1 1 31.643028,0 z"
       transform="matrix(6.1138245,0,0,3.5763912,-24.408299,78.143518)"
       inkscape:r_cx="true"
       inkscape:r_cy="true" />
    <path
       inkscape:connector-curvature="0"
       style="color:#000000;fill:url(#radialGradient15658);fill-opacity:1;fill-rule:nonzero;stroke:url(#radialGradient15656);stroke-width:5.21130943;stroke-linecap:round;stroke-linejoin:round;stroke-miterlimit:4;stroke-opacity:1;stroke-dashoffset:0;marker:none;visibility:visible;display:block;overflow:visible"
       d="M 40.233246,22.82467 162.42291,22.74324 c 0,0 53.56672,49.735231 53.56672,53.05261 l 0,154.29011 c 0,3.31738 -2.67067,5.98805 -5.98805,5.98805 l -169.768334,0 c -3.317364,0 -5.988007,-2.67067 -5.988007,-5.98805 l 0,-201.273246 c 0,-3.317378 2.670643,-5.988047 5.988007,-5.988047 z"
       id="rect15391"
       sodipodi:nodetypes="ccccccccc" />
    <path
       inkscape:connector-curvature="0"
       style="color:#000000;fill:none;stroke:url(#radialGradient15668);stroke-width:5.21130943;stroke-linecap:round;stroke-linejoin:round;stroke-miterlimit:4;stroke-opacity:1;stroke-dashoffset:0;marker:none;visibility:visible;display:block;overflow:visible"
       d="m 40.559005,27.710273 129.638545,0 c 0,0 40.38997,41.802134 40.38997,42.232447 l 0,159.95246 c 0,0.4303 -0.34644,0.77674 -0.77673,0.77674 l -169.251785,0 c -0.430454,0 -0.776746,-0.34645 -0.776746,-0.77674 l 0,-201.408169 c 0,-0.430313 0.346553,-0.776738 0.776746,-0.776738 z"
       id="rect15660"
       sodipodi:nodetypes="ccccccccc" />
    <path
       inkscape:connector-curvature="0"
       inkscape:r_cy="true"
       inkscape:r_cx="true"
       style="opacity:0.35714285;color:#000000;fill:url(#radialGradient4796);fill-opacity:1;fill-rule:evenodd;stroke:none;stroke-width:1.00000024;marker:none;visibility:visible;display:inline;overflow:visible"
       d="M 213.41856,76.058186 C 209.62284,69.040491 181.6141,56.61734 167.03502,52.450765 c 0.88336,8.197106 -0.63984,32.925211 -0.63984,32.925211 10.74833,-7.16555 42.95489,-10.162616 47.02338,-9.31779 z"
       id="path5348"
       sodipodi:nodetypes="cccc" />
    <path
       inkscape:connector-curvature="0"
       style="color:#000000;fill:url(#radialGradient5352);fill-opacity:1;fill-rule:nonzero;stroke:url(#radialGradient5350);stroke-width:5.21130943;stroke-linecap:butt;stroke-linejoin:round;stroke-miterlimit:4;stroke-opacity:1;stroke-dasharray:none;stroke-dashoffset:0;marker:none;visibility:visible;display:block;overflow:visible"
       d="m 215.63529,75.421479 c 0.0686,-7.374742 -33.10502,-53.193149 -53.33836,-52.653887 5.07081,1.214209 9.12164,32.143509 1.87938,46.800315 14.3311,0 46.43599,-3.829947 51.45898,5.853572 z"
       id="path2210"
       sodipodi:nodetypes="cccc"
       inkscape:r_cx="true"
       inkscape:r_cy="true" />
    <path
       inkscape:connector-curvature="0"
       sodipodi:nodetypes="cccc"
       id="path2247"
       d="m 203.70663,64.201218 c -3.79572,-7.017695 -21.67142,-26.418989 -31.69061,-32.865514 1.24519,7.430539 2.79876,19.190271 -0.40955,32.543621 0,0 28.03165,-0.522933 32.10013,0.321903 z"
       style="color:#000000;fill:none;stroke:url(#linearGradient8166);stroke-width:5.21131039;stroke-linecap:butt;stroke-linejoin:miter;stroke-miterlimit:4;stroke-opacity:1;stroke-dasharray:none;stroke-dashoffset:0;marker:none;visibility:visible;display:inline;overflow:visible"
       inkscape:r_cx="true"
       inkscape:r_cy="true" />
    <path
       sodipodi:type="arc"
       style="fill:url(#radialGradient3271);fill-opacity:1;fill-rule:evenodd;stroke:none;display:inline"
       id="path2388"
       sodipodi:cx="38.658855"
       sodipodi:cy="9.3411446"
       sodipodi:rx="8.341651"
       sodipodi:ry="8.341651"
       d="m 47.000506,9.3411446 a 8.341651,8.341651 0 1 1 -16.683302,0 8.341651,8.341651 0 1 1 16.683302,0 z"
       transform="matrix(5.9922238,0,0,5.9922238,-39.749514,6.3801181)" />
    <path
       sodipodi:type="star"
       style="color:#000000;fill:#ffffff;fill-opacity:1;fill-rule:evenodd;stroke:none;stroke-width:0.5;marker:none;visibility:visible;display:inline;overflow:visible"
       id="path1345"
       sodipodi:sides="5"
       sodipodi:cx="36.9375"
       sodipodi:cy="11.125"
       sodipodi:r1="8.755579"
       sodipodi:r2="5.0676599"
       sodipodi:arg1="0.52359878"
       sodipodi:arg2="1.1519173"
       inkscape:flatsided="false"
       inkscape:rounded="0.18352206"
       inkscape:randomized="0"
       d="m 44.520054,15.50279 c -0.507171,0.878446 -4.594703,-0.160823 -5.521351,0.251748 -0.926648,0.41257 -2.889414,4.145604 -3.88159,3.934711 -0.992177,-0.210894 -1.266891,-4.419519 -1.945618,-5.173323 -0.678728,-0.753803 -4.835582,-1.466933 -4.94161,-2.475719 -0.106028,-1.008786 3.811722,-2.5705906 4.318893,-3.4490369 0.507171,-0.8784463 -0.09914,-5.0522193 0.827507,-5.4647895 0.926648,-0.4125703 3.622664,2.8308064 4.614841,3.0417001 0.992176,0.2108936 4.77431,-1.6555099 5.453037,-0.9017066 0.678728,0.7538034 -1.572792,4.3201254 -1.466764,5.3289109 0.106027,1.008786 3.049826,4.029058 2.542655,4.907505 z"
       transform="matrix(3.5130269,1.5611884,-1.5611884,3.5130269,80.420412,-33.660268)" />
    <g
       transform="translate(-4.6841431e-8,3.7304687e-6)"
       id="g3851">
      <rect
         ry="10"
         rx="10"
         y="133.81818"
         x="2.1818182"
         height="117.0909"
         width="249.45454"
         id="rect3055"
         style="fill:#000000" />
      <rect
         ry="10"
         rx="10"
         y="142.54546"
         x="8.727273"
         height="102.18181"
         width="235.27272"
         id="rect3057"
         style="fill:#ffffff" />
      <g
         transform="matrix(1.595804,0,0,1.595804,-5.325837,-119.62309)"
         style="font-size:72px;font-style:normal;font-weight:normal;line-height:125%;letter-spacing:0px;word-spacing:0px;fill:#000000;fill-opacity:1;stroke:none;font-family:Sans"
         id="flowRoot3843">
        <path
           d="m 28.51675,213.13961 c 0.527984,0.048 1.223984,0.096 2.088,0.144 0.863982,1e-5 2.039981,1e-5 3.528,0 6.095973,1e-5 10.631969,-1.53599 13.608,-4.608 3.023963,-3.11998 4.535961,-7.46398 4.536,-13.032 -3.9e-5,-5.66397 -1.464037,-10.00796 -4.392,-13.032 -2.928031,-3.02396 -7.464027,-4.53596 -13.608,-4.536 -2.688018,4e-5 -4.608016,0.072 -5.76,0.216 l 0,34.848 m 33.264,-17.496 c -4.8e-5,4.32002 -0.672048,8.08802 -2.016,11.304 -1.344045,3.16801 -3.264043,5.83201 -5.76,7.992 -2.448038,2.112 -5.424035,3.696 -8.928,4.752 -3.456028,1.008 -7.296024,1.512 -11.52,1.512 -2.016018,0 -4.296016,-0.096 -6.84,-0.288 -2.544011,-0.144 -4.968008,-0.48 -7.272,-1.008 l 0,-48.456 c 2.303992,-0.52795 4.751989,-0.86395 7.344,-1.008 2.591984,-0.14395 4.895982,-0.21595 6.912,-0.216 4.175976,5e-5 7.991972,0.50405 11.448,1.512 3.455965,0.96005 6.407962,2.49605 8.856,4.608 2.495957,2.06404 4.415955,4.70404 5.76,7.92 1.343952,3.16803 2.015952,6.96003 2.016,11.376"
           style="font-variant:normal;font-weight:500;font-stretch:normal;fill:#000080;font-family:Ubuntu;-inkscape-font-specification:Ubuntu Medium"
           id="path3037" />
        <path
           d="m 103.61163,220.62761 c -0.67204,-1.968 -1.36804,-3.912 -2.088,-5.832 -0.72004,-1.91999 -1.41604,-3.88799 -2.088005,-5.904 l -21.024,0 c -0.672013,2.01601 -1.368013,4.00801 -2.088,5.976 -0.672011,1.92 -1.34401,3.84 -2.016,5.76 l -9.432,0 c 1.871998,-5.32799 3.647996,-10.24799 5.328,-14.76 1.679993,-4.51198 3.311991,-8.78398 4.896,-12.816 1.631988,-4.03197 3.239986,-7.87196 4.824,-11.52 1.583983,-3.64796 3.215981,-7.24795 4.896,-10.8 l 8.568,0 c 1.679969,3.55205 3.311968,7.15204 4.896,10.8 1.583965,3.64804 3.167965,7.48803 4.752005,11.52 1.63195,4.03202 3.28795,8.30402 4.968,12.816 1.72795,4.51201 3.52795,9.43201 5.4,14.76 l -9.792,0 m -14.688005,-40.248 c -1.104023,2.54404 -2.376022,5.64004 -3.816,9.288 -1.392019,3.64803 -2.856018,7.60802 -4.392,11.88 l 16.416,0 c -1.536031,-4.27198 -3.02403,-8.25597 -4.464,-11.952 -1.440027,-3.69596 -2.688025,-6.76796 -3.744,-9.216"
           style="font-variant:normal;font-weight:500;font-stretch:normal;fill:#000080;font-family:Ubuntu;-inkscape-font-specification:Ubuntu Medium"
           id="path3039" />
        <path
           d="m 150.40825,170.73161 0,7.848 -15.336,0 0,42.048 -9.144,0 0,-42.048 -15.336,0 0,-7.848 39.816,0"
           style="font-variant:normal;font-weight:500;font-stretch:normal;fill:#000080;font-family:Ubuntu;-inkscape-font-specification:Ubuntu Medium"
           id="path3041" />
      </g>
    </g>
  </g>
</svg>
