<?xml version="1.0" encoding="UTF-8" standalone="no"?>
<!-- Created with Inkscape (http://www.inkscape.org/) -->

<svg
   xmlns:dc="http://purl.org/dc/elements/1.1/"
   xmlns:cc="http://creativecommons.org/ns#"
   xmlns:rdf="http://www.w3.org/1999/02/22-rdf-syntax-ns#"
   xmlns:svg="http://www.w3.org/2000/svg"
   xmlns="http://www.w3.org/2000/svg"
   xmlns:xlink="http://www.w3.org/1999/xlink"
   xmlns:sodipodi="http://sodipodi.sourceforge.net/DTD/sodipodi-0.dtd"
   xmlns:inkscape="http://www.inkscape.org/namespaces/inkscape"
   width="256px"
   height="256px"
   id="svg4866"
   version="1.1"
   inkscape:version="0.48.4 r9939"
   sodipodi:docname="document-saveall.svg">
  <defs
     id="defs4868">
    <radialGradient
       inkscape:collect="always"
       xlink:href="#linearGradient2453"
       id="radialGradient2459"
       cx="26"
       cy="39.75"
       fx="26"
       fy="39.75"
       r="24.25"
       gradientTransform="matrix(1,0,0,0.175258,0,32.78351)"
       gradientUnits="userSpaceOnUse" />
    <linearGradient
       inkscape:collect="always"
       id="linearGradient2453">
      <stop
         style="stop-color:#000000;stop-opacity:1;"
         offset="0"
         id="stop2455" />
      <stop
         style="stop-color:#000000;stop-opacity:0;"
         offset="1"
         id="stop2457" />
    </linearGradient>
    <linearGradient
       inkscape:collect="always"
       xlink:href="#linearGradient2223"
       id="linearGradient2502"
       gradientUnits="userSpaceOnUse"
       x1="43.375"
       y1="-9.375"
       x2="21.125"
       y2="31.75"
       gradientTransform="matrix(-3.3502453,0,0,-3.3502453,168.97815,174.09619)" />
    <linearGradient
       inkscape:collect="always"
       id="linearGradient2223">
      <stop
         style="stop-color:#3465a4"
         offset="0"
         id="stop2225" />
      <stop
         style="stop-color:#729fcf"
         offset="1"
         id="stop2227" />
    </linearGradient>
    <linearGradient
       inkscape:collect="always"
       xlink:href="#linearGradient2388"
       id="linearGradient2499"
       gradientUnits="userSpaceOnUse"
       x1="33.349056"
       y1="28.69302"
       x2="35.974056"
       y2="33.049397"
       gradientTransform="matrix(-3.3502453,0,0,-3.3502453,168.97815,174.09619)" />
    <linearGradient
       id="linearGradient2388"
       inkscape:collect="always">
      <stop
         id="stop2390"
         offset="0"
         style="stop-color:#204a87" />
      <stop
         id="stop2392"
         offset="1"
         style="stop-color:#204a87;stop-opacity:0.3984375" />
    </linearGradient>
    <linearGradient
       inkscape:collect="always"
       xlink:href="#linearGradient2207"
       id="linearGradient2496"
       gradientUnits="userSpaceOnUse"
       x1="10.875"
       y1="11.5"
       x2="47"
       y2="47.375"
       gradientTransform="matrix(-3.3502453,0,0,-3.3502453,168.97815,174.09619)" />
    <linearGradient
       inkscape:collect="always"
       id="linearGradient2207">
      <stop
         style="stop-color:#ffffff;stop-opacity:1;"
         offset="0"
         id="stop2209" />
      <stop
         style="stop-color:#ffffff;stop-opacity:0;"
         offset="1"
         id="stop2211" />
    </linearGradient>
    <linearGradient
       inkscape:collect="always"
       xlink:href="#linearGradient2238"
       id="linearGradient2493"
       gradientUnits="userSpaceOnUse"
       x1="34.840229"
       y1="38.464149"
       x2="30.685976"
       y2="29"
       gradientTransform="matrix(-3.3502453,0,0,-3.3502453,168.97815,174.09619)" />
    <linearGradient
       inkscape:collect="always"
       id="linearGradient2238">
      <stop
         style="stop-color:#ffffff;stop-opacity:1;"
         offset="0"
         id="stop2240" />
      <stop
         style="stop-color:#ffffff;stop-opacity:0;"
         offset="1"
         id="stop2242" />
    </linearGradient>
    <linearGradient
       inkscape:collect="always"
       xlink:href="#linearGradient2294"
       id="linearGradient2490"
       gradientUnits="userSpaceOnUse"
       x1="18.75"
       y1="27.654568"
       x2="18.826717"
       y2="36.774681"
       gradientTransform="matrix(3.3502454,0,0,3.3502454,-168.97815,-174.09619)" />
    <linearGradient
       inkscape:collect="always"
       id="linearGradient2294">
      <stop
         style="stop-color:#3465a4"
         offset="0"
         id="stop2296" />
      <stop
         style="stop-color:#3465a4;stop-opacity:0"
         offset="1"
         id="stop2298" />
    </linearGradient>
    <linearGradient
       inkscape:collect="always"
       xlink:href="#linearGradient2356"
       id="linearGradient2487"
       gradientUnits="userSpaceOnUse"
       x1="10"
       y1="27.996471"
       x2="31"
       y2="42"
       gradientTransform="matrix(-3.3502453,0,0,-3.3502453,168.97815,174.09619)" />
    <linearGradient
       id="linearGradient2356">
      <stop
         style="stop-color:#8a9580;stop-opacity:1;"
         offset="0"
         id="stop2358" />
      <stop
         id="stop2364"
         offset="0.38488522"
         style="stop-color:#dcded9;stop-opacity:1;" />
      <stop
         style="stop-color:#b8bcb4;stop-opacity:1;"
         offset="0.6339286"
         id="stop2366" />
      <stop
         id="stop2368"
         offset="0.8214286"
         style="stop-color:#d7d9d5;stop-opacity:1;" />
      <stop
         style="stop-color:#babdb6"
         offset="1"
         id="stop2360" />
    </linearGradient>
    <linearGradient
       inkscape:collect="always"
       xlink:href="#linearGradient2319"
       id="linearGradient2480"
       gradientUnits="userSpaceOnUse"
       x1="20.484835"
       y1="35"
       x2="27.375"
       y2="42.125"
       gradientTransform="matrix(-3.3502453,0,0,-3.3502453,168.97815,174.09619)" />
    <linearGradient
       inkscape:collect="always"
       id="linearGradient2319">
      <stop
         style="stop-color:#ffffff;stop-opacity:1;"
         offset="0"
         id="stop2321" />
      <stop
         style="stop-color:#ffffff;stop-opacity:0;"
         offset="1"
         id="stop2323" />
    </linearGradient>
    <linearGradient
       inkscape:collect="always"
       xlink:href="#linearGradient2249"
       id="linearGradient2477"
       gradientUnits="userSpaceOnUse"
       x1="37.625"
       y1="7.625"
       x2="37.625"
       y2="3.4829895"
       gradientTransform="matrix(-3.3502453,0,0,-3.3502453,168.97815,174.09619)" />
    <linearGradient
       inkscape:collect="always"
       id="linearGradient2249">
      <stop
         style="stop-color:#204a87;stop-opacity:1;"
         offset="0"
         id="stop2251" />
      <stop
         style="stop-color:#204a87;stop-opacity:0;"
         offset="1"
         id="stop2253" />
    </linearGradient>
    <linearGradient
       inkscape:collect="always"
       xlink:href="#linearGradient2268"
       id="linearGradient2474"
       gradientUnits="userSpaceOnUse"
       x1="21.875"
       y1="7.6059465"
       x2="21.875"
       y2="18.51421"
       gradientTransform="matrix(3.3502453,0,0,3.3502453,-168.97815,-174.09619)" />
    <linearGradient
       inkscape:collect="always"
       id="linearGradient2268">
      <stop
         style="stop-color:#eeeeec"
         offset="0"
         id="stop2270" />
      <stop
         style="stop-color:#ffffff;stop-opacity:1"
         offset="1"
         id="stop2272" />
    </linearGradient>
    <radialGradient
       r="24.25"
       fy="39.75"
       fx="26"
       cy="39.75"
       cx="26"
       gradientTransform="matrix(1,0,0,0.175258,0,32.78351)"
       gradientUnits="userSpaceOnUse"
       id="radialGradient4864"
       xlink:href="#linearGradient2453"
       inkscape:collect="always" />
    <radialGradient
       inkscape:collect="always"
       xlink:href="#linearGradient2453"
       id="radialGradient5040"
       gradientUnits="userSpaceOnUse"
       gradientTransform="matrix(1,0,0,0.175258,0,32.78351)"
       cx="26"
       cy="39.75"
       fx="26"
       fy="39.75"
       r="24.25" />
    <linearGradient
       inkscape:collect="always"
       xlink:href="#linearGradient2223"
       id="linearGradient5044"
       gradientUnits="userSpaceOnUse"
       gradientTransform="matrix(-3.3502453,0,0,-3.3502453,246.06906,241.00528)"
       x1="43.375"
       y1="-9.375"
       x2="21.125"
       y2="31.75" />
    <linearGradient
       inkscape:collect="always"
       xlink:href="#linearGradient2388"
       id="linearGradient5048"
       gradientUnits="userSpaceOnUse"
       gradientTransform="matrix(-3.3502453,0,0,-3.3502453,246.06906,241.00528)"
       x1="33.349056"
       y1="28.69302"
       x2="35.974056"
       y2="33.049397" />
    <linearGradient
       inkscape:collect="always"
       xlink:href="#linearGradient2207"
       id="linearGradient5052"
       gradientUnits="userSpaceOnUse"
       gradientTransform="matrix(-3.3502453,0,0,-3.3502453,246.06906,241.00528)"
       x1="10.875"
       y1="11.5"
       x2="47"
       y2="47.375" />
    <linearGradient
       inkscape:collect="always"
       xlink:href="#linearGradient2238"
       id="linearGradient5056"
       gradientUnits="userSpaceOnUse"
       gradientTransform="matrix(-3.3502453,0,0,-3.3502453,246.06906,241.00528)"
       x1="34.840229"
       y1="38.464149"
       x2="30.685976"
       y2="29" />
    <linearGradient
       inkscape:collect="always"
       xlink:href="#linearGradient2294"
       id="linearGradient5060"
       gradientUnits="userSpaceOnUse"
       gradientTransform="matrix(3.3502454,0,0,3.3502454,-246.06906,-241.00528)"
       x1="18.75"
       y1="27.654568"
       x2="18.826717"
       y2="36.774681" />
    <linearGradient
       inkscape:collect="always"
       xlink:href="#linearGradient2356"
       id="linearGradient5064"
       gradientUnits="userSpaceOnUse"
       gradientTransform="matrix(-3.3502453,0,0,-3.3502453,246.06906,241.00528)"
       x1="10"
       y1="27.996471"
       x2="31"
       y2="42" />
    <linearGradient
       inkscape:collect="always"
       xlink:href="#linearGradient2319"
       id="linearGradient5076"
       gradientUnits="userSpaceOnUse"
       gradientTransform="matrix(-3.3502453,0,0,-3.3502453,246.06906,241.00528)"
       x1="20.484835"
       y1="35"
       x2="27.375"
       y2="42.125" />
    <linearGradient
       inkscape:collect="always"
       xlink:href="#linearGradient2249"
       id="linearGradient5080"
       gradientUnits="userSpaceOnUse"
       gradientTransform="matrix(-3.3502453,0,0,-3.3502453,246.06906,241.00528)"
       x1="37.625"
       y1="7.625"
       x2="37.625"
       y2="3.4829895" />
    <linearGradient
       inkscape:collect="always"
       xlink:href="#linearGradient2268"
       id="linearGradient5084"
       gradientUnits="userSpaceOnUse"
       gradientTransform="matrix(3.3502453,0,0,3.3502453,-246.06906,-241.00528)"
       x1="21.875"
       y1="7.6059465"
       x2="21.875"
       y2="18.51421" />
  </defs>
  <sodipodi:namedview
     id="base"
     pagecolor="#ffffff"
     bordercolor="#666666"
     borderopacity="1.0"
     inkscape:pageopacity="0.0"
     inkscape:pageshadow="2"
     inkscape:zoom="0.6875"
     inkscape:cx="107.38785"
     inkscape:cy="125.96426"
     inkscape:current-layer="layer1"
     showgrid="true"
     inkscape:document-units="px"
     inkscape:grid-bbox="true"
     inkscape:window-width="472"
     inkscape:window-height="383"
     inkscape:window-x="362"
     inkscape:window-y="359"
     inkscape:window-maximized="0" />
  <metadata
     id="metadata4871">
    <rdf:RDF>
      <cc:Work
         rdf:about="">
        <dc:format>image/svg+xml</dc:format>
        <dc:type
           rdf:resource="http://purl.org/dc/dcmitype/StillImage" />
        <dc:title />
      </cc:Work>
    </rdf:RDF>
  </metadata>
  <g
     id="layer1"
     inkscape:label="Layer 1"
     inkscape:groupmode="layer">
    <path
       sodipodi:type="arc"
       style="opacity:0.3;color:#000000;fill:url(#radialGradient4864);fill-opacity:1;fill-rule:nonzero;stroke:none;stroke-width:1;marker:none;visibility:visible;display:inline;overflow:visible"
       id="path2451"
       sodipodi:cx="26"
       sodipodi:cy="39.75"
       sodipodi:rx="24.25"
       sodipodi:ry="4.25"
       d="m 50.25,39.75 a 24.25,4.25 0 1 1 -48.5,0 24.25,4.25 0 1 1 48.5,0 z"
       transform="matrix(-3.3157077,0,0,-3.9414665,181.48113,319.95482)" />
    <path
       inkscape:connector-curvature="0"
       style="color:#000000;fill:url(#linearGradient2502);fill-opacity:1;fill-rule:nonzero;stroke:#204a87;stroke-width:3.35024548;stroke-linecap:square;stroke-linejoin:round;stroke-miterlimit:4;stroke-opacity:1;stroke-dashoffset:0;marker:none;visibility:visible;display:inline;overflow:visible"
       d="m 152.21821,162.37033 -117.241143,0 c -2.788915,0 -5.034117,-2.2452 -5.034117,-5.03408 l 0,-117.241159 c 0,-2.788874 2.245202,-5.034076 5.034117,-5.034076 l 110.549363,0 11.72586,11.72586 0,110.549375 c 0,2.78888 -2.2452,5.03408 -5.03408,5.03408 z"
       id="rect1314"
       sodipodi:nodetypes="ccccccccc" />
    <path
       inkscape:connector-curvature="0"
       style="opacity:0.4;color:#000000;fill:none;stroke:url(#linearGradient2499);stroke-width:3.35024548;stroke-linecap:square;stroke-linejoin:round;stroke-miterlimit:4;stroke-opacity:1;stroke-dashoffset:0;marker:none;visibility:visible;display:inline;overflow:visible"
       d="m 125.20685,78.614204 -76.619412,0 c -2.904895,0 -5.243507,-2.338612 -5.243507,-5.243466 l 0,-38.309723 87.106389,0 0,38.309723 c 0,2.904854 -2.33858,5.243466 -5.24347,5.243466 z"
       id="rect2194"
       sodipodi:nodetypes="ccccccc" />
    <path
       inkscape:connector-curvature="0"
       style="opacity:0.6;color:#000000;fill:none;stroke:url(#linearGradient2496);stroke-width:3.35024548;stroke-linecap:square;stroke-linejoin:round;stroke-miterlimit:4;stroke-opacity:1;stroke-dashoffset:0;marker:none;visibility:visible;display:inline;overflow:visible"
       d="m 152.30494,159.02009 -117.414612,0 c -0.8848,0 -1.597129,-0.71231 -1.597129,-1.59711 l 0,-117.414621 c 0,-0.8848 0.712329,-1.597102 1.597129,-1.597102 l 108.960982,0 10.05074,10.050738 0,108.960985 c 0,0.8848 -0.71232,1.59711 -1.59711,1.59711 z"
       id="rect2204"
       sodipodi:nodetypes="ccccccccc" />
    <path
       inkscape:connector-curvature="0"
       style="opacity:0.23921569;color:#000000;fill:none;stroke:url(#linearGradient2493);stroke-width:3.35024548;stroke-linecap:round;stroke-linejoin:round;stroke-miterlimit:4;stroke-opacity:1;stroke-dasharray:none;stroke-dashoffset:0;marker:none;visibility:visible;display:inline;overflow:visible"
       d="m 127.10008,38.411257 0,35.25557 c 0,0.884799 -0.71231,1.597129 -1.59711,1.597129 l -77.211662,0 c -0.8848,0 -1.597129,-0.71233 -1.597129,-1.597129 l 0,-35.25557"
       id="rect2231"
       sodipodi:nodetypes="cccccc" />
    <rect
       style="color:#000000;fill:url(#linearGradient2490);fill-opacity:1;fill-rule:nonzero;stroke:none;stroke-width:1;marker:none;visibility:visible;display:inline;overflow:visible"
       id="rect2284"
       width="23.451717"
       height="33.502457"
       x="-123.74985"
       y="-75.263962"
       transform="scale(-1,-1)" />
    <path
       inkscape:connector-curvature="0"
       style="color:#000000;fill:url(#linearGradient2487);fill-opacity:1;fill-rule:nonzero;stroke:#555753;stroke-width:3.35024548;stroke-linecap:square;stroke-linejoin:round;stroke-miterlimit:4;stroke-opacity:1;stroke-dashoffset:0;marker:none;visibility:visible;display:inline;overflow:visible"
       d="m 129.40338,78.614204 c 1.01008,-0.127641 1.99201,-0.624354 2.72207,-1.256339 1.0122,-0.919611 1.67512,-2.287449 1.67512,-3.76903 l 0,-38.52782 -67.004921,0 0,38.52782 c 0,2.78888 2.236489,5.025369 5.025369,5.025369 l 56.954182,0 c 0.21787,0 0.41775,0.02677 0.62818,0 z m -10.46952,-6.70049 c -0.12346,0.02677 -0.28768,0 -0.41878,0 l -12.98222,0 c -0.42608,0 -0.83592,-0.18292 -1.15165,-0.418782 -0.0935,-0.07706 -0.23685,-0.220781 -0.31391,-0.313921 -0.23586,-0.31559 -0.41879,-0.725564 -0.41879,-1.151647 l 0,-23.032936 c 0,-0.426116 0.18293,-0.835948 0.41879,-1.151647 0.0771,-0.09347 0.22078,-0.237193 0.31391,-0.313914 0.3156,-0.235855 0.72557,-0.418782 1.15165,-0.418782 l 12.98222,0 c 0.42609,0 0.83594,0.182927 1.15165,0.418782 0.0934,0.07705 0.23702,0.220781 0.31408,0.313914 0.23582,0.315597 0.41878,0.725531 0.41878,1.151647 l 0,23.032936 c 0,0.426083 -0.18296,0.835955 -0.41878,1.151647 -0.0771,0.09347 -0.22064,0.2372 -0.31408,0.313921 -0.21857,0.163156 -0.45507,0.362232 -0.73287,0.418782 z"
       id="rect2192"
       sodipodi:nodetypes="csccccccccccssccssccssccssc" />
    <rect
       style="opacity:0.2;color:#000000;fill:#ffffff;fill-opacity:1;fill-rule:nonzero;stroke:none;stroke-width:1;marker:none;visibility:visible;display:inline;overflow:visible"
       id="rect2278"
       width="6.700491"
       height="6.700491"
       x="-152.22691"
       y="-153.99474"
       transform="scale(-1,-1)" />
    <rect
       style="color:#000000;fill:#000000;fill-opacity:1;fill-rule:nonzero;stroke:none;stroke-width:1;marker:none;visibility:visible;display:inline;overflow:visible"
       id="rect2276"
       width="3.3502455"
       height="3.3502455"
       x="-152.22691"
       y="-153.99474"
       transform="scale(-1,-1)" />
    <rect
       style="opacity:0.2;color:#000000;fill:#ffffff;fill-opacity:1;fill-rule:nonzero;stroke:none;stroke-width:1;marker:none;visibility:visible;display:inline;overflow:visible"
       id="rect2280"
       width="6.700491"
       height="6.700491"
       x="-41.668854"
       y="-153.99474"
       transform="scale(-1,-1)" />
    <rect
       style="color:#000000;fill:#000000;fill-opacity:1;fill-rule:nonzero;stroke:none;stroke-width:1;marker:none;visibility:visible;display:inline;overflow:visible"
       id="rect2282"
       width="3.3502455"
       height="3.3502455"
       x="-41.668854"
       y="-153.99474"
       transform="scale(-1,-1)" />
    <path
       inkscape:connector-curvature="0"
       style="opacity:0.29803922;color:#000000;fill:none;stroke:url(#linearGradient2480);stroke-width:3.35024548;stroke-linecap:square;stroke-linejoin:miter;stroke-miterlimit:4;stroke-opacity:1;stroke-dashoffset:0;marker:none;visibility:visible;display:inline;overflow:visible"
       d="m 128.7752,75.263956 -56.852565,0 c -0.984301,0 -1.776737,-0.792431 -1.776737,-1.776731 l 0,-35.075968 60.406042,0 0,35.075968 c 0,0.9843 -0.79242,1.776731 -1.77674,1.776731 z"
       id="rect2316"
       sodipodi:nodetypes="ccccccc" />
    <path
       inkscape:connector-curvature="0"
       style="opacity:0.6;color:#000000;fill:none;stroke:url(#linearGradient2477);stroke-width:3.35024548;stroke-linecap:square;stroke-linejoin:round;stroke-miterlimit:4;stroke-opacity:1;stroke-dashoffset:0;marker:none;visibility:visible;display:inline;overflow:visible"
       d="m 43.343931,162.37033 0,-68.628862 c 0,-2.812403 2.264169,-5.076532 5.076566,-5.076532 l 90.354273,0 c 2.8124,0 5.07654,2.264129 5.07654,5.076532 l 0,68.628862 -100.507379,0 z"
       id="rect2247"
       sodipodi:nodetypes="ccccccc" />
    <rect
       style="color:#000000;fill:url(#linearGradient2474);fill-opacity:1;fill-rule:nonzero;stroke:#e2e2df;stroke-width:3.35024548;stroke-linecap:square;stroke-linejoin:round;stroke-miterlimit:4;stroke-opacity:1;stroke-dasharray:none;stroke-dashoffset:0;marker:none;visibility:visible;display:inline;overflow:visible"
       id="rect2257"
       width="93.80687"
       height="70.355148"
       x="-140.50107"
       y="-162.37033"
       rx="1.7263021"
       ry="1.7263021"
       transform="scale(-1,-1)" />
    <rect
       style="color:#000000;fill:#f57900;fill-opacity:1;fill-rule:nonzero;stroke:none;stroke-width:1;marker:none;visibility:visible;display:inline;overflow:visible"
       id="rect2259"
       width="97.157112"
       height="10.050736"
       x="-142.17619"
       y="-164.04546"
       rx="0"
       ry="0"
       transform="scale(-1,-1)" />
    <path
       inkscape:connector-curvature="0"
       style="fill:#ce5c00;fill-opacity:0.75;fill-rule:evenodd;stroke:#ce5c00;stroke-width:3.35024548;stroke-linecap:square;stroke-linejoin:miter;stroke-miterlimit:4;stroke-opacity:1;stroke-dasharray:none;display:inline"
       d="m 140.50106,162.37033 -93.806881,0"
       id="path2264"
       sodipodi:nodetypes="cc" />
    <path
       inkscape:connector-curvature="0"
       style="opacity:0.34901961;fill:#ce5c00;fill-opacity:0.75;fill-rule:evenodd;stroke:#ffffff;stroke-width:3.35024548;stroke-linecap:square;stroke-linejoin:miter;stroke-miterlimit:4;stroke-opacity:1;stroke-dasharray:none;display:inline"
       d="m 140.50106,159.02009 -93.806881,0"
       id="path2266"
       sodipodi:nodetypes="cc" />
    <path
       inkscape:connector-curvature="0"
       style="fill:none;stroke:#babdb6;stroke-width:3.35024667;stroke-linecap:round;stroke-linejoin:miter;stroke-miterlimit:4;stroke-opacity:1;stroke-dasharray:none;display:inline"
       d="m 133.80057,138.91862 -80.333195,0"
       id="path2327" />
    <path
       inkscape:connector-curvature="0"
       style="fill:none;stroke:#babdb6;stroke-width:3.35024667;stroke-linecap:round;stroke-linejoin:miter;stroke-miterlimit:4;stroke-opacity:1;stroke-dasharray:none;display:inline"
       d="m 133.80057,122.16739 -80.333195,0"
       id="path2329" />
    <path
       inkscape:connector-curvature="0"
       style="fill:none;stroke:#babdb6;stroke-width:3.35024667;stroke-linecap:round;stroke-linejoin:miter;stroke-miterlimit:4;stroke-opacity:1;stroke-dasharray:none;display:inline"
       d="m 133.80057,105.41617 -80.333195,0"
       id="path2331" />
    <path
       sodipodi:type="arc"
       style="color:#000000;fill:#2e3436;fill-opacity:1;fill-rule:nonzero;stroke:none;stroke-width:1;marker:none;visibility:visible;display:inline;overflow:visible"
       id="path2336"
       sodipodi:cx="38.25"
       sodipodi:cy="14.5"
       sodipodi:rx="4.25"
       sodipodi:ry="4.5"
       d="m 42.5,14.5 a 4.25,4.5 0 1 1 -8.5,0 4.25,4.5 0 1 1 8.5,0 z"
       transform="matrix(-0.39414632,0,0,-0.37224911,68.470777,144.31623)" />
    <path
       sodipodi:type="arc"
       style="color:#000000;fill:#2e3436;fill-opacity:1;fill-rule:nonzero;stroke:none;stroke-width:1;marker:none;visibility:visible;display:inline;overflow:visible"
       id="path2338"
       sodipodi:cx="38.25"
       sodipodi:cy="14.5"
       sodipodi:rx="4.25"
       sodipodi:ry="4.5"
       d="m 42.5,14.5 a 4.25,4.5 0 1 1 -8.5,0 4.25,4.5 0 1 1 8.5,0 z"
       transform="matrix(-0.39414632,0,0,-0.37224911,68.470777,127.56501)" />
    <path
       sodipodi:type="arc"
       style="color:#000000;fill:#2e3436;fill-opacity:1;fill-rule:nonzero;stroke:none;stroke-width:1;marker:none;visibility:visible;display:inline;overflow:visible"
       id="path2340"
       sodipodi:cx="38.25"
       sodipodi:cy="14.5"
       sodipodi:rx="4.25"
       sodipodi:ry="4.5"
       d="m 42.5,14.5 a 4.25,4.5 0 1 1 -8.5,0 4.25,4.5 0 1 1 8.5,0 z"
       transform="matrix(-0.39414632,0,0,-0.37224911,68.470777,110.81378)" />
    <path
       sodipodi:type="arc"
       style="color:#000000;fill:#2e3436;fill-opacity:1;fill-rule:nonzero;stroke:none;stroke-width:1;marker:none;visibility:visible;display:inline;overflow:visible"
       id="path2342"
       sodipodi:cx="38.25"
       sodipodi:cy="14.5"
       sodipodi:rx="4.25"
       sodipodi:ry="4.5"
       d="m 42.5,14.5 a 4.25,4.5 0 1 1 -8.5,0 4.25,4.5 0 1 1 8.5,0 z"
       transform="matrix(-0.39414632,0,0,-0.37224911,148.87668,110.81378)" />
    <path
       sodipodi:type="arc"
       style="color:#000000;fill:#2e3436;fill-opacity:1;fill-rule:nonzero;stroke:none;stroke-width:1;marker:none;visibility:visible;display:inline;overflow:visible"
       id="path2344"
       sodipodi:cx="38.25"
       sodipodi:cy="14.5"
       sodipodi:rx="4.25"
       sodipodi:ry="4.5"
       d="m 42.5,14.5 a 4.25,4.5 0 1 1 -8.5,0 4.25,4.5 0 1 1 8.5,0 z"
       transform="matrix(-0.39414632,0,0,-0.37224911,148.87667,127.56501)" />
    <path
       sodipodi:type="arc"
       style="color:#000000;fill:#2e3436;fill-opacity:1;fill-rule:nonzero;stroke:none;stroke-width:1;marker:none;visibility:visible;display:inline;overflow:visible"
       id="path2346"
       sodipodi:cx="38.25"
       sodipodi:cy="14.5"
       sodipodi:rx="4.25"
       sodipodi:ry="4.5"
       d="m 42.5,14.5 a 4.25,4.5 0 1 1 -8.5,0 4.25,4.5 0 1 1 8.5,0 z"
       transform="matrix(-0.39414632,0,0,-0.37224911,148.87668,144.31623)" />
    <path
       transform="matrix(-3.3157077,0,0,-3.9414665,258.57204,386.86391)"
       d="m 50.25,39.75 a 24.25,4.25 0 1 1 -48.5,0 24.25,4.25 0 1 1 48.5,0 z"
       sodipodi:ry="4.25"
       sodipodi:rx="24.25"
       sodipodi:cy="39.75"
       sodipodi:cx="26"
       id="path5038"
       style="opacity:0.3;color:#000000;fill:url(#radialGradient5040);fill-opacity:1;fill-rule:nonzero;stroke:none;stroke-width:1;marker:none;visibility:visible;display:inline;overflow:visible"
       sodipodi:type="arc" />
    <path
       sodipodi:nodetypes="ccccccccc"
       id="path5042"
       d="m 229.30912,229.27942 -117.24115,0 c -2.78891,0 -5.03411,-2.2452 -5.03411,-5.03408 l 0,-117.24116 c 0,-2.78887 2.2452,-5.03407 5.03411,-5.03407 l 110.54937,0 11.72586,11.72586 0,110.54937 c 0,2.78888 -2.2452,5.03408 -5.03408,5.03408 z"
       style="color:#000000;fill:url(#linearGradient5044);fill-opacity:1;fill-rule:nonzero;stroke:#204a87;stroke-width:3.35024548;stroke-linecap:square;stroke-linejoin:round;stroke-miterlimit:4;stroke-opacity:1;stroke-dashoffset:0;marker:none;visibility:visible;display:inline;overflow:visible"
       inkscape:connector-curvature="0" />
    <path
       sodipodi:nodetypes="ccccccc"
       id="path5046"
       d="m 202.29776,145.5233 -76.61942,0 c -2.90489,0 -5.2435,-2.33862 -5.2435,-5.24347 l 0,-38.30972 87.10639,0 0,38.30972 c 0,2.90485 -2.33858,5.24347 -5.24347,5.24347 z"
       style="opacity:0.4;color:#000000;fill:none;stroke:url(#linearGradient5048);stroke-width:3.35024548;stroke-linecap:square;stroke-linejoin:round;stroke-miterlimit:4;stroke-opacity:1;stroke-dashoffset:0;marker:none;visibility:visible;display:inline;overflow:visible"
       inkscape:connector-curvature="0" />
    <path
       sodipodi:nodetypes="ccccccccc"
       id="path5050"
       d="m 229.39585,225.92918 -117.41462,0 c -0.8848,0 -1.59712,-0.71231 -1.59712,-1.59711 l 0,-117.41462 c 0,-0.8848 0.71232,-1.5971 1.59712,-1.5971 l 108.96099,0 10.05074,10.05074 0,108.96098 c 0,0.8848 -0.71232,1.59711 -1.59711,1.59711 z"
       style="opacity:0.6;color:#000000;fill:none;stroke:url(#linearGradient5052);stroke-width:3.35024548;stroke-linecap:square;stroke-linejoin:round;stroke-miterlimit:4;stroke-opacity:1;stroke-dashoffset:0;marker:none;visibility:visible;display:inline;overflow:visible"
       inkscape:connector-curvature="0" />
    <path
       sodipodi:nodetypes="cccccc"
       id="path5054"
       d="m 204.19099,105.32035 0,35.25557 c 0,0.8848 -0.71231,1.59713 -1.59711,1.59713 l -77.21167,0 c -0.8848,0 -1.59712,-0.71233 -1.59712,-1.59713 l 0,-35.25557"
       style="opacity:0.23921569;color:#000000;fill:none;stroke:url(#linearGradient5056);stroke-width:3.35024548;stroke-linecap:round;stroke-linejoin:round;stroke-miterlimit:4;stroke-opacity:1;stroke-dasharray:none;stroke-dashoffset:0;marker:none;visibility:visible;display:inline;overflow:visible"
       inkscape:connector-curvature="0" />
    <rect
       transform="scale(-1,-1)"
       y="-142.17305"
       x="-200.84074"
       height="33.502457"
       width="23.451717"
       id="rect5058"
       style="color:#000000;fill:url(#linearGradient5060);fill-opacity:1;fill-rule:nonzero;stroke:none;stroke-width:1;marker:none;visibility:visible;display:inline;overflow:visible" />
    <path
       sodipodi:nodetypes="csccccccccccssccssccssccssc"
       id="path5062"
       d="m 206.49429,145.5233 c 1.01008,-0.12765 1.99201,-0.62436 2.72207,-1.25634 1.0122,-0.91961 1.67512,-2.28745 1.67512,-3.76903 l 0,-38.52782 -67.00492,0 0,38.52782 c 0,2.78888 2.23648,5.02537 5.02536,5.02537 l 56.95419,0 c 0.21787,0 0.41775,0.0268 0.62818,0 z m -10.46952,-6.70049 c -0.12346,0.0268 -0.28768,0 -0.41878,0 l -12.98222,0 c -0.42609,0 -0.83592,-0.18292 -1.15165,-0.41879 -0.0935,-0.0771 -0.23686,-0.22078 -0.31392,-0.31392 -0.23585,-0.31559 -0.41878,-0.72556 -0.41878,-1.15164 l 0,-23.03294 c 0,-0.42612 0.18293,-0.83595 0.41878,-1.15165 0.0771,-0.0935 0.22078,-0.23719 0.31392,-0.31391 0.3156,-0.23586 0.72556,-0.41878 1.15165,-0.41878 l 12.98222,0 c 0.42609,0 0.83594,0.18292 1.15165,0.41878 0.0934,0.077 0.23702,0.22078 0.31408,0.31391 0.23582,0.3156 0.41878,0.72553 0.41878,1.15165 l 0,23.03294 c 0,0.42608 -0.18296,0.83595 -0.41878,1.15164 -0.0771,0.0935 -0.22064,0.2372 -0.31408,0.31392 -0.21857,0.16316 -0.45507,0.36224 -0.73287,0.41879 z"
       style="color:#000000;fill:url(#linearGradient5064);fill-opacity:1;fill-rule:nonzero;stroke:#555753;stroke-width:3.35024548;stroke-linecap:square;stroke-linejoin:round;stroke-miterlimit:4;stroke-opacity:1;stroke-dashoffset:0;marker:none;visibility:visible;display:inline;overflow:visible"
       inkscape:connector-curvature="0" />
    <rect
       transform="scale(-1,-1)"
       y="-220.90382"
       x="-229.31783"
       height="6.700491"
       width="6.700491"
       id="rect5066"
       style="opacity:0.2;color:#000000;fill:#ffffff;fill-opacity:1;fill-rule:nonzero;stroke:none;stroke-width:1;marker:none;visibility:visible;display:inline;overflow:visible" />
    <rect
       transform="scale(-1,-1)"
       y="-220.90382"
       x="-229.31783"
       height="3.3502455"
       width="3.3502455"
       id="rect5068"
       style="color:#000000;fill:#000000;fill-opacity:1;fill-rule:nonzero;stroke:none;stroke-width:1;marker:none;visibility:visible;display:inline;overflow:visible" />
    <rect
       transform="scale(-1,-1)"
       y="-220.90382"
       x="-118.75977"
       height="6.700491"
       width="6.700491"
       id="rect5070"
       style="opacity:0.2;color:#000000;fill:#ffffff;fill-opacity:1;fill-rule:nonzero;stroke:none;stroke-width:1;marker:none;visibility:visible;display:inline;overflow:visible" />
    <rect
       transform="scale(-1,-1)"
       y="-220.90382"
       x="-118.75977"
       height="3.3502455"
       width="3.3502455"
       id="rect5072"
       style="color:#000000;fill:#000000;fill-opacity:1;fill-rule:nonzero;stroke:none;stroke-width:1;marker:none;visibility:visible;display:inline;overflow:visible" />
    <path
       sodipodi:nodetypes="ccccccc"
       id="path5074"
       d="m 205.86611,142.17305 -56.85257,0 c -0.9843,0 -1.77674,-0.79243 -1.77674,-1.77673 l 0,-35.07597 60.40605,0 0,35.07597 c 0,0.9843 -0.79242,1.77673 -1.77674,1.77673 z"
       style="opacity:0.29803922;color:#000000;fill:none;stroke:url(#linearGradient5076);stroke-width:3.35024548;stroke-linecap:square;stroke-linejoin:miter;stroke-miterlimit:4;stroke-opacity:1;stroke-dashoffset:0;marker:none;visibility:visible;display:inline;overflow:visible"
       inkscape:connector-curvature="0" />
    <path
       sodipodi:nodetypes="ccccccc"
       id="path5078"
       d="m 120.43484,229.27942 0,-68.62886 c 0,-2.8124 2.26417,-5.07653 5.07656,-5.07653 l 90.35428,0 c 2.8124,0 5.07654,2.26413 5.07654,5.07653 l 0,68.62886 -100.50738,0 z"
       style="opacity:0.6;color:#000000;fill:none;stroke:url(#linearGradient5080);stroke-width:3.35024548;stroke-linecap:square;stroke-linejoin:round;stroke-miterlimit:4;stroke-opacity:1;stroke-dashoffset:0;marker:none;visibility:visible;display:inline;overflow:visible"
       inkscape:connector-curvature="0" />
    <rect
       transform="scale(-1,-1)"
       ry="1.7263021"
       rx="1.7263021"
       y="-229.27942"
       x="-217.59198"
       height="70.355148"
       width="93.80687"
       id="rect5082"
       style="color:#000000;fill:url(#linearGradient5084);fill-opacity:1;fill-rule:nonzero;stroke:#e2e2df;stroke-width:3.35024548;stroke-linecap:square;stroke-linejoin:round;stroke-miterlimit:4;stroke-opacity:1;stroke-dasharray:none;stroke-dashoffset:0;marker:none;visibility:visible;display:inline;overflow:visible" />
    <rect
       transform="scale(-1,-1)"
       ry="0"
       rx="0"
       y="-230.95454"
       x="-219.26711"
       height="10.050736"
       width="97.157112"
       id="rect5086"
       style="color:#000000;fill:#f57900;fill-opacity:1;fill-rule:nonzero;stroke:none;stroke-width:1;marker:none;visibility:visible;display:inline;overflow:visible" />
    <path
       sodipodi:nodetypes="cc"
       id="path5088"
       d="m 217.59197,229.27942 -93.80688,0"
       style="fill:#ce5c00;fill-opacity:0.75;fill-rule:evenodd;stroke:#ce5c00;stroke-width:3.35024548;stroke-linecap:square;stroke-linejoin:miter;stroke-miterlimit:4;stroke-opacity:1;stroke-dasharray:none;display:inline"
       inkscape:connector-curvature="0" />
    <path
       sodipodi:nodetypes="cc"
       id="path5090"
       d="m 217.59197,225.92918 -93.80688,0"
       style="opacity:0.34901961;fill:#ce5c00;fill-opacity:0.75;fill-rule:evenodd;stroke:#ffffff;stroke-width:3.35024548;stroke-linecap:square;stroke-linejoin:miter;stroke-miterlimit:4;stroke-opacity:1;stroke-dasharray:none;display:inline"
       inkscape:connector-curvature="0" />
    <path
       id="path5092"
       d="m 210.89148,205.82771 -80.3332,0"
       style="fill:none;stroke:#babdb6;stroke-width:3.35024667;stroke-linecap:round;stroke-linejoin:miter;stroke-miterlimit:4;stroke-opacity:1;stroke-dasharray:none;display:inline"
       inkscape:connector-curvature="0" />
    <path
       id="path5094"
       d="m 210.89148,189.07648 -80.3332,0"
       style="fill:none;stroke:#babdb6;stroke-width:3.35024667;stroke-linecap:round;stroke-linejoin:miter;stroke-miterlimit:4;stroke-opacity:1;stroke-dasharray:none;display:inline"
       inkscape:connector-curvature="0" />
    <path
       id="path5096"
       d="m 210.89148,172.32526 -80.3332,0"
       style="fill:none;stroke:#babdb6;stroke-width:3.35024667;stroke-linecap:round;stroke-linejoin:miter;stroke-miterlimit:4;stroke-opacity:1;stroke-dasharray:none;display:inline"
       inkscape:connector-curvature="0" />
    <path
       transform="matrix(-0.39414632,0,0,-0.37224911,145.56168,211.22532)"
       d="m 42.5,14.5 a 4.25,4.5 0 1 1 -8.5,0 4.25,4.5 0 1 1 8.5,0 z"
       sodipodi:ry="4.5"
       sodipodi:rx="4.25"
       sodipodi:cy="14.5"
       sodipodi:cx="38.25"
       id="path5098"
       style="color:#000000;fill:#2e3436;fill-opacity:1;fill-rule:nonzero;stroke:none;stroke-width:1;marker:none;visibility:visible;display:inline;overflow:visible"
       sodipodi:type="arc" />
    <path
       transform="matrix(-0.39414632,0,0,-0.37224911,145.56168,194.4741)"
       d="m 42.5,14.5 a 4.25,4.5 0 1 1 -8.5,0 4.25,4.5 0 1 1 8.5,0 z"
       sodipodi:ry="4.5"
       sodipodi:rx="4.25"
       sodipodi:cy="14.5"
       sodipodi:cx="38.25"
       id="path5100"
       style="color:#000000;fill:#2e3436;fill-opacity:1;fill-rule:nonzero;stroke:none;stroke-width:1;marker:none;visibility:visible;display:inline;overflow:visible"
       sodipodi:type="arc" />
    <path
       transform="matrix(-0.39414632,0,0,-0.37224911,145.56168,177.72287)"
       d="m 42.5,14.5 a 4.25,4.5 0 1 1 -8.5,0 4.25,4.5 0 1 1 8.5,0 z"
       sodipodi:ry="4.5"
       sodipodi:rx="4.25"
       sodipodi:cy="14.5"
       sodipodi:cx="38.25"
       id="path5102"
       style="color:#000000;fill:#2e3436;fill-opacity:1;fill-rule:nonzero;stroke:none;stroke-width:1;marker:none;visibility:visible;display:inline;overflow:visible"
       sodipodi:type="arc" />
    <path
       transform="matrix(-0.39414632,0,0,-0.37224911,225.96759,177.72287)"
       d="m 42.5,14.5 a 4.25,4.5 0 1 1 -8.5,0 4.25,4.5 0 1 1 8.5,0 z"
       sodipodi:ry="4.5"
       sodipodi:rx="4.25"
       sodipodi:cy="14.5"
       sodipodi:cx="38.25"
       id="path5104"
       style="color:#000000;fill:#2e3436;fill-opacity:1;fill-rule:nonzero;stroke:none;stroke-width:1;marker:none;visibility:visible;display:inline;overflow:visible"
       sodipodi:type="arc" />
    <path
       transform="matrix(-0.39414632,0,0,-0.37224911,225.96758,194.4741)"
       d="m 42.5,14.5 a 4.25,4.5 0 1 1 -8.5,0 4.25,4.5 0 1 1 8.5,0 z"
       sodipodi:ry="4.5"
       sodipodi:rx="4.25"
       sodipodi:cy="14.5"
       sodipodi:cx="38.25"
       id="path5106"
       style="color:#000000;fill:#2e3436;fill-opacity:1;fill-rule:nonzero;stroke:none;stroke-width:1;marker:none;visibility:visible;display:inline;overflow:visible"
       sodipodi:type="arc" />
    <path
       transform="matrix(-0.39414632,0,0,-0.37224911,225.96759,211.22532)"
       d="m 42.5,14.5 a 4.25,4.5 0 1 1 -8.5,0 4.25,4.5 0 1 1 8.5,0 z"
       sodipodi:ry="4.5"
       sodipodi:rx="4.25"
       sodipodi:cy="14.5"
       sodipodi:cx="38.25"
       id="path5108"
       style="color:#000000;fill:#2e3436;fill-opacity:1;fill-rule:nonzero;stroke:none;stroke-width:1;marker:none;visibility:visible;display:inline;overflow:visible"
       sodipodi:type="arc" />
  </g>
</svg>
