<?xml version="1.0" encoding="UTF-8" standalone="no"?>
<!-- Created with Inkscape (http://www.inkscape.org/) -->

<svg
   xmlns:dc="http://purl.org/dc/elements/1.1/"
   xmlns:cc="http://creativecommons.org/ns#"
   xmlns:rdf="http://www.w3.org/1999/02/22-rdf-syntax-ns#"
   xmlns:svg="http://www.w3.org/2000/svg"
   xmlns="http://www.w3.org/2000/svg"
   xmlns:xlink="http://www.w3.org/1999/xlink"
   xmlns:sodipodi="http://sodipodi.sourceforge.net/DTD/sodipodi-0.dtd"
   xmlns:inkscape="http://www.inkscape.org/namespaces/inkscape"
   width="256px"
   height="256px"
   id="svg2985"
   version="1.1"
   inkscape:version="0.48.4 r9939"
   sodipodi:docname="duplicate.svg">
  <defs
     id="defs2987">
    <radialGradient
       r="7.84375"
       fy="16.96875"
       fx="12.15625"
       cy="16.96875"
       cx="12.15625"
       gradientTransform="matrix(1,0,0,0.537849,0,7.842131)"
       gradientUnits="userSpaceOnUse"
       id="radialGradient3927"
       xlink:href="#linearGradient3209"
       inkscape:collect="always" />
    <linearGradient
       inkscape:collect="always"
       id="linearGradient3209">
      <stop
         style="stop-color:black;stop-opacity:1;"
         offset="0"
         id="stop3211" />
      <stop
         style="stop-color:black;stop-opacity:0;"
         offset="1"
         id="stop3213" />
    </linearGradient>
    <linearGradient
       id="linearGradient3252">
      <stop
         id="stop3254"
         offset="0"
         style="stop-color:#744602;stop-opacity:1;" />
      <stop
         style="stop-color:#d88500;stop-opacity:1;"
         offset="0.24886067"
         id="stop3258" />
      <stop
         id="stop3260"
         offset="0.60878158"
         style="stop-color:#c97903;stop-opacity:1;" />
      <stop
         id="stop3256"
         offset="1"
         style="stop-color:white;stop-opacity:1;" />
    </linearGradient>
    <linearGradient
       id="linearGradient3263">
      <stop
         style="stop-color:#000000;stop-opacity:1;"
         offset="0"
         id="stop3265" />
      <stop
         style="stop-color:#000000;stop-opacity:0;"
         offset="1"
         id="stop3267" />
    </linearGradient>
    <filter
       id="filter3096"
       inkscape:label="Desaturate"
       x="0"
       y="0"
       width="1"
       height="1"
       inkscape:menu="Color"
       inkscape:menu-tooltip="Render in shades of gray by reducing saturation to zero"
       color-interpolation-filters="sRGB">
      <feColorMatrix
         id="feColorMatrix3098"
         type="saturate"
         values="0" />
    </filter>
    <filter
       id="filter3100"
       inkscape:label="Desaturate"
       x="0"
       y="0"
       width="1"
       height="1"
       inkscape:menu="Color"
       inkscape:menu-tooltip="Render in shades of gray by reducing saturation to zero"
       color-interpolation-filters="sRGB">
      <feColorMatrix
         id="feColorMatrix3102"
         type="saturate"
         values="0" />
    </filter>
  </defs>
  <sodipodi:namedview
     id="base"
     pagecolor="#ffffff"
     bordercolor="#666666"
     borderopacity="1.0"
     inkscape:pageopacity="0.0"
     inkscape:pageshadow="2"
     inkscape:zoom="1"
     inkscape:cx="139.01355"
     inkscape:cy="127.21126"
     inkscape:current-layer="layer1"
     showgrid="true"
     inkscape:document-units="px"
     inkscape:grid-bbox="true"
     inkscape:window-width="927"
     inkscape:window-height="1028"
     inkscape:window-x="65"
     inkscape:window-y="24"
     inkscape:window-maximized="0" />
  <metadata
     id="metadata2990">
    <rdf:RDF>
      <cc:Work
         rdf:about="">
        <dc:format>image/svg+xml</dc:format>
        <dc:type
           rdf:resource="http://purl.org/dc/dcmitype/StillImage" />
        <dc:title></dc:title>
      </cc:Work>
    </rdf:RDF>
  </metadata>
  <g
     id="layer1"
     inkscape:label="Layer 1"
     inkscape:groupmode="layer">
    <rect
       y="184.68977"
       x="-85.014977"
       height="22"
       width="336"
       id="rect3975"
       style="opacity:0.55555558;fill:#ff3434;fill-opacity:1;stroke:none"
       transform="matrix(0.96077567,-0.27732674,0.27732674,0.96077567,0,0)" />
    <rect
       style="opacity:0.55555558;fill:#ff3434;fill-opacity:1;stroke:none"
       id="rect3971"
       width="336"
       height="22"
       x="-1.3047218"
       y="123.14054"
       transform="matrix(0.97794264,0.20887362,-0.20887362,0.97794264,0,0)" />
    <g
       transform="scale(0.92192495,1.084687)"
       style="font-size:43.73340607px;font-style:normal;font-weight:normal;line-height:125%;letter-spacing:-11.45815182px;word-spacing:0px;fill:#000000;fill-opacity:1;stroke:none;font-family:Sans"
       id="text3981">
      <path
         d="m -0.60365039,178.4213 10.72835139,0 0,-38.98423 -11.5483528,2.59667 0,-6.28668 11.4800188,-2.52833 6.901678,0 0,45.20257 10.591685,0 0,5.80834 -28.15338039,0 0,-5.80834"
         style="font-size:69.97344971px;font-variant:normal;font-stretch:normal;font-family:Monospace;-inkscape-font-specification:Monospace"
         id="path4005" />
      <path
         d="m 64.186022,178.4213 23.438373,0 0,5.80834 -30.989219,0 0,-5.80834 c 4.259442,-4.48722 7.983612,-8.45055 11.172519,-11.89002 3.188875,-3.43943 5.386932,-5.86526 6.594178,-7.27751 2.277756,-2.77887 3.815257,-5.02248 4.612507,-6.73084 0.797195,-1.73109 1.195807,-3.49636 1.195836,-5.29585 -2.9e-5,-2.84718 -0.842807,-5.07941 -2.528338,-6.69667 -1.662805,-1.61718 -3.951973,-2.4258 -6.867511,-2.42584 -2.072799,4e-5 -4.248078,0.37588 -6.525845,1.1275 -2.277792,0.75171 -4.692238,1.8906 -7.243345,3.41667 l 0,-6.97001 c 2.346107,-1.11606 4.646664,-1.95884 6.901678,-2.52834 2.277767,-0.56939 4.52138,-0.85411 6.730845,-0.85416 4.988317,5e-5 8.997209,1.33255 12.026686,3.9975 3.052193,2.64227 4.578306,6.11589 4.578341,10.42085 -3.5e-5,2.18671 -0.512536,4.37338 -1.537502,6.56001 -1.002257,2.1867 -2.642258,4.60115 -4.920008,7.24335 -1.275586,1.48058 -3.131976,3.53058 -5.569176,6.15001 -2.41447,2.61946 -6.104473,6.53724 -11.070019,11.75335"
         style="font-size:69.97344971px;font-variant:normal;font-stretch:normal;font-family:Monospace;-inkscape-font-specification:Monospace"
         id="path4007" />
      <path
         d="m 121.93735,178.4213 10.72835,0 0,-38.98423 -11.54835,2.59667 0,-6.28668 11.48002,-2.52833 6.90168,0 0,45.20257 10.59168,0 0,5.80834 -28.15338,0 0,-5.80834"
         style="font-size:69.97344971px;font-variant:normal;font-stretch:normal;font-family:Monospace;-inkscape-font-specification:Monospace"
         id="path4009" />
      <path
         d="m 190.48537,158.6046 c -2e-5,-1.25275 0.43276,-2.3347 1.29834,-3.24584 0.88831,-0.91108 1.94748,-1.36664 3.1775,-1.36667 1.27554,3e-5 2.36887,0.45559 3.28001,1.36667 0.91108,0.91114 1.36664,1.99309 1.36667,3.24584 -3e-5,1.27558 -0.45559,2.35753 -1.36667,3.24584 -0.88836,0.88836 -1.9817,1.33252 -3.28001,1.3325 -1.27558,2e-5 -2.34613,-0.43275 -3.21167,-1.29833 -0.8428,-0.86554 -1.26419,-1.95887 -1.26417,-3.28001 m 4.54417,-20.8417 c -3.21169,5e-5 -5.61474,1.73116 -7.20917,5.19334 -1.57169,3.46227 -2.35752,8.73533 -2.35751,15.8192 -1e-5,7.06114 0.78582,12.32281 2.35751,15.78502 1.59443,3.46224 3.99748,5.19335 7.20917,5.19334 3.23443,10e-6 5.63749,-1.7311 7.20918,-5.19334 1.59442,-3.46221 2.39164,-8.72388 2.39167,-15.78502 -3e-5,-7.08387 -0.79725,-12.35693 -2.39167,-15.8192 -1.57169,-3.46218 -3.97475,-5.19329 -7.20918,-5.19334 m 0,-5.46667 c 5.44388,5e-5 9.55527,2.23227 12.33419,6.69667 2.80164,4.4645 4.20247,11.05867 4.20251,19.78254 -4e-5,8.70114 -1.40087,15.28392 -4.20251,19.74836 -2.77892,4.46446 -6.89031,6.69668 -12.33419,6.69668 -5.44391,0 -9.5553,-2.23222 -12.33418,-6.69668 -2.7789,-4.46444 -4.16835,-11.04722 -4.16834,-19.74836 -1e-5,-8.72387 1.38944,-15.31804 4.16834,-19.78254 2.77888,-4.4644 6.89027,-6.69662 12.33418,-6.69667"
         style="font-size:69.97344971px;font-variant:normal;font-stretch:normal;font-family:Monospace;-inkscape-font-specification:Monospace"
         id="path4011" />
      <path
         d="m 251.75586,158.6046 c -1e-5,-1.25275 0.43276,-2.3347 1.29834,-3.24584 0.88831,-0.91108 1.94748,-1.36664 3.1775,-1.36667 1.27554,3e-5 2.36887,0.45559 3.28001,1.36667 0.91109,0.91114 1.36664,1.99309 1.36667,3.24584 -3e-5,1.27558 -0.45558,2.35753 -1.36667,3.24584 -0.88836,0.88836 -1.98169,1.33252 -3.28001,1.3325 -1.27557,2e-5 -2.34613,-0.43275 -3.21167,-1.29833 -0.84279,-0.86554 -1.26418,-1.95887 -1.26417,-3.28001 m 4.54418,-20.8417 c -3.21169,5e-5 -5.61475,1.73116 -7.20918,5.19334 -1.57168,3.46227 -2.35752,8.73533 -2.35751,15.8192 -1e-5,7.06114 0.78583,12.32281 2.35751,15.78502 1.59443,3.46224 3.99749,5.19335 7.20918,5.19334 3.23442,10e-6 5.63748,-1.7311 7.20918,-5.19334 1.59441,-3.46221 2.39164,-8.72388 2.39167,-15.78502 -3e-5,-7.08387 -0.79726,-12.35693 -2.39167,-15.8192 -1.5717,-3.46218 -3.97476,-5.19329 -7.20918,-5.19334 m 0,-5.46667 c 5.44387,5e-5 9.55526,2.23227 12.33418,6.69667 2.80164,4.4645 4.20247,11.05867 4.20251,19.78254 -4e-5,8.70114 -1.40087,15.28392 -4.20251,19.74836 -2.77892,4.46446 -6.89031,6.69668 -12.33418,6.69668 -5.44392,0 -9.55531,-2.23222 -12.33419,-6.69668 -2.7789,-4.46444 -4.16835,-11.04722 -4.16834,-19.74836 -10e-6,-8.72387 1.38944,-15.31804 4.16834,-19.78254 2.77888,-4.4644 6.89027,-6.69662 12.33419,-6.69667"
         style="font-size:69.97344971px;font-variant:normal;font-stretch:normal;font-family:Monospace;-inkscape-font-specification:Monospace"
         id="path4013" />
    </g>
    <g
       transform="scale(0.92192495,1.084687)"
       style="font-size:43.73340607px;font-style:normal;font-weight:normal;line-height:125%;letter-spacing:-11.45815182px;word-spacing:0px;fill:#000000;fill-opacity:1;stroke:none;font-family:Sans"
       id="text3977">
      <path
         d="m -0.60365039,94.526137 10.72835139,0 0,-38.984231 -11.5483528,2.596671 0,-6.286677 11.4800188,-2.528338 6.901678,0 0,45.202575 10.591685,0 0,5.808343 -28.15338039,0 0,-5.808343"
         style="font-size:69.97344971px;font-variant:normal;font-stretch:normal;font-family:Monospace;-inkscape-font-specification:Monospace"
         id="path4016" />
      <path
         d="m 64.186022,94.526137 23.438373,0 0,5.808343 -30.989219,0 0,-5.808343 c 4.259442,-4.487219 7.983612,-8.450555 11.172519,-11.890019 3.188875,-3.43943 5.386932,-5.865264 6.594178,-7.277513 2.277756,-2.778865 3.815257,-5.022478 4.612507,-6.730844 0.797195,-1.731081 1.195807,-3.49636 1.195836,-5.295842 -2.9e-5,-2.847187 -0.842807,-5.079411 -2.528338,-6.696678 -1.662805,-1.61718 -3.951973,-2.425791 -6.867511,-2.425837 -2.072799,4.6e-5 -4.248078,0.375879 -6.525845,1.127501 -2.277792,0.751713 -4.692238,1.890602 -7.243345,3.416673 l 0,-6.970012 c 2.346107,-1.116063 4.646664,-1.958841 6.901678,-2.528337 2.277767,-0.569394 4.52138,-0.854116 6.730845,-0.854168 4.988317,5.2e-5 8.997209,1.332552 12.026686,3.997506 3.052193,2.642272 4.578306,6.115886 4.578341,10.420851 -3.5e-5,2.186706 -0.512536,4.373374 -1.537502,6.560011 -1.002257,2.186699 -2.642258,4.601145 -4.920008,7.243345 -1.275586,1.48058 -3.131976,3.530582 -5.569176,6.15001 -2.41447,2.619464 -6.104473,6.537245 -11.070019,11.753353"
         style="font-size:69.97344971px;font-variant:normal;font-stretch:normal;font-family:Monospace;-inkscape-font-specification:Monospace"
         id="path4018" />
      <path
         d="m 121.93735,94.526137 10.72835,0 0,-38.984231 -11.54835,2.596671 0,-6.286677 11.48002,-2.528338 6.90168,0 0,45.202575 10.59168,0 0,5.808343 -28.15338,0 0,-5.808343"
         style="font-size:69.97344971px;font-variant:normal;font-stretch:normal;font-family:Monospace;-inkscape-font-specification:Monospace"
         id="path4020" />
      <path
         d="m 190.48537,74.709438 c -2e-5,-1.252753 0.43276,-2.334698 1.29834,-3.245839 0.88831,-0.911083 1.94748,-1.366639 3.1775,-1.366669 1.27554,3e-5 2.36887,0.455586 3.28001,1.366669 0.91108,0.911141 1.36664,1.993086 1.36667,3.245839 -3e-5,1.275582 -0.45559,2.357527 -1.36667,3.245838 -0.88836,0.888357 -1.9817,1.332524 -3.28001,1.332503 -1.27558,2.1e-5 -2.34613,-0.432757 -3.21167,-1.298336 -0.8428,-0.865534 -1.26419,-1.958868 -1.26417,-3.280005 m 4.54417,-20.841702 c -3.21169,4.7e-5 -5.61474,1.731159 -7.20917,5.193342 -1.57169,3.462266 -2.35752,8.735325 -2.35751,15.819193 -1e-5,7.061142 0.78582,12.322812 2.35751,15.785027 1.59443,3.462234 3.99748,5.193346 7.20917,5.193342 3.23443,4e-6 5.63749,-1.731108 7.20918,-5.193342 1.59442,-3.462215 2.39164,-8.723885 2.39167,-15.785027 -3e-5,-7.083868 -0.79725,-12.356927 -2.39167,-15.819193 -1.57169,-3.462183 -3.97475,-5.193295 -7.20918,-5.193342 m 0,-5.466675 c 5.44388,5.2e-5 9.55527,2.232275 12.33419,6.696677 2.80164,4.464493 4.20247,11.058664 4.20251,19.782533 -4e-5,8.701143 -1.40087,15.283925 -4.20251,19.748366 -2.77892,4.464454 -6.89031,6.696673 -12.33419,6.696683 -5.44391,-1e-5 -9.5553,-2.232229 -12.33418,-6.696683 -2.7789,-4.464441 -4.16835,-11.047223 -4.16834,-19.748366 -1e-5,-8.723869 1.38944,-15.31804 4.16834,-19.782533 2.77888,-4.464402 6.89027,-6.696625 12.33418,-6.696677"
         style="font-size:69.97344971px;font-variant:normal;font-stretch:normal;font-family:Monospace;-inkscape-font-specification:Monospace"
         id="path4022" />
      <path
         d="m 251.75586,74.709438 c -1e-5,-1.252753 0.43276,-2.334698 1.29834,-3.245839 0.88831,-0.911083 1.94748,-1.366639 3.1775,-1.366669 1.27554,3e-5 2.36887,0.455586 3.28001,1.366669 0.91109,0.911141 1.36664,1.993086 1.36667,3.245839 -3e-5,1.275582 -0.45558,2.357527 -1.36667,3.245838 -0.88836,0.888357 -1.98169,1.332524 -3.28001,1.332503 -1.27557,2.1e-5 -2.34613,-0.432757 -3.21167,-1.298336 -0.84279,-0.865534 -1.26418,-1.958868 -1.26417,-3.280005 m 4.54418,-20.841702 c -3.21169,4.7e-5 -5.61475,1.731159 -7.20918,5.193342 -1.57168,3.462266 -2.35752,8.735325 -2.35751,15.819193 -1e-5,7.061142 0.78583,12.322812 2.35751,15.785027 1.59443,3.462234 3.99749,5.193346 7.20918,5.193342 3.23442,4e-6 5.63748,-1.731108 7.20918,-5.193342 1.59441,-3.462215 2.39164,-8.723885 2.39167,-15.785027 -3e-5,-7.083868 -0.79726,-12.356927 -2.39167,-15.819193 -1.5717,-3.462183 -3.97476,-5.193295 -7.20918,-5.193342 m 0,-5.466675 c 5.44387,5.2e-5 9.55526,2.232275 12.33418,6.696677 2.80164,4.464493 4.20247,11.058664 4.20251,19.782533 -4e-5,8.701143 -1.40087,15.283925 -4.20251,19.748366 -2.77892,4.464454 -6.89031,6.696673 -12.33418,6.696683 -5.44392,-1e-5 -9.55531,-2.232229 -12.33419,-6.696683 -2.7789,-4.464441 -4.16835,-11.047223 -4.16834,-19.748366 -10e-6,-8.723869 1.38944,-15.31804 4.16834,-19.782533 2.77888,-4.464402 6.89027,-6.696625 12.33419,-6.696677"
         style="font-size:69.97344971px;font-variant:normal;font-stretch:normal;font-family:Monospace;-inkscape-font-specification:Monospace"
         id="path4024" />
    </g>
  </g>
</svg>
