<?xml version="1.0" encoding="UTF-8" standalone="no"?>
<!-- Created with Inkscape (http://www.inkscape.org/) -->

<svg
   xmlns:dc="http://purl.org/dc/elements/1.1/"
   xmlns:cc="http://creativecommons.org/ns#"
   xmlns:rdf="http://www.w3.org/1999/02/22-rdf-syntax-ns#"
   xmlns:svg="http://www.w3.org/2000/svg"
   xmlns="http://www.w3.org/2000/svg"
   xmlns:xlink="http://www.w3.org/1999/xlink"
   xmlns:sodipodi="http://sodipodi.sourceforge.net/DTD/sodipodi-0.dtd"
   xmlns:inkscape="http://www.inkscape.org/namespaces/inkscape"
   width="256px"
   height="256px"
   id="svg5516"
   version="1.1"
   inkscape:version="0.48.4 r9939"
   sodipodi:docname="New document 4">
  <defs
     id="defs5518">
    <linearGradient
       inkscape:collect="always"
       xlink:href="#linearGradient3421"
       id="linearGradient1947"
       gradientUnits="userSpaceOnUse"
       gradientTransform="translate(-3,0)"
       x1="14.125"
       y1="6.125"
       x2="28.250938"
       y2="6.125" />
    <linearGradient
       inkscape:collect="always"
       id="linearGradient3421">
      <stop
         style="stop-color:black;stop-opacity:1;"
         offset="0"
         id="stop3423" />
      <stop
         style="stop-color:black;stop-opacity:0;"
         offset="1"
         id="stop3425" />
    </linearGradient>
    <radialGradient
       inkscape:collect="always"
       xlink:href="#linearGradient3831"
       id="radialGradient1949"
       gradientUnits="userSpaceOnUse"
       gradientTransform="matrix(1,0,0,0.3125,0,13.40625)"
       cx="12"
       cy="19.5"
       fx="12"
       fy="19.5"
       r="8" />
    <linearGradient
       inkscape:collect="always"
       id="linearGradient3831">
      <stop
         style="stop-color:black;stop-opacity:1;"
         offset="0"
         id="stop3833" />
      <stop
         style="stop-color:black;stop-opacity:0;"
         offset="1"
         id="stop3835" />
    </linearGradient>
    <linearGradient
       inkscape:collect="always"
       xlink:href="#linearGradient3091"
       id="linearGradient1951"
       gradientUnits="userSpaceOnUse"
       gradientTransform="matrix(1.295112,1.292994,-1.295112,1.292994,24.82837,7.225528)"
       x1="9.9106054"
       y1="9.2537603"
       x2="2.2502754"
       y2="1.5934311" />
    <linearGradient
       id="linearGradient3091">
      <stop
         style="stop-color:#eeeeec;stop-opacity:1"
         offset="0"
         id="stop3093" />
      <stop
         id="stop3099"
         offset="0.5"
         style="stop-color:#e0e2dd;stop-opacity:1;" />
      <stop
         style="stop-color:#eeeeec;stop-opacity:0;"
         offset="1"
         id="stop3095" />
    </linearGradient>
    <linearGradient
       inkscape:collect="always"
       xlink:href="#linearGradient2851"
       id="linearGradient1953"
       gradientUnits="userSpaceOnUse"
       gradientTransform="matrix(1.295112,1.292994,-1.295112,1.292994,24.82837,7.225528)"
       x1="6.7207937"
       y1="7.385416"
       x2="0.55194509"
       y2="1.2165676" />
    <linearGradient
       id="linearGradient2851">
      <stop
         style="stop-color:#50135f;stop-opacity:0.8230769;"
         offset="0"
         id="stop2853" />
      <stop
         style="stop-color:#aa1cf3;stop-opacity:0;"
         offset="1"
         id="stop2855" />
    </linearGradient>
    <linearGradient
       inkscape:collect="always"
       xlink:href="#linearGradient3083"
       id="linearGradient1955"
       gradientUnits="userSpaceOnUse"
       x1="24.375"
       y1="24.25"
       x2="24.375"
       y2="7.6019897" />
    <linearGradient
       id="linearGradient3083">
      <stop
         style="stop-color:white;stop-opacity:1;"
         offset="0"
         id="stop3085" />
      <stop
         style="stop-color:white;stop-opacity:0;"
         offset="1"
         id="stop3087" />
    </linearGradient>
    <radialGradient
       inkscape:collect="always"
       xlink:href="#linearGradient3151"
       id="radialGradient1957"
       gradientUnits="userSpaceOnUse"
       gradientTransform="matrix(0.700022,0,0,0.633863,0.819259,1.117278)"
       cx="2.1628973"
       cy="2.3786261"
       fx="2.1628973"
       fy="2.3786261"
       r="2.3145764" />
    <linearGradient
       id="linearGradient3151">
      <stop
         id="stop3153"
         offset="0"
         style="stop-color:white;stop-opacity:1" />
      <stop
         style="stop-color:#8ae234;stop-opacity:1;"
         offset="0.5"
         id="stop3155" />
      <stop
         id="stop3157"
         offset="1"
         style="stop-color:#73d216;stop-opacity:1" />
    </linearGradient>
    <linearGradient
       inkscape:collect="always"
       xlink:href="#linearGradient3159"
       id="linearGradient1959"
       gradientUnits="userSpaceOnUse"
       x1="2.1291261"
       y1="1.5277346"
       x2="3.7071068"
       y2="7.7466836" />
    <linearGradient
       inkscape:collect="always"
       id="linearGradient3159">
      <stop
         style="stop-color:white;stop-opacity:1;"
         offset="0"
         id="stop3161" />
      <stop
         style="stop-color:white;stop-opacity:0;"
         offset="1"
         id="stop3163" />
    </linearGradient>
    <radialGradient
       inkscape:collect="always"
       xlink:href="#linearGradient3151"
       id="radialGradient2018"
       gradientUnits="userSpaceOnUse"
       gradientTransform="matrix(0.700022,0,0,0.633863,0.819259,1.117278)"
       cx="2.1628973"
       cy="2.3786261"
       fx="2.1628973"
       fy="2.3786261"
       r="2.3145764" />
    <linearGradient
       id="linearGradient5451">
      <stop
         id="stop5453"
         offset="0"
         style="stop-color:white;stop-opacity:1" />
      <stop
         style="stop-color:#8ae234;stop-opacity:1;"
         offset="0.5"
         id="stop5455" />
      <stop
         id="stop5457"
         offset="1"
         style="stop-color:#73d216;stop-opacity:1" />
    </linearGradient>
    <linearGradient
       inkscape:collect="always"
       xlink:href="#linearGradient3159"
       id="linearGradient2020"
       gradientUnits="userSpaceOnUse"
       x1="2.1291261"
       y1="1.5277346"
       x2="3.7071068"
       y2="7.7466836" />
    <radialGradient
       inkscape:collect="always"
       xlink:href="#linearGradient3151"
       id="radialGradient2028"
       gradientUnits="userSpaceOnUse"
       gradientTransform="matrix(0.700022,0,0,0.633863,0.819259,1.117278)"
       cx="2.1628973"
       cy="2.3786261"
       fx="2.1628973"
       fy="2.3786261"
       r="2.3145764" />
    <linearGradient
       id="linearGradient5467">
      <stop
         id="stop5469"
         offset="0"
         style="stop-color:white;stop-opacity:1" />
      <stop
         style="stop-color:#8ae234;stop-opacity:1;"
         offset="0.5"
         id="stop5471" />
      <stop
         id="stop5473"
         offset="1"
         style="stop-color:#73d216;stop-opacity:1" />
    </linearGradient>
    <linearGradient
       inkscape:collect="always"
       xlink:href="#linearGradient3159"
       id="linearGradient2030"
       gradientUnits="userSpaceOnUse"
       x1="2.1291261"
       y1="1.5277346"
       x2="3.7071068"
       y2="7.7466836" />
    <radialGradient
       inkscape:collect="always"
       xlink:href="#linearGradient3151"
       id="radialGradient2038"
       gradientUnits="userSpaceOnUse"
       gradientTransform="matrix(0.700022,0,0,0.633863,0.819259,1.117278)"
       cx="2.1628973"
       cy="2.3786261"
       fx="2.1628973"
       fy="2.3786261"
       r="2.3145764" />
    <linearGradient
       id="linearGradient5483">
      <stop
         id="stop5485"
         offset="0"
         style="stop-color:white;stop-opacity:1" />
      <stop
         style="stop-color:#8ae234;stop-opacity:1;"
         offset="0.5"
         id="stop5487" />
      <stop
         id="stop5489"
         offset="1"
         style="stop-color:#73d216;stop-opacity:1" />
    </linearGradient>
    <linearGradient
       inkscape:collect="always"
       xlink:href="#linearGradient3159"
       id="linearGradient2040"
       gradientUnits="userSpaceOnUse"
       x1="2.1291261"
       y1="1.5277346"
       x2="3.7071068"
       y2="7.7466836" />
    <linearGradient
       inkscape:collect="always"
       xlink:href="#linearGradient3421"
       id="linearGradient5696"
       gradientUnits="userSpaceOnUse"
       gradientTransform="matrix(4.7877503,0,0,4.7877503,-4.0704429,11.90399)"
       x1="14.125"
       y1="6.125"
       x2="28.250938"
       y2="6.125" />
    <linearGradient
       inkscape:collect="always"
       xlink:href="#linearGradient2851"
       id="linearGradient6480"
       gradientUnits="userSpaceOnUse"
       gradientTransform="matrix(1.295112,1.292994,-1.295112,1.292994,24.82837,7.225528)"
       x1="6.7207937"
       y1="7.385416"
       x2="0.55194509"
       y2="1.2165676" />
    <linearGradient
       inkscape:collect="always"
       xlink:href="#linearGradient3083"
       id="linearGradient6482"
       gradientUnits="userSpaceOnUse"
       x1="24.375"
       y1="24.25"
       x2="24.375"
       y2="7.6019897" />
  </defs>
  <sodipodi:namedview
     id="base"
     pagecolor="#ffffff"
     bordercolor="#666666"
     borderopacity="1.0"
     inkscape:pageopacity="0.0"
     inkscape:pageshadow="2"
     inkscape:zoom="1.375"
     inkscape:cx="124.63468"
     inkscape:cy="118.75873"
     inkscape:current-layer="layer1"
     showgrid="true"
     inkscape:document-units="px"
     inkscape:grid-bbox="true"
     inkscape:window-width="927"
     inkscape:window-height="1028"
     inkscape:window-x="65"
     inkscape:window-y="24"
     inkscape:window-maximized="0" />
  <metadata
     id="metadata5521">
    <rdf:RDF>
      <cc:Work
         rdf:about="">
        <dc:format>image/svg+xml</dc:format>
        <dc:type
           rdf:resource="http://purl.org/dc/dcmitype/StillImage" />
        <dc:title></dc:title>
      </cc:Work>
    </rdf:RDF>
  </metadata>
  <g
     id="layer1"
     inkscape:label="Layer 1"
     inkscape:groupmode="layer">
    <path
       style="opacity:0.2;fill:url(#linearGradient5696);fill-opacity:1;stroke:none;display:inline"
       d="m 65.351936,35.842742 c -3.97862,0 -7.181625,3.203004 -7.181625,7.181625 0,3.97862 3.203005,7.181625 7.181625,7.181625 l 9.575501,0 c 3.978621,0 7.181625,-3.203005 7.181625,-7.181625 0,-3.978621 -3.203004,-7.181625 -7.181625,-7.181625 l -9.575501,0 z m 28.726502,0 c -3.97862,0 -7.181625,3.203004 -7.181625,7.181625 0,3.97862 3.203005,7.181625 7.181625,7.181625 l 4.787751,0 c 3.978621,0 7.181621,-3.203005 7.181621,-7.181625 0,-3.978621 -3.203,-7.181625 -7.181621,-7.181625 l -4.787751,0 z m 23.938752,0 c -3.97862,0 -7.18163,3.203004 -7.18163,7.181625 0,3.97862 3.20301,7.181625 7.18163,7.181625 l 62.24075,0 c 3.97862,0 7.18163,-3.203005 7.18163,-7.181625 0,-3.978621 -3.20301,-7.181625 -7.18163,-7.181625 l -62.24075,0 z M 65.351936,88.507995 c -3.97862,0 -7.181625,3.203005 -7.181625,7.181625 0,3.978621 3.203005,7.18163 7.181625,7.18163 3.978621,0 7.181626,-3.203009 7.181626,-7.18163 0,-3.97862 -3.203005,-7.181625 -7.181626,-7.181625 z m 19.151002,0 c -3.978621,0 -7.181626,3.203005 -7.181626,7.181625 0,3.978621 3.203005,7.18163 7.181626,7.18163 l 23.938752,0 c 3.97862,0 7.18162,-3.203009 7.18162,-7.18163 0,-3.97862 -3.203,-7.181625 -7.18162,-7.181625 l -23.938752,0 z m 43.089752,0 c -3.97862,0 -7.18163,3.203005 -7.18163,7.181625 0,3.978621 3.20301,7.18163 7.18163,7.18163 l 23.93875,0 c 3.97862,0 7.18163,-3.203009 7.18163,-7.18163 0,-3.97862 -3.20301,-7.181625 -7.18163,-7.181625 l -23.93875,0 z M 65.351936,141.17325 c -3.97862,0 -7.181625,3.203 -7.181625,7.18162 0,3.97862 3.203005,7.18163 7.181625,7.18163 3.978621,0 7.181626,-3.20301 7.181626,-7.18163 0,-3.97862 -3.203005,-7.18162 -7.181626,-7.18162 z m 19.151002,0 c -3.978621,0 -7.181626,3.203 -7.181626,7.18162 0,3.97862 3.203005,7.18163 7.181626,7.18163 3.97862,0 7.181625,-3.20301 7.181625,-7.18163 0,-3.97862 -3.203005,-7.18162 -7.181625,-7.18162 z m 19.151002,0 c -3.978622,0 -7.181627,3.203 -7.181627,7.18162 0,3.97862 3.203005,7.18163 7.181627,7.18163 l 19.151,0 c 3.97862,0 7.18163,-3.20301 7.18163,-7.18163 0,-3.97862 -3.20301,-7.18162 -7.18163,-7.18162 l -19.151,0 z m 38.302,0 c -3.97862,0 -7.18162,3.203 -7.18162,7.18162 0,3.97862 3.203,7.18163 7.18162,7.18163 l 23.93875,0 c 3.97862,0 7.18163,-3.20301 7.18163,-7.18163 0,-3.97862 -3.20301,-7.18162 -7.18163,-7.18162 l -23.93875,0 z M 65.351936,193.8385 c -3.97862,0 -7.181625,3.20301 -7.181625,7.18163 0,3.97862 3.203005,7.18162 7.181625,7.18162 3.978621,0 7.181626,-3.203 7.181626,-7.18162 0,-3.97862 -3.203005,-7.18163 -7.181626,-7.18163 z m 19.151002,0 c -3.978621,0 -7.181626,3.20301 -7.181626,7.18163 0,3.97862 3.203005,7.18162 7.181626,7.18162 l 23.938752,0 c 3.97862,0 7.18162,-3.203 7.18162,-7.18162 0,-3.97862 -3.203,-7.18163 -7.18162,-7.18163 l -23.938752,0 z m 43.089752,0 c -3.97862,0 -7.18163,3.20301 -7.18163,7.18163 0,3.97862 3.20301,7.18162 7.18163,7.18162 l 23.93875,0 c 3.97862,0 7.18163,-3.203 7.18163,-7.18162 0,-3.97862 -3.20301,-7.18163 -7.18163,-7.18163 l -23.93875,0 z"
       id="path1925"
       inkscape:connector-curvature="0" />
    <g
       style="fill:#6600ff;display:inline"
       id="g1927"
       transform="matrix(4.7877503,0,0,4.7877503,34.23156,15.11624)">
      <path
         transform="matrix(1.977341,0,0,2.258045,3.534743,-5.610336)"
         d="M 20,19.5 C 20,20.880712 16.418278,22 12,22 7.581722,22 4,20.880712 4,19.5 4,18.119288 7.581722,17 12,17 c 4.418278,0 8,1.119288 8,2.5 z"
         sodipodi:ry="2.5"
         sodipodi:rx="8"
         sodipodi:cy="19.5"
         sodipodi:cx="12"
         id="path1929"
         style="opacity:0.05;fill:#6600ff;fill-opacity:1;stroke:none;display:inline"
         sodipodi:type="arc" />
      <path
         inkscape:transform-center-y="-5.1801177"
         inkscape:transform-center-x="-0.030763634"
         sodipodi:nodetypes="cccccccc"
         id="path1931"
         d="m 29.342191,5.499999 -3.66313,0 -2.747347,21.028555 -6.410478,0 10.98939,10.971421 10.989391,-10.971421 -6.410478,0 -2.747348,-21.028555 z"
         style="fill:#6600ff;fill-opacity:1;fill-rule:evenodd;stroke:url(#linearGradient6480);stroke-width:1.00000024px;stroke-linecap:butt;stroke-linejoin:miter;stroke-opacity:1;display:inline"
         inkscape:connector-curvature="0" />
      <path
         d="m 26.5625,6.5 -2.625,20.15625 a 0.9960705,0.9960705 0 0 1 -1,0.875 l -3.96875,0 8.53125,8.53125 8.5625,-8.53125 -3.96875,0 a 0.9960705,0.9960705 0 0 1 -1,-0.875 L 28.46875,6.5 26.5625,6.5 z"
         id="path1933"
         style="fill:#9955ff;stroke:url(#linearGradient6482);stroke-width:1.00000024px;stroke-linecap:butt;stroke-linejoin:miter;stroke-opacity:1;display:inline"
         inkscape:original="M 25.6875 5.5 L 22.9375 26.53125 L 16.53125 26.53125 L 27.5 37.5 L 38.5 26.53125 L 32.09375 26.53125 L 29.34375 5.5 L 25.6875 5.5 z "
         inkscape:radius="-0.9959709"
         sodipodi:type="inkscape:offset" />
    </g>
    <g
       transform="scale(0.99594987,1.0040666)"
       style="font-size:66.88558197px;font-style:normal;font-weight:normal;line-height:125%;letter-spacing:0px;word-spacing:0px;fill:#000000;fill-opacity:1;stroke:none;font-family:Sans"
       id="text5702">
      <path
         d="m 24.640371,139.12775 68.956158,0 0,9.05307 -55.494129,68.72101 56.846211,0 0,9.99365 -71.660322,0 0,-9.05307 55.494129,-68.72101 -54.142047,0 0,-9.99365"
         style="font-size:120.39404297px;fill:#008080"
         id="path6475" />
    </g>
    <g
       transform="scale(0.99594987,1.0040666)"
       style="font-size:66.88558197px;font-style:normal;font-weight:normal;line-height:125%;letter-spacing:0px;word-spacing:0px;fill:#000000;fill-opacity:1;stroke:none;font-family:Sans"
       id="text5698">
      <path
         d="m 59.030271,25.517601 -16.107407,43.678112 32.273599,0 -16.166192,-43.678112 m -6.701622,-11.698445 13.462029,0 33.449322,87.767724 -12.345093,0 -7.994916,-22.515093 -39.563082,0 -7.994917,22.515093 -12.521451,0 33.508108,-87.767724"
         style="font-size:120.39404297px;fill:#008080"
         id="path6478" />
    </g>
  </g>
</svg>
