<?xml version="1.0" encoding="UTF-8" standalone="no"?>
<!-- Created with Inkscape (http://www.inkscape.org/) -->

<svg
   xmlns:dc="http://purl.org/dc/elements/1.1/"
   xmlns:cc="http://creativecommons.org/ns#"
   xmlns:rdf="http://www.w3.org/1999/02/22-rdf-syntax-ns#"
   xmlns:svg="http://www.w3.org/2000/svg"
   xmlns="http://www.w3.org/2000/svg"
   xmlns:xlink="http://www.w3.org/1999/xlink"
   xmlns:sodipodi="http://sodipodi.sourceforge.net/DTD/sodipodi-0.dtd"
   xmlns:inkscape="http://www.inkscape.org/namespaces/inkscape"
   width="256px"
   height="256px"
   id="svg2985"
   version="1.1"
   inkscape:version="0.48.4 r9939"
   sodipodi:docname="error.svg">
  <defs
     id="defs2987">
    <linearGradient
       inkscape:collect="always"
       id="linearGradient3882">
      <stop
         style="stop-color:#ffffff;stop-opacity:1;"
         offset="0"
         id="stop3884" />
      <stop
         style="stop-color:#ffffff;stop-opacity:0;"
         offset="1"
         id="stop3886" />
    </linearGradient>
    <radialGradient
       inkscape:collect="always"
       xlink:href="#linearGradient4493"
       id="radialGradient4499"
       cx="16"
       cy="27.875"
       fx="16"
       fy="27.875"
       r="12.125"
       gradientTransform="matrix(1,0,0,0.28866,0,19.82861)"
       gradientUnits="userSpaceOnUse" />
    <linearGradient
       inkscape:collect="always"
       id="linearGradient4493">
      <stop
         style="stop-color:black;stop-opacity:1;"
         offset="0"
         id="stop4495" />
      <stop
         style="stop-color:black;stop-opacity:0;"
         offset="1"
         id="stop4497" />
    </linearGradient>
    <linearGradient
       id="linearGradient4447">
      <stop
         style="stop-color:#c00;stop-opacity:1;"
         offset="0"
         id="stop4449" />
      <stop
         style="stop-color:#ad0000;stop-opacity:1;"
         offset="1"
         id="stop4451" />
    </linearGradient>
    <linearGradient
       inkscape:collect="always"
       xlink:href="#linearGradient3882"
       id="linearGradient3888"
       x1="313.4545"
       y1="107.63637"
       x2="334.54547"
       y2="168.72729"
       gradientUnits="userSpaceOnUse" />
    <filter
       inkscape:collect="always"
       id="filter3900"
       x="-0.10964483"
       width="1.2192897"
       y="-0.10425611"
       height="1.2085122">
      <feGaussianBlur
         inkscape:collect="always"
         stdDeviation="4.695597"
         id="feGaussianBlur3902" />
    </filter>
    <filter
       inkscape:collect="always"
       id="filter3924">
      <feGaussianBlur
         inkscape:collect="always"
         stdDeviation="2.8855354"
         id="feGaussianBlur3926" />
    </filter>
    <filter
       inkscape:collect="always"
       id="filter3940"
       style="color-interpolation-filters:sRGB;"
       inkscape:label="Drop Shadow">
      <feGaussianBlur
         inkscape:collect="always"
         stdDeviation="1.5159849"
         id="feGaussianBlur3942"
         result="fbSourceGraphic" />
      <feColorMatrix
         result="fbSourceGraphicAlpha"
         in="fbSourceGraphic"
         values="0 0 0 -1 0 0 0 0 -1 0 0 0 0 -1 0 0 0 0 1 0"
         id="feColorMatrix3976" />
      <feFlood
         id="feFlood3978"
         flood-opacity="0.5"
         flood-color="rgb(0,0,0)"
         result="flood"
         in="fbSourceGraphic" />
      <feComposite
         id="feComposite3980"
         in2="fbSourceGraphic"
         in="flood"
         operator="in"
         result="composite1" />
      <feGaussianBlur
         id="feGaussianBlur3982"
         in="composite"
         stdDeviation="2"
         result="blur" />
      <feOffset
         id="feOffset3984"
         dx="4"
         dy="4"
         result="offset" />
      <feComposite
         id="feComposite3986"
         in2="offset"
         in="fbSourceGraphic"
         operator="over"
         result="composite2" />
    </filter>
    <linearGradient
       inkscape:collect="always"
       xlink:href="#linearGradient3882"
       id="linearGradient3956"
       gradientUnits="userSpaceOnUse"
       x1="313.4545"
       y1="107.63637"
       x2="334.54547"
       y2="168.72729" />
    <linearGradient
       inkscape:collect="always"
       xlink:href="#linearGradient3882"
       id="linearGradient3959"
       gradientUnits="userSpaceOnUse"
       x1="313.4545"
       y1="107.63637"
       x2="334.54547"
       y2="168.72729"
       gradientTransform="translate(-241.99999,-29.45455)" />
  </defs>
  <sodipodi:namedview
     id="base"
     pagecolor="#ffffff"
     bordercolor="#666666"
     borderopacity="1.0"
     inkscape:pageopacity="0.0"
     inkscape:pageshadow="2"
     inkscape:zoom="0.34375"
     inkscape:cx="172.63486"
     inkscape:cy="149.89209"
     inkscape:current-layer="layer1"
     showgrid="true"
     inkscape:document-units="px"
     inkscape:grid-bbox="true"
     inkscape:window-width="927"
     inkscape:window-height="1028"
     inkscape:window-x="65"
     inkscape:window-y="24"
     inkscape:window-maximized="0" />
  <metadata
     id="metadata2990">
    <rdf:RDF>
      <cc:Work
         rdf:about="">
        <dc:format>image/svg+xml</dc:format>
        <dc:type
           rdf:resource="http://purl.org/dc/dcmitype/StillImage" />
        <dc:title></dc:title>
      </cc:Work>
    </rdf:RDF>
  </metadata>
  <g
     id="layer1"
     inkscape:label="Layer 1"
     inkscape:groupmode="layer">
    <path
       sodipodi:type="arc"
       style="fill:#000000;stroke:none"
       id="path3944"
       sodipodi:cx="373.81818"
       sodipodi:cy="155.63637"
       sodipodi:rx="110.54546"
       sodipodi:ry="110.54546"
       d="m 484.36364,155.63637 a 110.54546,110.54546 0 1 1 -221.09093,0 110.54546,110.54546 0 1 1 221.09093,0 z"
       transform="translate(-245.81817,-27.636368)" />
    <path
       sodipodi:type="arc"
       style="fill:#808080;stroke:none;filter:url(#filter3924)"
       id="path3873"
       sodipodi:cx="116.36364"
       sodipodi:cy="54.545456"
       sodipodi:rx="101.81818"
       sodipodi:ry="101.81818"
       d="m 218.18182,54.545456 a 101.81818,101.81818 0 1 1 -203.636356,0 101.81818,101.81818 0 1 1 203.636356,0 z"
       transform="translate(10.36365,72.36363)" />
    <path
       style="fill:#b3b3b3;stroke:none;filter:url(#filter3940)"
       d="M 79.26596,215.9523 C 67.54937,208.40312 54.94044,196.76329 47.06514,186.22639 40.20071,177.04199 35.04791,164.67846 32.32619,150.86202 30.80568,143.14334 30.66238,126.29599 32.02385,115.31729 34.00725,99.32341 39.62006,83.27943 46.43204,74.13206 55.36743,62.133288 72.22462,46.500906 92.42593,36.664214 c 13.05883,-6.35878 25.69646,-9.178462 42.01344,-8.142943 20.20395,1.282197 33.75118,7.47529 54.94007,23.323658 16.90278,12.642542 28.19689,32.711541 29.64025,58.228351 1.15592,20.43517 -0.95215,33.02948 -8.50048,48.53496 -3.82687,7.861 -8.75603,15.88227 -19.47029,26.69496 -8.48145,8.55938 -14.73727,11.20049 -19.44919,13.43281 -6.13531,2.90667 -16.3106,6.80887 -27.9677,9.86669 l -8.66064,1.03178 0,8.74247 0,10.19701 c -15.27622,-15.52759 -28.23412,-31.48038 -44.84372,-45.5231 14.14131,-15.70777 28.02507,-42.7202 44.23691,-56.28274 l 1.81358,29.96181 c 19.377,-23.67038 51.01963,-57.62965 51.01963,-57.62965 C 169.95726,82.35801 153.51786,63.937535 135.31174,48.622951 l 0.42591,12.256265 c 0.23425,6.740946 -0.20153,13.146644 -0.20153,13.146644 0,0 -3.06788,1.23268 -6.05063,1.65106 -13.43422,1.88433 -23.01626,3.0777 -34.5141,11.77826 -8.23535,6.2318 -24.43284,21.21469 -29.16149,27.4581 -4.8078,6.34793 -13.44044,20.85385 -15.38069,26.94947 -5.61882,17.65246 -3.00341,35.03715 0.46333,49.62765 1.11724,4.70213 -1.12568,-1.52937 16.10389,15.60137 6.56766,6.52999 18.65122,11.86189 18.03966,11.86189 -0.61156,0 -3.20812,-1.35061 -5.77013,-3.00136 z"
       id="path3871"
       inkscape:connector-curvature="0"
       sodipodi:nodetypes="sssssssssssssccccccccsccsssssss" />
    <path
       style="opacity:0.49382719;fill:url(#linearGradient3959);fill-opacity:1;stroke:none;filter:url(#filter3900)"
       d="m 129.28694,30.909087 c -54.02349,0 -97.84375,43.789003 -97.84375,97.812493 0,3.4726 0.20951,6.90209 0.5625,10.28125 L 134.22444,31.034087 c -1.6368,-0.08143 -3.28049,-0.125 -4.9375,-0.125 z"
       id="path3875"
       inkscape:connector-curvature="0" />
  </g>
</svg>
