<?xml version="1.0" encoding="UTF-8" standalone="no"?>
<!-- Created with Inkscape (http://www.inkscape.org/) -->

<svg
   xmlns:dc="http://purl.org/dc/elements/1.1/"
   xmlns:cc="http://creativecommons.org/ns#"
   xmlns:rdf="http://www.w3.org/1999/02/22-rdf-syntax-ns#"
   xmlns:svg="http://www.w3.org/2000/svg"
   xmlns="http://www.w3.org/2000/svg"
   xmlns:sodipodi="http://sodipodi.sourceforge.net/DTD/sodipodi-0.dtd"
   xmlns:inkscape="http://www.inkscape.org/namespaces/inkscape"
   width="256px"
   height="256px"
   id="svg2985"
   version="1.1"
   inkscape:version="0.48.4 r9939"
   sodipodi:docname="transparent.svg">
  <defs
     id="defs2987" />
  <sodipodi:namedview
     id="base"
     pagecolor="#ffffff"
     bordercolor="#666666"
     borderopacity="1.0"
     inkscape:pageopacity="0.0"
     inkscape:pageshadow="2"
     inkscape:zoom="1.9445436"
     inkscape:cx="113.96974"
     inkscape:cy="142.50437"
     inkscape:current-layer="layer1"
     showgrid="true"
     inkscape:document-units="px"
     inkscape:grid-bbox="true"
     inkscape:window-width="927"
     inkscape:window-height="1028"
     inkscape:window-x="65"
     inkscape:window-y="24"
     inkscape:window-maximized="0" />
  <metadata
     id="metadata2990">
    <rdf:RDF>
      <cc:Work
         rdf:about="">
        <dc:format>image/svg+xml</dc:format>
        <dc:type
           rdf:resource="http://purl.org/dc/dcmitype/StillImage" />
        <dc:title></dc:title>
      </cc:Work>
    </rdf:RDF>
  </metadata>
  <g
     id="layer1"
     inkscape:label="Layer 1"
     inkscape:groupmode="layer">
    <g
       transform="translate(0,1.3e-6)"
       id="g3287">
      <rect
         ry="10"
         rx="10"
         style="fill:#008000"
         id="rect3253"
         width="10.613055"
         height="168.29689"
         x="-241.63284"
         y="-123.90164"
         transform="matrix(-0.61715442,-0.78684206,0.84745933,-0.53086033,0,0)" />
      <rect
         ry="10"
         rx="10"
         transform="matrix(0.64240867,-0.76636225,0.76636225,0.64240867,0,0)"
         y="38.713367"
         x="-11.657083"
         height="209.70424"
         width="9.3428764"
         id="rect3249"
         style="fill:#000080" />
      <rect
         ry="10"
         rx="10"
         style="fill:#ff0000"
         id="rect3251"
         width="10.62682"
         height="169.01923"
         x="228.6575"
         y="-99.450508"
         transform="matrix(0.89567303,0.44471319,-0.40028804,0.91638937,0,0)" />
      <path
         style="fill:#000080"
         d="m 29.024975,61.224477 -17.010532,-40.27455 42.121302,4.85085 c -17.537026,10.28921 -20.562069,20.77821 -25.11077,35.4237 z"
         id="path3283"
         inkscape:connector-curvature="0"
         sodipodi:nodetypes="cccc" />
      <path
         style="fill:#ff0000"
         d="M 217.74401,28.168256 255.03898,5.3541487 256.50989,47.72833 C 243.72567,31.917606 232.90331,30.487031 217.74401,28.168256 z"
         id="path3285"
         inkscape:connector-curvature="0"
         sodipodi:nodetypes="cccc" />
      <path
         sodipodi:nodetypes="cccc"
         inkscape:connector-curvature="0"
         id="rect3280"
         d="m 78.773018,251.68529 -43.674724,1.97906 19.164894,-37.82118 c 3.564887,20.01766 12.352572,26.49427 24.50983,35.84212 z"
         style="fill:#008000" />
    </g>
    <g
       id="g3899"
       transform="matrix(0.86727689,0,0,0.86727689,28.789116,13.043305)">
      <path
         sodipodi:type="arc"
         style="fill:#000000;fill-opacity:1;stroke:none"
         id="path3889"
         sodipodi:cx="68.396507"
         sodipodi:cy="59.03862"
         sodipodi:rx="38.055202"
         sodipodi:ry="38.055202"
         d="m 106.45171,59.03862 c 0,21.017308 -17.037895,38.055202 -38.055203,38.055202 -21.017308,0 -38.055202,-17.037894 -38.055202,-38.055202 0,-21.017308 17.037894,-38.055202 38.055202,-38.055202 21.017308,0 38.055203,17.037894 38.055203,38.055202 z"
         transform="translate(78.16744,1.028519)" />
      <path
         transform="translate(-1.028519,1.028519)"
         d="m 106.45171,59.03862 c 0,21.017308 -17.037895,38.055202 -38.055203,38.055202 -21.017308,0 -38.055202,-17.037894 -38.055202,-38.055202 0,-21.017308 17.037894,-38.055202 38.055202,-38.055202 21.017308,0 38.055203,17.037894 38.055203,38.055202 z"
         sodipodi:ry="38.055202"
         sodipodi:rx="38.055202"
         sodipodi:cy="59.03862"
         sodipodi:cx="68.396507"
         id="path3887"
         style="fill:#000000;fill-opacity:1;stroke:none"
         sodipodi:type="arc" />
      <rect
         y="90.922707"
         x="15.427784"
         height="78.167442"
         width="174.84822"
         id="rect3891"
         style="fill:#000000;fill-opacity:1;stroke:none" />
      <rect
         y="110.46457"
         x="184.10489"
         height="33.941124"
         width="56.054283"
         id="rect3893"
         style="fill:#000000;fill-opacity:1;stroke:none" />
      <rect
         style="fill:#000000;fill-opacity:1;stroke:none"
         id="rect3897"
         width="31.884089"
         height="94.623741"
         x="-82.476364"
         y="179.54843"
         transform="matrix(-0.94283247,0.33326707,0.33326707,0.94283247,0,0)" />
      <rect
         transform="matrix(0.94283247,0.33326707,-0.33326707,0.94283247,0,0)"
         y="109.62305"
         x="115.34671"
         height="94.623741"
         width="31.884089"
         id="rect3895"
         style="fill:#000000;fill-opacity:1;stroke:none" />
    </g>
  </g>
</svg>
