<?xml version="1.0" encoding="UTF-8" standalone="no"?>
<!-- Created with Inkscape (http://www.inkscape.org/) -->

<svg
   xmlns:dc="http://purl.org/dc/elements/1.1/"
   xmlns:cc="http://creativecommons.org/ns#"
   xmlns:rdf="http://www.w3.org/1999/02/22-rdf-syntax-ns#"
   xmlns:svg="http://www.w3.org/2000/svg"
   xmlns="http://www.w3.org/2000/svg"
   xmlns:xlink="http://www.w3.org/1999/xlink"
   xmlns:sodipodi="http://sodipodi.sourceforge.net/DTD/sodipodi-0.dtd"
   xmlns:inkscape="http://www.inkscape.org/namespaces/inkscape"
   width="256px"
   height="256px"
   id="svg4360"
   version="1.1"
   inkscape:version="0.92.1 r15371"
   sodipodi:docname="checked.svg">
  <defs
     id="defs4362">
    <inkscape:perspective
       sodipodi:type="inkscape:persp3d"
       inkscape:vp_x="0 : 128 : 1"
       inkscape:vp_y="0 : 1000 : 0"
       inkscape:vp_z="256 : 128 : 1"
       inkscape:persp3d-origin="128 : 85.333333 : 1"
       id="perspective4412" />
    <linearGradient
       inkscape:collect="always"
       xlink:href="#linearGradient5891"
       id="linearGradient2788"
       gradientUnits="userSpaceOnUse"
       gradientTransform="matrix(-1.430635,0,0,1.430157,50.64595,2.354766)"
       x1="15.456784"
       y1="8.734375"
       x2="25.561066"
       y2="13.526372" />
    <linearGradient
       inkscape:collect="always"
       id="linearGradient5891">
      <stop
         style="stop-color:#ffffff;stop-opacity:1;"
         offset="0"
         id="stop5893" />
      <stop
         style="stop-color:#ffffff;stop-opacity:0;"
         offset="1"
         id="stop5895" />
    </linearGradient>
    <filter
       style="color-interpolation-filters:sRGB;"
       inkscape:label="Colorize"
       id="filter4369">
      <feComposite
         in2="SourceGraphic"
         operator="arithmetic"
         k1="0"
         k2="1"
         result="composite1"
         id="feComposite4371" />
      <feColorMatrix
         in="composite1"
         values="1"
         type="saturate"
         result="colormatrix1"
         id="feColorMatrix4373" />
      <feFlood
         flood-opacity="1"
         flood-color="rgb(255,143,244)"
         result="flood1"
         id="feFlood4375" />
      <feBlend
         in="flood1"
         in2="colormatrix1"
         mode="multiply"
         result="blend1"
         id="feBlend4377" />
      <feBlend
         in2="blend1"
         mode="screen"
         result="blend2"
         id="feBlend4379" />
      <feColorMatrix
         in="blend2"
         values="1"
         type="saturate"
         result="colormatrix2"
         id="feColorMatrix4381" />
      <feComposite
         in="colormatrix2"
         in2="SourceGraphic"
         operator="in"
         k2="1"
         result="composite2"
         id="feComposite4383" />
    </filter>
  </defs>
  <sodipodi:namedview
     id="base"
     pagecolor="#ffffff"
     bordercolor="#666666"
     borderopacity="1.0"
     inkscape:pageopacity="0.0"
     inkscape:pageshadow="2"
     inkscape:zoom="1.375"
     inkscape:cx="206.47823"
     inkscape:cy="65.607158"
     inkscape:current-layer="layer1"
     showgrid="true"
     inkscape:document-units="px"
     inkscape:grid-bbox="true"
     inkscape:window-width="1884"
     inkscape:window-height="1051"
     inkscape:window-x="0"
     inkscape:window-y="0"
     inkscape:window-maximized="1" />
  <metadata
     id="metadata4365">
    <rdf:RDF>
      <cc:Work
         rdf:about="">
        <dc:format>image/svg+xml</dc:format>
        <dc:type
           rdf:resource="http://purl.org/dc/dcmitype/StillImage" />
        <dc:title></dc:title>
      </cc:Work>
    </rdf:RDF>
  </metadata>
  <g
     id="layer1"
     inkscape:label="Layer 1"
     inkscape:groupmode="layer">
    <g
       transform="scale(1.0895461,0.91781339)"
       style="font-style:normal;font-weight:normal;font-size:305.58761597px;line-height:125%;font-family:sans-serif;letter-spacing:0px;word-spacing:0px;opacity:0.68000034;fill:#ffffff;fill-opacity:1;stroke:none;stroke-width:1px;stroke-linecap:butt;stroke-linejoin:miter;stroke-opacity:1"
       id="text4418-7">
      <path
         d="m 194.60133,37.429283 q 0,4.561009 -26.45385,28.278257 -24.32538,21.892844 -51.38737,48.65076 l 12.77082,24.32539 22.80505,45.30602 q 11.25049,22.80505 12.16269,28.88639 0,11.85863 -11.25049,12.77083 -7.60168,0 -15.50743,-16.41963 -30.71079,-63.55007 -38.008409,-76.62496 -25.237584,28.88639 -38.00841,51.0833 l -18.548104,31.31893 q -6.385412,10.64236 -11.858623,10.64236 -6.081346,0 -10.034221,-3.34474 -3.952874,-3.34474 -3.952874,-8.20982 0,-7.90575 23.109113,-42.87348 Q 64.15647,135.33895 87.56965,111.92577 72.670354,82.735307 55.642586,53.544848 q -6.68948,-11.554556 -6.68948,-17.331834 0,-3.952875 3.648807,-7.601682 3.648807,-2.736606 8.817951,-3.344741 6.993548,0 17.331835,20.676575 15.203364,30.406728 26.149791,48.954832 L 162.3702,38.645552 q 13.9871,-13.378961 18.85217,-14.291162 6.08135,0 9.73016,3.34474 3.6488,3.040672 3.6488,9.730153 z"
         style="font-style:normal;font-variant:normal;font-weight:normal;font-stretch:normal;font-family:TSCu_Comic;-inkscape-font-specification:TSCu_Comic;fill:#ffffff;fill-opacity:1"
         id="path4464" />
    </g>
    <g
       transform="matrix(1.0895461,0,0,0.91781339,3.6206597,12.069861)"
       style="font-style:normal;font-weight:normal;font-size:305.58761597px;line-height:125%;font-family:sans-serif;letter-spacing:0px;word-spacing:0px;fill:#000000;fill-opacity:1;stroke:none;stroke-width:1px;stroke-linecap:butt;stroke-linejoin:miter;stroke-opacity:1"
       id="text4418">
      <path
         d="m 203.13687,43.738914 q 0,4.561009 -26.45385,28.278257 -24.32539,21.892844 -51.38737,48.650769 l 12.77082,24.32538 22.80505,45.30602 q 11.25049,22.80505 12.16269,28.88639 0,11.85863 -11.25049,12.77083 -7.60168,0 -15.50743,-16.41963 -30.7108,-63.55006 -38.00841,-76.62496 -25.237585,28.88639 -38.008411,51.08331 l -18.548104,31.31893 q -6.385413,10.64235 -11.858624,10.64235 -6.081345,0 -10.03422,-3.34474 -3.952875,-3.34474 -3.952875,-8.20982 0,-7.90575 23.109114,-42.87348 Q 72.692007,141.64858 96.105188,118.2354 81.205891,89.044939 64.178124,59.85448 57.488643,48.299923 57.488643,42.522645 q 0,-3.952875 3.648808,-7.601682 3.648807,-2.736606 8.817951,-3.34474 6.993547,0 17.331835,20.676575 15.203363,30.406728 26.149783,48.954832 l 57.46872,-56.252447 q 13.98709,-13.37896 18.85217,-14.291162 6.08135,0 9.73015,3.34474 3.64881,3.040673 3.64881,9.730153 z"
         style="font-style:normal;font-variant:normal;font-weight:normal;font-stretch:normal;font-family:TSCu_Comic;-inkscape-font-specification:TSCu_Comic;fill:#000000;fill-opacity:1"
         id="path4470"
         inkscape:connector-curvature="0" />
    </g>
    <rect
       style="opacity:1;fill:#ffffff;fill-opacity:0;stroke:#000000;stroke-width:14.97460175;stroke-miterlimit:4;stroke-dasharray:none;stroke-opacity:1"
       id="rect11988"
       width="156.71031"
       height="156.71031"
       x="49.644844"
       y="49.644844"
       rx="36.804852"
       ry="16.148335" />
  </g>
</svg>
