<?xml version="1.0" encoding="UTF-8" standalone="no"?>
<!-- Created with Inkscape (http://www.inkscape.org/) -->

<svg
   xmlns:dc="http://purl.org/dc/elements/1.1/"
   xmlns:cc="http://creativecommons.org/ns#"
   xmlns:rdf="http://www.w3.org/1999/02/22-rdf-syntax-ns#"
   xmlns:svg="http://www.w3.org/2000/svg"
   xmlns="http://www.w3.org/2000/svg"
   xmlns:sodipodi="http://sodipodi.sourceforge.net/DTD/sodipodi-0.dtd"
   xmlns:inkscape="http://www.inkscape.org/namespaces/inkscape"
   width="256px"
   height="256px"
   id="svg2985"
   version="1.1"
   inkscape:version="0.48.4 r9939"
   sodipodi:docname="colours.svg">
  <defs
     id="defs2987">
    <filter
       id="filter5323"
       height="1.3"
       width="1.3"
       y="-0.15"
       x="-0.15"
       inkscape:menu-tooltip="Van Gogh painting effect for bitmaps"
       inkscape:menu="Distort"
       inkscape:label="Pixel smear"
       color-interpolation-filters="sRGB">
      <feTurbulence
         id="feTurbulence5325"
         type="fractalNoise"
         numOctaves="3"
         baseFrequency="0.25 0.4"
         seed="5" />
      <feColorMatrix
         id="feColorMatrix5327"
         result="result5"
         values="1 0 0 0 0 0 1 0 0 0 0 0 1 0 0 0 0 0 1 0 " />
      <feComposite
         id="feComposite5329"
         in2="result5"
         in="SourceGraphic"
         operator="in" />
      <feMorphology
         id="feMorphology5331"
         operator="dilate"
         radius="1.5"
         result="result3" />
      <feTurbulence
         id="feTurbulence5333"
         numOctaves="5"
         baseFrequency="0.03"
         type="fractalNoise"
         seed="7" />
      <feGaussianBlur
         id="feGaussianBlur5335"
         stdDeviation="0.5"
         result="result91" />
      <feDisplacementMap
         id="feDisplacementMap5337"
         in2="result91"
         in="result3"
         xChannelSelector="R"
         yChannelSelector="G"
         scale="27"
         result="result4" />
      <feComposite
         id="feComposite5339"
         in2="result4"
         in="result4"
         k3="0.8"
         k1="1.3"
         result="result2"
         operator="arithmetic" />
      <feBlend
         id="feBlend5341"
         in2="result2"
         mode="screen"
         in="result2" />
    </filter>
    <filter
       id="filter5343"
       height="1.3"
       width="1.3"
       y="-0.15"
       x="-0.15"
       inkscape:menu-tooltip="Van Gogh painting effect for bitmaps"
       inkscape:menu="Distort"
       inkscape:label="Pixel smear"
       color-interpolation-filters="sRGB">
      <feTurbulence
         id="feTurbulence5345"
         type="fractalNoise"
         numOctaves="3"
         baseFrequency="0.25 0.4"
         seed="5" />
      <feColorMatrix
         id="feColorMatrix5347"
         result="result5"
         values="1 0 0 0 0 0 1 0 0 0 0 0 1 0 0 0 0 0 1 0 " />
      <feComposite
         id="feComposite5349"
         in2="result5"
         in="SourceGraphic"
         operator="in" />
      <feMorphology
         id="feMorphology5351"
         operator="dilate"
         radius="1.5"
         result="result3" />
      <feTurbulence
         id="feTurbulence5353"
         numOctaves="5"
         baseFrequency="0.03"
         type="fractalNoise"
         seed="7" />
      <feGaussianBlur
         id="feGaussianBlur5355"
         stdDeviation="0.5"
         result="result91" />
      <feDisplacementMap
         id="feDisplacementMap5357"
         in2="result91"
         in="result3"
         xChannelSelector="R"
         yChannelSelector="G"
         scale="27"
         result="result4" />
      <feComposite
         id="feComposite5359"
         in2="result4"
         in="result4"
         k3="0.8"
         k1="1.3"
         result="result2"
         operator="arithmetic" />
      <feBlend
         id="feBlend5361"
         in2="result2"
         mode="screen"
         in="result2" />
    </filter>
    <filter
       id="filter5363"
       height="1.3"
       width="1.3"
       y="-0.15"
       x="-0.15"
       inkscape:menu-tooltip="Van Gogh painting effect for bitmaps"
       inkscape:menu="Distort"
       inkscape:label="Pixel smear"
       color-interpolation-filters="sRGB">
      <feTurbulence
         id="feTurbulence5365"
         type="fractalNoise"
         numOctaves="3"
         baseFrequency="0.25 0.4"
         seed="5" />
      <feColorMatrix
         id="feColorMatrix5367"
         result="result5"
         values="1 0 0 0 0 0 1 0 0 0 0 0 1 0 0 0 0 0 1 0 " />
      <feComposite
         id="feComposite5369"
         in2="result5"
         in="SourceGraphic"
         operator="in" />
      <feMorphology
         id="feMorphology5371"
         operator="dilate"
         radius="1.5"
         result="result3" />
      <feTurbulence
         id="feTurbulence5373"
         numOctaves="5"
         baseFrequency="0.03"
         type="fractalNoise"
         seed="7" />
      <feGaussianBlur
         id="feGaussianBlur5375"
         stdDeviation="0.5"
         result="result91" />
      <feDisplacementMap
         id="feDisplacementMap5377"
         in2="result91"
         in="result3"
         xChannelSelector="R"
         yChannelSelector="G"
         scale="27"
         result="result4" />
      <feComposite
         id="feComposite5379"
         in2="result4"
         in="result4"
         k3="0.8"
         k1="1.3"
         result="result2"
         operator="arithmetic" />
      <feBlend
         id="feBlend5381"
         in2="result2"
         mode="screen"
         in="result2" />
    </filter>
    <filter
       id="filter5383"
       height="1.3"
       width="1.3"
       y="-0.15"
       x="-0.15"
       inkscape:menu-tooltip="Van Gogh painting effect for bitmaps"
       inkscape:menu="Distort"
       inkscape:label="Pixel smear"
       color-interpolation-filters="sRGB">
      <feTurbulence
         id="feTurbulence5385"
         type="fractalNoise"
         numOctaves="3"
         baseFrequency="0.25 0.4"
         seed="5" />
      <feColorMatrix
         id="feColorMatrix5387"
         result="result5"
         values="1 0 0 0 0 0 1 0 0 0 0 0 1 0 0 0 0 0 1 0 " />
      <feComposite
         id="feComposite5389"
         in2="result5"
         in="SourceGraphic"
         operator="in" />
      <feMorphology
         id="feMorphology5391"
         operator="dilate"
         radius="1.5"
         result="result3" />
      <feTurbulence
         id="feTurbulence5393"
         numOctaves="5"
         baseFrequency="0.03"
         type="fractalNoise"
         seed="7" />
      <feGaussianBlur
         id="feGaussianBlur5395"
         stdDeviation="0.5"
         result="result91" />
      <feDisplacementMap
         id="feDisplacementMap5397"
         in2="result91"
         in="result3"
         xChannelSelector="R"
         yChannelSelector="G"
         scale="27"
         result="result4" />
      <feComposite
         id="feComposite5399"
         in2="result4"
         in="result4"
         k3="0.8"
         k1="1.3"
         result="result2"
         operator="arithmetic" />
      <feBlend
         id="feBlend5401"
         in2="result2"
         mode="screen"
         in="result2" />
    </filter>
    <filter
       id="filter5403"
       height="1.3"
       width="1.3"
       y="-0.15"
       x="-0.15"
       inkscape:menu-tooltip="Van Gogh painting effect for bitmaps"
       inkscape:menu="Distort"
       inkscape:label="Pixel smear"
       color-interpolation-filters="sRGB">
      <feTurbulence
         id="feTurbulence5405"
         type="fractalNoise"
         numOctaves="3"
         baseFrequency="0.25 0.4"
         seed="5" />
      <feColorMatrix
         id="feColorMatrix5407"
         result="result5"
         values="1 0 0 0 0 0 1 0 0 0 0 0 1 0 0 0 0 0 1 0 " />
      <feComposite
         id="feComposite5409"
         in2="result5"
         in="SourceGraphic"
         operator="in" />
      <feMorphology
         id="feMorphology5411"
         operator="dilate"
         radius="1.5"
         result="result3" />
      <feTurbulence
         id="feTurbulence5413"
         numOctaves="5"
         baseFrequency="0.03"
         type="fractalNoise"
         seed="7" />
      <feGaussianBlur
         id="feGaussianBlur5415"
         stdDeviation="0.5"
         result="result91" />
      <feDisplacementMap
         id="feDisplacementMap5417"
         in2="result91"
         in="result3"
         xChannelSelector="R"
         yChannelSelector="G"
         scale="27"
         result="result4" />
      <feComposite
         id="feComposite5419"
         in2="result4"
         in="result4"
         k3="0.8"
         k1="1.3"
         result="result2"
         operator="arithmetic" />
      <feBlend
         id="feBlend5421"
         in2="result2"
         mode="screen"
         in="result2" />
    </filter>
  </defs>
  <sodipodi:namedview
     id="base"
     pagecolor="#ffffff"
     bordercolor="#666666"
     borderopacity="1.0"
     inkscape:pageopacity="0.0"
     inkscape:pageshadow="2"
     inkscape:zoom="1.8101934"
     inkscape:cx="187.80394"
     inkscape:cy="111.90753"
     inkscape:current-layer="layer1"
     showgrid="true"
     inkscape:document-units="px"
     inkscape:grid-bbox="true"
     inkscape:window-width="927"
     inkscape:window-height="1028"
     inkscape:window-x="75"
     inkscape:window-y="24"
     inkscape:window-maximized="0" />
  <metadata
     id="metadata2990">
    <rdf:RDF>
      <cc:Work
         rdf:about="">
        <dc:format>image/svg+xml</dc:format>
        <dc:type
           rdf:resource="http://purl.org/dc/dcmitype/StillImage" />
        <dc:title />
      </cc:Work>
    </rdf:RDF>
  </metadata>
  <g
     id="layer1"
     inkscape:label="Layer 1"
     inkscape:groupmode="layer">
    <path
       style="fill:#965e01;stroke:#000000;stroke-opacity:1;stroke-width:7;stroke-miterlimit:4;stroke-dasharray:none;stroke-linejoin:round;fill-opacity:1"
       d="m 125.51145,203.6667 c -6.18604,-0.59081 -12.63081,-1.8495 -17.33712,-3.38601 -5.33062,-1.74033 -24.081597,-10.22446 -27.27583,-12.34131 -2.579708,-1.70959 -7.33731,-6.8775 -7.33731,-7.9701 0,-0.23327 2.264001,-1.36255 5.031114,-2.50951 5.294921,-2.19471 8.418615,-4.48121 15.981956,-11.6986 6.79828,-6.48732 8.68191,-12.23988 6.63214,-20.25438 -3.779484,-14.77767 -5.688296,-18.24898 -10.860153,-19.75 -3.525579,-1.02322 -28.655219,-0.88657 -49.878652,0.27123 -10.584389,0.57742 -15.461884,0.6535 -16.210457,0.25288 -1.982179,-1.06083 -3.017297,-4.80483 -4.01321,-14.51567 C 18.98278,99.468156 19.218697,97.228987 22.464527,90.688761 27.075229,81.398369 32.627415,76.526921 52.01653,64.760046 73.283103,51.853778 77.59056,50.819231 112.23109,50.297949 c 18.17455,-0.273496 22.1926,-0.185463 27.62136,0.605165 10.3712,1.510431 22.08349,4.021109 27.36912,5.86692 4.65753,1.626471 18.53463,8.510772 24.77548,12.290894 10.3582,6.274018 31.58452,26.131196 37.684,35.253302 1.54448,2.30987 3.61426,6.16305 4.59949,8.56263 0.98523,2.39957 2.39097,5.28976 3.12385,6.42262 1.18821,1.83669 1.33254,2.67427 1.33264,7.73398 6e-5,3.17391 0.50756,8.71702 1.15172,12.57957 2.87481,17.23783 1.02078,23.27533 -10.78858,35.1322 -6.69151,6.71844 -11.83941,10.23942 -26.89761,18.39701 -12.22055,6.62032 -15.46448,7.98821 -20.97558,8.84494 -9.53178,1.48177 -46.20955,2.5874 -55.71553,1.67952 l 0,0 z"
       id="path3774"
       inkscape:connector-curvature="0" />
    <path
       style="fill:#ffff00;stroke:#000000;stroke-opacity:1;"
       d="m 125.28593,62.285133 c -2.79309,0 -5.28941,1.414805 -6.75,3.5625 -0.005,0.0069 0.005,0.02434 0,0.03125 -0.49909,0.478987 -0.93898,1.018118 -1.28125,1.625 -2.8783,0.351851 -5.3627,2.026292 -6.78125,4.406252 -1.48944,0.98655 -2.61438,2.47752 -3.09375,4.25 -1.13276,1.30793 -1.84375,3.00891 -1.84375,4.875 0,1.27094 0.31147,2.45596 0.875,3.5 -0.002,0.0744 0,0.1438 0,0.21875 0,2.83168 1.55621,5.29636 3.875,6.5625 0.5185,0.40501 1.10207,0.74508 1.71875,1 1.08464,0.62369 2.31697,0.99427 3.65625,1 -0.38101,1.01163 -0.625,2.10511 -0.625,3.250004 0,5.097611 4.15239,9.218751 9.25,9.218751 0.41082,0 0.82531,-0.008 1.21875,-0.0625 0.4024,0.055 0.80125,0.0937 1.21875,0.0937 1.89619,0 3.64228,-0.58909 5.09375,-1.59375 0.0189,-0.0131 0.0437,-0.0181 0.0625,-0.0312 1.10022,-0.46536 2.05121,-1.20078 2.78125,-2.125 1.52665,-0.28907 2.85427,-1.10873 3.78125,-2.281252 0.3892,0.0695 0.77834,0.125 1.1875,0.125 3.1483,0 5.84033,-1.956949 6.9375,-4.718753 1.47231,-1.36232 2.40625,-3.30467 2.40625,-5.46875 0,-2.89739 -1.64611,-5.42301 -4.0625,-6.65625 0.004,-0.0956 0,-0.1847 0,-0.28125 0,-1.419 -0.44874,-2.75024 -1.1875,-3.84375 0.001,-0.0101 -0.001,-0.0211 0,-0.0312 0.0335,-0.2546 0.0625,-0.51785 0.0625,-0.78125 0,-2.48959 -1.53586,-4.60616 -3.71875,-5.46875 -0.0615,-0.0637 -0.124,-0.12567 -0.1875,-0.1875 -0.006,-0.0128 -0.0249,-0.0189 -0.0312,-0.0312 -0.005,-0.005 0.005,-0.0264 0,-0.0312 -1.05106,-2.21935 -3.17256,-3.824021 -5.6875,-4.187502 -0.41624,-0.290179 -0.8742,-0.543462 -1.34375,-0.75 -1.17945,-3.026593 -4.08876,-5.1875 -7.53125,-5.1875 z"
       id="path4099"
       inkscape:connector-curvature="0" />
    <path
       style="fill:#0000ff;stroke:#000000;stroke-opacity:1;"
       d="m 191.89283,86.106676 c -1.20959,0 -2.34244,0.317723 -3.34375,0.84375 -3.72626,0.229826 -6.81919,2.74567 -7.9375,6.156249 -1.66616,0.17467 -3.19703,0.79429 -4.46875,1.749986 -0.006,0.005 -0.0248,-0.005 -0.0312,0 -1.47989,0.302834 -2.79424,1.057164 -3.8125,2.093754 -0.46034,-0.11452 -0.94173,-0.15625 -1.4375,-0.15625 -1.41885,0 -2.72883,0.48201 -3.75,1.3125 -0.46273,-0.078 -0.92238,-0.125 -1.40625,-0.125 -4.95686,0 -8.96875,4.011885 -8.96875,8.968745 0,0.2679 0.008,0.51954 0.0312,0.78125 -0.001,0.0529 0,0.10306 0,0.15625 0,0.0622 0.0298,0.12566 0.0312,0.1875 0.025,1.06071 0.25062,2.08704 0.65625,3 -0.51917,1.16716 -0.8125,2.45269 -0.8125,3.8125 0,5.19533 4.21092,9.40625 9.40625,9.40625 1.38102,0 2.70038,-0.30721 3.875,-0.84375 0.007,0.005 0.0245,-0.005 0.0312,0 1.33908,0.90466 2.94984,1.4375 4.6875,1.4375 1.41283,0 2.73794,-0.37823 3.90625,-1 0.77242,0.28657 1.57896,0.48782 2.4375,0.53125 1.41152,2.24789 3.8998,3.71875 6.75,3.71875 0.10589,0 0.20749,0.004 0.3125,0 0.88574,0.50771 1.93713,0.78125 3.03125,0.78125 0.64141,0 1.26602,-0.0957 1.84375,-0.28125 0.0732,0.002 0.14509,0 0.21875,0 1.81218,0 3.48258,-0.53136 4.90625,-1.4375 1.52016,-0.75783 2.71508,-2.05034 3.3125,-3.65625 0.61908,-1.23616 0.96875,-2.61743 0.96875,-4.09375 0,-1.09588 -0.17909,-2.1505 -0.53125,-3.125 0.2088,-0.62477 0.3125,-1.305 0.3125,-2 0,-0.5216 -0.062,-1.02018 -0.1875,-1.5 0.41621,-0.59702 0.75869,-1.23968 1,-1.9375 0.91845,-0.79751 1.6605,-1.7787 2.21875,-2.875 1.14823,-0.7366 2.11119,-1.72393 2.84375,-2.875 0.0236,-0.0371 0.0707,-0.0563 0.0937,-0.0937 1.12949,-1.48314 1.8125,-3.34137 1.8125,-5.343742 0,-0.38002 -0.0159,-0.75771 -0.0625,-1.125 0.29035,-0.889103 0.4375,-1.826433 0.4375,-2.812503 0,-5.020789 -4.07295,-9.093739 -9.09375,-9.093739 -1.66067,0 -3.19199,0.472822 -4.53125,1.25 -1.26962,-1.112856 -2.92903,-1.8125 -4.75,-1.8125 z"
       id="path4413"
       inkscape:connector-curvature="0" />
    <path
       style="fill:#008000;stroke:#000000;stroke-opacity:1;"
       d="m 191.40315,142.02919 c -2.08951,0 -3.97638,0.81849 -5.40625,2.125 -0.80103,0.4234 -1.54235,0.96635 -2.1875,1.59375 -2.4375,0.19447 -4.56396,1.49007 -5.90625,3.375 -0.3563,0.10273 -0.69386,0.2323 -1.03125,0.375 -0.0435,0.0184 -0.0818,0.0435 -0.125,0.0625 -0.0614,0.0241 -0.12681,0.037 -0.1875,0.0625 -0.17079,0.0798 -0.33503,0.16039 -0.5,0.25 -0.22502,0.11395 -0.44412,0.24101 -0.65625,0.375 -0.0428,0.0279 -0.0827,0.0652 -0.125,0.0937 -0.23217,0.15312 -0.44197,0.32414 -0.65625,0.5 -0.0291,0.0237 -0.0649,0.0385 -0.0937,0.0625 -0.0516,0.0436 -0.10582,0.0802 -0.15625,0.125 -0.1681,0.14946 -0.31395,0.30573 -0.46875,0.46875 -0.16424,0.17296 -0.35183,0.34408 -0.5,0.53125 -0.0341,0.0399 -0.0603,0.0845 -0.0937,0.125 -1.32999,1.61157 -2.125,3.68483 -2.125,5.9375 0,0.56122 0.0606,1.09235 0.15625,1.625 -0.71224,0.93608 -1.16938,2.05654 -1.3125,3.28125 -0.38217,0.93662 -0.59375,1.95721 -0.59375,3.03125 0,0.34825 0.0234,0.69297 0.0625,1.03125 -3.7026,0.32238 -6.73828,2.98388 -7.59375,6.5 -0.58286,1.16105 -0.9375,2.45609 -0.9375,3.84375 0,1.6836 0.5088,3.2355 1.34375,4.5625 0.01,0.0154 -0.01,0.0471 0,0.0625 0.27028,1.52614 0.92863,2.91756 1.84375,4.09375 0.69145,2.46522 2.62246,4.3953 5.09375,5.09375 1.29898,2.4658 3.86306,4.15625 6.84375,4.15625 4.08066,0 7.41005,-3.15475 7.71875,-7.15625 0.15913,-0.25508 0.30079,-0.5113 0.4375,-0.78125 0.49508,0.0992 1.00697,0.15625 1.53125,0.15625 2.47993,0 4.6544,-1.16441 6.0625,-2.96875 0.54335,0.10524 1.11339,0.1875 1.6875,0.1875 1.55967,0 2.99859,-0.43228 4.25,-1.15625 1.17683,0.54008 2.49538,0.84375 3.875,0.84375 2.4167,0 4.6026,-0.95171 6.25,-2.46875 0.006,-0.005 0.0257,0.005 0.0312,0 0.28116,0.0276 0.5866,0.0312 0.875,0.0312 4.77901,0 8.625,-3.84599 8.625,-8.625 0,-4.45867 -3.35445,-8.15289 -7.6875,-8.625 -1.56413,-1.87575 -3.93248,-3.0625 -6.5625,-3.0625 -0.17822,0 -0.35575,0.0204 -0.53125,0.0312 -0.1867,-1.22724 -0.66473,-2.36018 -1.375,-3.3125 0.001,-0.0527 0,-0.10328 0,-0.15625 0,-0.82754 -0.11026,-1.62429 -0.34375,-2.375 0.0789,-0.46664 0.125,-0.94679 0.125,-1.4375 0,-1.92839 -0.60358,-3.71434 -1.625,-5.1875 -0.0128,-0.0185 -0.0183,-0.0441 -0.0312,-0.0625 -0.001,-0.0105 10e-4,-0.0207 0,-0.0312 -0.42635,-4.03983 -3.84717,-7.1875 -8,-7.1875 z"
       id="path4656"
       inkscape:connector-curvature="0"
       transform="matrix(0.87418633,0,0,0.89064333,20.765609,11.819452)" />
    <path
       style="fill:#d40000;stroke:#000000;stroke-opacity:1"
       d="m 146.2358,134.26396 c -2.12194,0 -4.05388,0.74181 -5.59375,1.96875 -1.96823,0.81132 -3.43764,2.5782 -3.78125,4.75 -0.19748,0.18103 -0.38058,0.36595 -0.5625,0.5625 -2.53049,0.16134 -4.70815,1.58783 -5.875,3.6875 -1.48958,-1.42526 -3.493,-2.3125 -5.71875,-2.3125 -1.85217,0 -3.56326,0.60213 -4.9375,1.625 -0.0103,-0.001 -0.021,0.001 -0.0312,0 -0.28688,-0.0291 -0.58043,-0.0312 -0.875,-0.0312 -3.27949,0 -6.13445,1.84999 -7.5625,4.5625 -0.57099,0.6562 -1.02243,1.41881 -1.34375,2.25 -1.53775,1.60717 -2.46875,3.78753 -2.46875,6.1875 0,1.10399 0.23043,2.14867 0.59375,3.125 -0.28383,0.87871 -0.4375,1.80808 -0.4375,2.78125 0,0.97994 0.17865,1.9018 0.46875,2.78125 -0.002,0.01 0.002,0.0212 0,0.0312 -2.29056,1.68244 -3.78125,4.37756 -3.78125,7.4375 0,2.82397 1.28382,5.334 3.28125,7.03125 1.36056,3.1472 4.47822,5.34375 8.125,5.34375 1.89737,0 3.65547,-0.6081 5.09375,-1.625 0.54439,0.26769 1.13745,0.43835 1.75,0.5625 1.75229,2.15386 4.41319,3.53125 7.40625,3.53125 1.51639,0 2.9451,-0.37141 4.21875,-1 0.12015,-0.0481 0.22616,-0.10327 0.34375,-0.15625 0.91012,-0.41008 1.74384,-0.95544 2.46875,-1.625 3.78539,-0.88193 6.625,-4.25856 6.625,-8.3125 0,-1.21742 -0.26034,-2.38911 -0.71875,-3.4375 1.32919,-0.34403 2.50181,-1.05061 3.4375,-2 0.20761,-0.11278 0.39704,-0.24588 0.59375,-0.375 3.04142,-0.62338 5.41555,-3.10194 5.8125,-6.21875 1.72194,-1.40475 2.86031,-3.53587 2.96875,-5.90625 1.13266,-1.10236 1.84923,-2.65224 1.90625,-4.34375 0.24203,-0.74779 0.375,-1.54877 0.375,-2.375 0,-2.0487 -0.80091,-3.89039 -2.09375,-5.28125 0.46628,-1.12082 0.75,-2.3335 0.75,-3.625 0,-5.0624 -3.94953,-9.17595 -8.9375,-9.46875 -0.48754,-0.0816 -0.98927,-0.125 -1.5,-0.125 z"
       id="path4936"
       inkscape:connector-curvature="0" />
    <path
       id="path5264"
       d="m 70.580339,72.226759 c -2.059405,0 -3.928914,0.842976 -5.28125,2.1875 -2.676705,1.132151 -4.53125,3.785892 -4.53125,6.875 0,0.682975 0.07805,1.340328 0.25,1.96875 -1.902464,1.338195 -3.15625,3.524318 -3.15625,6.03125 0,3.000127 1.789695,5.566382 4.34375,6.75 0.0041,0.0019 -0.0041,0.02938 0,0.03125 0.443939,1.13824 1.182443,2.14825 2.09375,2.9375 0.03628,0.09143 0.05393,0.19157 0.09375,0.28125 0.43795,3.701361 3.587109,6.562501 7.40625,6.562501 0.911324,0 1.786502,-0.16955 2.59375,-0.46875 0.320739,0.0428 0.636183,0.0625 0.96875,0.0625 0.984606,0 1.920729,-0.21585 2.781249,-0.5625 0.74615,0.255 1.54073,0.40625 2.375,0.40625 1.38551,0 2.66964,-0.40427 3.78125,-1.0625 0.0947,0.004 0.18565,0.0312 0.28125,0.0312 1.727562,0 3.298242,-0.60877 4.562502,-1.59375 3.89539,-0.24716 7,-3.479751 7,-7.437501 0,-0.243023 -0.0364,-0.482925 -0.0625,-0.71875 0.58669,-1.065464 0.9375,-2.291479 0.9375,-3.59375 0,-1.065565 -0.24725,-2.062767 -0.65625,-2.96875 1.23628,-1.331011 1.96875,-3.10264 1.96875,-5.0625 0,-4.118811 -3.31869,-7.46875 -7.4375,-7.46875 -0.51485,0 -1.01452,0.05691 -1.5,0.15625 -0.01,-0.0017 -0.0212,0.0016 -0.0312,0 -0.38428,-0.062 -0.78687,-0.09375 -1.1875,-0.09375 -2.549502,0 -4.811282,1.267045 -6.156252,3.21875 -2.40269,0.948777 -4.1911,3.132314 -4.625,5.75 -0.43001,0.201598 -0.839208,0.442866 -1.218749,0.71875 -0.142672,-0.05073 -0.290925,-0.0824 -0.4375,-0.125 1.405519,-1.356319 2.281249,-3.267515 2.281249,-5.375 0,-4.118811 -3.318688,-7.4375 -7.437499,-7.4375 z"
       style="fill:#ffffff;stroke:#000000;stroke-opacity:1;"
       inkscape:connector-curvature="0" />
  </g>
</svg>
