<?xml version="1.0" encoding="UTF-8" standalone="no"?>
<!-- Created with Inkscape (http://www.inkscape.org/) -->

<svg
   xmlns:dc="http://purl.org/dc/elements/1.1/"
   xmlns:cc="http://creativecommons.org/ns#"
   xmlns:rdf="http://www.w3.org/1999/02/22-rdf-syntax-ns#"
   xmlns:svg="http://www.w3.org/2000/svg"
   xmlns="http://www.w3.org/2000/svg"
   xmlns:xlink="http://www.w3.org/1999/xlink"
   xmlns:sodipodi="http://sodipodi.sourceforge.net/DTD/sodipodi-0.dtd"
   xmlns:inkscape="http://www.inkscape.org/namespaces/inkscape"
   width="256px"
   height="256px"
   id="svg3800"
   version="1.1"
   inkscape:version="0.48.4 r9939"
   sodipodi:docname="document-open.svg">
  <defs
     id="defs3802">
    <linearGradient
       id="linearGradient3855">
      <stop
         style="stop-color:white;stop-opacity:1;"
         offset="0"
         id="stop3861" />
      <stop
         style="stop-color:#888a85;stop-opacity:1"
         offset="1"
         id="stop3863" />
    </linearGradient>
    <linearGradient
       inkscape:collect="always"
       xlink:href="#linearGradient235"
       id="linearGradient253"
       gradientTransform="matrix(5.5545864,0,0,4.8669338,1.9249651,3.304824)"
       x1="24.983023"
       y1="43.710369"
       x2="24.983023"
       y2="19.705572"
       gradientUnits="userSpaceOnUse" />
    <linearGradient
       id="linearGradient235">
      <stop
         style="stop-color:#676756;stop-opacity:1;"
         offset="0"
         id="stop236" />
      <stop
         style="stop-color:#90937c;stop-opacity:1;"
         offset="1"
         id="stop237" />
    </linearGradient>
    <linearGradient
       inkscape:collect="always"
       xlink:href="#linearGradient311"
       id="linearGradient320"
       gradientUnits="userSpaceOnUse"
       gradientTransform="matrix(3.9019349,0,0,6.9283108,1.9249694,3.3048241)"
       x1="32.827568"
       y1="7.9206076"
       x2="60.071049"
       y2="7.8678756" />
    <linearGradient
       id="linearGradient311">
      <stop
         style="stop-color:#cfcfc4;stop-opacity:1.0000000;"
         offset="0.0000000"
         id="stop312" />
      <stop
         style="stop-color:#cfcfc4;stop-opacity:1.0000000;"
         offset="0.32673267"
         id="stop335" />
      <stop
         style="stop-color:#cfcfc4;stop-opacity:0;"
         offset="1"
         id="stop313" />
    </linearGradient>
    <linearGradient
       inkscape:collect="always"
       xlink:href="#linearGradient2944"
       id="linearGradient2941"
       x1="12.67269"
       y1="7.1869569"
       x2="12.67269"
       y2="27.90205"
       gradientUnits="userSpaceOnUse"
       gradientTransform="matrix(5.1994046,0,0,5.1994046,1.9249694,29.301848)" />
    <linearGradient
       id="linearGradient2944">
      <stop
         id="stop2946"
         offset="0"
         style="stop-color:black;stop-opacity:0;" />
      <stop
         style="stop-color:black;stop-opacity:1;"
         offset="0.18072289"
         id="stop1947" />
      <stop
         id="stop2948"
         offset="1"
         style="stop-color:black;stop-opacity:0" />
    </linearGradient>
    <linearGradient
       inkscape:collect="always"
       xlink:href="#linearGradient2502"
       id="linearGradient2937"
       gradientUnits="userSpaceOnUse"
       x1="25.874996"
       y1="-1.066829"
       x2="26.249996"
       y2="43.417534" />
    <linearGradient
       id="linearGradient2502">
      <stop
         id="stop2504"
         offset="0"
         style="stop-color:#babdb6;stop-opacity:1" />
      <stop
         style="stop-color:#eeeeec;stop-opacity:1;"
         offset="0.26671854"
         id="stop13256" />
      <stop
         id="stop2460"
         offset="0.37147304"
         style="stop-color:white;stop-opacity:1;" />
      <stop
         id="stop2506"
         offset="1"
         style="stop-color:#888a85;stop-opacity:1" />
    </linearGradient>
    <linearGradient
       inkscape:collect="always"
       xlink:href="#linearGradient2864"
       id="linearGradient2939"
       gradientUnits="userSpaceOnUse"
       x1="12.3125"
       y1="-13"
       x2="13.875"
       y2="23.687767" />
    <linearGradient
       inkscape:collect="always"
       id="linearGradient2864">
      <stop
         style="stop-color:white;stop-opacity:1;"
         offset="0"
         id="stop2866" />
      <stop
         style="stop-color:white;stop-opacity:0;"
         offset="1"
         id="stop2868" />
    </linearGradient>
    <linearGradient
       gradientTransform="matrix(5.1994046,0,0,5.1994046,1.9249651,3.304824)"
       inkscape:collect="always"
       xlink:href="#linearGradient4734"
       id="linearGradient4740"
       x1="24.588383"
       y1="1.8991361"
       x2="24.588383"
       y2="40.858932"
       gradientUnits="userSpaceOnUse" />
    <linearGradient
       id="linearGradient4734">
      <stop
         style="stop-color:#cccdbc;stop-opacity:1;"
         offset="0"
         id="stop4736" />
      <stop
         style="stop-color:#b9baa4;stop-opacity:1;"
         offset="1"
         id="stop4738" />
    </linearGradient>
    <linearGradient
       inkscape:collect="always"
       xlink:href="#linearGradient356"
       id="linearGradient2892"
       gradientUnits="userSpaceOnUse"
       gradientTransform="matrix(4.1951864,0,0,3.4872926,1.3797917,100.52677)"
       x1="24.710207"
       y1="16.329607"
       x2="29.842236"
       y2="27.759533" />
    <linearGradient
       id="linearGradient356">
      <stop
         style="stop-color:#fffff3;stop-opacity:0.54455447;"
         offset="0.0000000"
         id="stop357" />
      <stop
         style="stop-color:#fffff3;stop-opacity:0.0000000;"
         offset="1.0000000"
         id="stop358" />
    </linearGradient>
    <linearGradient
       y2="8.1000004"
       x2="19.387241"
       y1="6.1438289"
       x1="19.489662"
       gradientUnits="userSpaceOnUse"
       id="linearGradient30712"
       xlink:href="#linearGradient10997"
       inkscape:collect="always" />
    <linearGradient
       id="linearGradient10997">
      <stop
         id="stop10999"
         offset="0"
         style="stop-color:#000000;stop-opacity:1;" />
      <stop
         id="stop11001"
         offset="1"
         style="stop-color:#000000;stop-opacity:0;" />
    </linearGradient>
    <linearGradient
       y2="8.1000004"
       x2="19.387241"
       y1="6.1438289"
       x1="19.489662"
       gradientUnits="userSpaceOnUse"
       id="linearGradient35276"
       xlink:href="#linearGradient10997"
       inkscape:collect="always" />
    <linearGradient
       id="linearGradient4036">
      <stop
         id="stop4038"
         offset="0"
         style="stop-color:#000000;stop-opacity:1;" />
      <stop
         id="stop4040"
         offset="1"
         style="stop-color:#000000;stop-opacity:0;" />
    </linearGradient>
    <linearGradient
       inkscape:collect="always"
       xlink:href="#linearGradient2502"
       id="linearGradient3845"
       gradientUnits="userSpaceOnUse"
       x1="25.874996"
       y1="-1.066829"
       x2="26.249996"
       y2="43.417534" />
    <linearGradient
       inkscape:collect="always"
       xlink:href="#linearGradient2864"
       id="linearGradient3847"
       gradientUnits="userSpaceOnUse"
       x1="12.3125"
       y1="-13"
       x2="13.875"
       y2="23.687767" />
    <linearGradient
       inkscape:collect="always"
       xlink:href="#linearGradient2864"
       id="linearGradient3850"
       gradientUnits="userSpaceOnUse"
       x1="12.3125"
       y1="-13"
       x2="13.875"
       y2="23.687767"
       gradientTransform="matrix(5.1994046,0,0,5.1994046,1.9249694,44.900061)" />
  </defs>
  <sodipodi:namedview
     id="base"
     pagecolor="#ffffff"
     bordercolor="#666666"
     borderopacity="1.0"
     inkscape:pageopacity="0.0"
     inkscape:pageshadow="2"
     inkscape:zoom="1.375"
     inkscape:cx="61.675711"
     inkscape:cy="165.35127"
     inkscape:current-layer="layer1"
     showgrid="true"
     inkscape:document-units="px"
     inkscape:grid-bbox="true"
     inkscape:window-width="927"
     inkscape:window-height="1028"
     inkscape:window-x="65"
     inkscape:window-y="24"
     inkscape:window-maximized="0" />
  <metadata
     id="metadata3805">
    <rdf:RDF>
      <cc:Work
         rdf:about="">
        <dc:format>image/svg+xml</dc:format>
        <dc:type
           rdf:resource="http://purl.org/dc/dcmitype/StillImage" />
        <dc:title />
      </cc:Work>
    </rdf:RDF>
  </metadata>
  <g
     id="layer1"
     inkscape:label="Layer 1"
     inkscape:groupmode="layer">
    <g
       style="display:inline"
       transform="matrix(1.123503,0,0,1.1770725,-5.3190127,-11.71894)"
       id="g1197"
       inkscape:r_cx="true"
       inkscape:r_cy="true">
      <path
         inkscape:connector-curvature="0"
         d="m 32.706693,164.36026 c -10.3875,0 -18.75,8.3625 -18.75,18.75 0,10.3875 8.3625,18.75 18.75,18.75 l 172.499997,0 c 10.3875,0 18.75,-8.3625 18.75,-18.75 0,-10.3875 -8.3625,-18.75 -18.75,-18.75 l -172.499997,0 z"
         style="opacity:0.04787233;fill-rule:evenodd;stroke-width:3pt"
         id="path1196"
         inkscape:r_cx="true"
         inkscape:r_cy="true" />
      <path
         inkscape:connector-curvature="0"
         d="m 32.706693,165.61026 c -9.695,0 -17.5,7.805 -17.5,17.5 0,9.695 7.805,17.5 17.5,17.5 l 172.499997,0 c 9.695,0 17.5,-7.805 17.5,-17.5 0,-9.695 -7.805,-17.5 -17.5,-17.5 l -172.499997,0 z"
         style="opacity:0.04787233;fill-rule:evenodd;stroke-width:3pt"
         id="path1195"
         inkscape:r_cx="true"
         inkscape:r_cy="true" />
      <path
         inkscape:connector-curvature="0"
         d="m 32.706694,166.86026 c -9.0025,0 -16.25,7.2475 -16.25,16.25 0,9.0025 7.2475,16.25 16.25,16.25 l 172.499996,0 c 9.0025,0 16.25,-7.2475 16.25,-16.25 0,-9.0025 -7.2475,-16.25 -16.25,-16.25 l -172.499996,0 z"
         style="opacity:0.04787233;fill-rule:evenodd;stroke-width:3pt"
         id="path1194"
         inkscape:r_cx="true"
         inkscape:r_cy="true" />
      <path
         inkscape:connector-curvature="0"
         d="m 32.706694,168.11026 c -8.31,0 -15,6.69 -15,15 0,8.31 6.69,15 15,15 l 172.499996,0 c 8.31,0 15,-6.69 15,-15 0,-8.31 -6.69,-15 -15,-15 l -172.499996,0 z"
         style="opacity:0.04787233;fill-rule:evenodd;stroke-width:3pt"
         id="path1193"
         inkscape:r_cx="true"
         inkscape:r_cy="true" />
      <path
         inkscape:connector-curvature="0"
         d="m 32.707764,169.36026 c -7.6175,0 -13.75,6.1325 -13.75,13.75 0,7.6175 6.1325,13.75 13.75,13.75 l 172.498416,0 c 7.6175,0 13.75,-6.1325 13.75,-13.75 0,-7.6175 -6.1325,-13.75 -13.75,-13.75 l -172.498416,0 z"
         style="opacity:0.04787233;fill-rule:evenodd;stroke-width:3pt"
         id="path1192"
         inkscape:r_cx="true"
         inkscape:r_cy="true" />
      <path
         inkscape:connector-curvature="0"
         d="m 32.706694,170.61026 c -6.925,0 -12.5,5.575 -12.5,12.5 0,6.925 5.575,12.5 12.5,12.5 l 172.499996,0 c 6.925,0 12.5,-5.575 12.5,-12.5 0,-6.925 -5.575,-12.5 -12.5,-12.5 l -172.499996,0 z"
         style="opacity:0.04787233;fill-rule:evenodd;stroke-width:3pt"
         id="path1191"
         inkscape:r_cx="true"
         inkscape:r_cy="true" />
      <path
         inkscape:connector-curvature="0"
         d="m 32.706694,171.86026 c -6.2325,0 -11.25,5.0175 -11.25,11.25 0,6.2325 5.0175,11.25 11.25,11.25 l 172.499996,0 c 6.2325,0 11.25,-5.0175 11.25,-11.25 0,-6.2325 -5.0175,-11.25 -11.25,-11.25 l -172.499996,0 z"
         style="opacity:0.04787233;fill-rule:evenodd;stroke-width:3pt"
         id="path1190"
         inkscape:r_cx="true"
         inkscape:r_cy="true" />
      <path
         inkscape:connector-curvature="0"
         d="m 32.706694,173.11026 c -5.54,0 -10,4.46 -10,10 0,5.54 4.46,10 10,10 l 172.499996,0 c 5.54,0 10,-4.46 10,-10 0,-5.54 -4.46,-10 -10,-10 l -172.499996,0 z"
         style="opacity:0.04787233;fill-rule:evenodd;stroke-width:3pt"
         id="path1189"
         inkscape:r_cx="true"
         inkscape:r_cy="true" />
    </g>
    <path
       inkscape:connector-curvature="0"
       d="m 30.098812,31.673349 c -2.417618,0 -4.238091,1.22304 -4.238091,3.778526 l 0,171.689345 c 0,3.78072 2.532634,6.29938 5.974379,6.29938 l 196.20974,0 c 3.46176,0 4.83706,-2.35411 4.83706,-5.64946 l 0,-150.27778 c 0,-2.823095 -2.08128,-4.349603 -4.67458,-4.349603 l -99.35714,0 c -1.75225,0 -3.62233,-1.031697 -4.65076,-2.450412 L 110.66937,34.075203 c -1.13274,-1.562624 -3.33839,-2.401776 -5.26845,-2.401776 l -75.302108,-7.8e-5 z"
       style="color:#000000;fill:url(#linearGradient253);fill-opacity:1;fill-rule:evenodd;stroke:#555753;stroke-width:5.19940472;stroke-linecap:butt;stroke-linejoin:miter;stroke-miterlimit:4;stroke-opacity:1;stroke-dasharray:none;stroke-dashoffset:0;marker:none;visibility:visible;display:inline;overflow:visible"
       id="path895"
       sodipodi:nodetypes="ccccccccccccc" />
    <g
       style="display:inline"
       id="g891"
       transform="matrix(0.97074445,0,0,0.97074445,-107.82042,302.91006)" />
    <path
       inkscape:connector-curvature="0"
       style="color:#000000;fill:url(#linearGradient320);fill-opacity:1;fill-rule:evenodd;stroke:none;stroke-width:0.25pt;marker:none;visibility:visible;display:inline;overflow:visible"
       d="m 28.246938,44.412618 0,146.883182 5.036928,-22.7474 1.137364,-117.636526 c 0,-3.901753 2.659339,-5.84933 6.431458,-5.84933 l 60.348402,0 c 8.1194,0 15.67543,16.573102 27.64872,16.573102 31.04887,0 100.54817,0.455415 100.5491,0 l 0,-5.361886 -101.55087,-0.649926 c -9.65077,-0.06178 -16.27632,-16.410621 -23.72228,-16.410621 l -69.528576,0 c -4.239235,0 -6.350246,1.841452 -6.350246,5.199405 z"
       id="path315"
       sodipodi:nodetypes="ccccczscczzcc" />
    <path
       inkscape:connector-curvature="0"
       style="opacity:0.2;color:#000000;fill:url(#linearGradient2941);fill-opacity:1;fill-rule:nonzero;stroke:none;stroke-width:1;marker:none;visibility:visible;display:inline;overflow:visible"
       d="m 59.118406,60.498277 166.380954,0 0,129.985113 -166.380954,0 0,-129.985113 z"
       id="rect2934"
       sodipodi:nodetypes="ccccc" />
    <rect
       style="color:#000000;fill:#ffffff;fill-opacity:1;fill-rule:nonzero;stroke:#555753;stroke-width:5.19940376000000004;stroke-linecap:round;stroke-linejoin:round;stroke-miterlimit:4;stroke-opacity:1;stroke-dasharray:none;stroke-dashoffset:1.20000057000000004;marker:none;visibility:visible;display:inline;overflow:visible"
       id="rect1958"
       width="150.78271"
       height="140.76793"
       x="66.917519"
       y="63.097977"
       rx="7.8126349"
       ry="7.8126349" />
    <rect
       style="color:#000000;fill:none;stroke:url(#linearGradient3850);stroke-width:5.19940233;stroke-linecap:round;stroke-linejoin:round;stroke-miterlimit:4;stroke-opacity:1;stroke-dasharray:none;stroke-dashoffset:1.20000057;marker:none;visibility:visible;display:inline;overflow:visible"
       id="rect2860"
       width="140.38383"
       height="129.71916"
       x="72.116905"
       y="68.297379"
       rx="2.3452179"
       ry="2.3452179" />
    <path
       inkscape:connector-curvature="0"
       sodipodi:nodetypes="cc"
       id="path2878"
       d="m 87.715127,89.095001 109.025023,0"
       style="opacity:0.2;fill:none;stroke:#000000;stroke-width:5.19940472px;stroke-linecap:round;stroke-linejoin:miter;stroke-opacity:1;display:inline" />
    <path
       inkscape:connector-curvature="0"
       sodipodi:nodetypes="cc"
       id="path2880"
       d="m 87.715127,104.69321 109.025023,0"
       style="opacity:0.2;fill:none;stroke:#000000;stroke-width:5.19940472px;stroke-linecap:round;stroke-linejoin:miter;stroke-opacity:1;display:inline" />
    <path
       inkscape:connector-curvature="0"
       sodipodi:nodetypes="cc"
       id="path2882"
       d="m 87.715127,120.29143 109.025023,0"
       style="opacity:0.2;fill:none;stroke:#000000;stroke-width:5.19940472px;stroke-linecap:round;stroke-linejoin:miter;stroke-opacity:1;display:inline" />
    <path
       inkscape:connector-curvature="0"
       style="opacity:0.05;color:#000000;fill:#000000;fill-opacity:1;fill-rule:evenodd;stroke:none;stroke-width:0.99999988;marker:none;visibility:visible;display:inline;overflow:visible"
       d="m 100.95474,138.32687 c -2.484535,0 -4.54828,0.89679 -5.660649,1.7873 -0.386835,0.30972 -1.756043,1.42077 -3.302039,2.59969 -1.545935,1.17893 -3.348622,2.50412 -3.459265,2.59971 -2.146212,1.85431 -5.548384,2.76218 -9.591655,2.76218 l -14.623321,0 0,39.64546 155.982149,0 0,-49.39434 -119.34522,0 z"
       id="path2954" />
    <path
       inkscape:connector-curvature="0"
       style="color:#000000;fill:url(#linearGradient4740);fill-opacity:1;fill-rule:evenodd;stroke:#555753;stroke-width:5.19940424;stroke-linecap:butt;stroke-linejoin:round;stroke-miterlimit:4;stroke-opacity:1;stroke-dasharray:none;stroke-dashoffset:0;marker:none;visibility:visible;display:inline;overflow:visible"
       d="m 12.446628,156.68434 66.939631,0 c 3.841421,0 7.084704,-1.0502 8.737807,-2.43238 0.708204,-0.59212 6.566898,-4.86076 7.031411,-5.22064 1.547397,-1.19887 4.002929,-2.09293 6.950103,-2.09293 l 139.89664,0 c 5.21402,0 7.90872,5.60517 6.8159,9.7254 l -14.34739,54.09341 c -0.90433,3.40976 -3.67229,4.06697 -7.83015,4.06697 l -196.412775,0 c -4.157908,0 -6.697297,-1.90199 -7.505237,-3.98078 L 5.7130134,167.07779 C 4.0639731,162.83483 3.7503091,156.68434 12.446628,156.68434 z"
       id="rect337"
       sodipodi:nodetypes="czzszssssssss"
       inkscape:r_cx="true"
       inkscape:r_cy="true" />
    <path
       inkscape:connector-curvature="0"
       style="color:#000000;fill:url(#linearGradient2892);fill-opacity:1;fill-rule:evenodd;stroke:none;stroke-width:0.25pt;marker:none;visibility:visible;display:inline;overflow:visible"
       d="m 101.64955,149.34772 c -6.892141,0 -8.954845,9.80999 -22.055682,10.01029 -6.497224,0.0994 -63.991776,-0.22975 -66.591479,-0.22975 -7.3401016,0 -5.6592289,3.36324 -4.9628388,6.53256 0.6893533,3.13728 16.4568018,42.67375 16.4568018,42.67375 1.298233,2.86768 -0.09359,3.5512 4.347582,3.5512 0,0 -14.685876,-42.85788 -14.685876,-44.61647 0,-1.19908 -0.970515,-3.02946 1.371968,-3.02946 2.599703,0 53.198699,0 59.697955,0 19.121429,0 20.254123,-10.01029 31.170549,-10.01029 6.32596,0 129.72945,0.17584 129.72945,0.17584 l 9.65089,-5.11158 c 0,0 -137.45677,0.0539 -144.12932,0.0539 z"
       id="path349"
       sodipodi:nodetypes="csssccssssccs"
       inkscape:r_cx="true"
       inkscape:r_cy="true" />
    <rect
       style="color:#000000;fill:#fffffd;fill-opacity:1;fill-rule:evenodd;stroke:none;stroke-width:0.25pt;marker:none;visibility:visible;display:inline;overflow:visible"
       id="rect459"
       width="6.4992561"
       height="6.4992561"
       x="30.672617"
       y="41.571587"
       rx="7.5052028"
       ry="6.4992561" />
    <g
       style="display:inline"
       inkscape:r_cy="true"
       inkscape:r_cx="true"
       id="g4038"
       inkscape:label="pattern"
       transform="matrix(5.1994046,0,0,5.1994046,-196.32572,608.54256)" />
    <g
       style="display:inline"
       inkscape:r_cy="true"
       inkscape:r_cx="true"
       id="g4912"
       inkscape:label="pattern"
       transform="matrix(5.1994046,0,0,5.1994046,-196.32572,889.31041)" />
    <g
       style="display:inline"
       inkscape:r_cy="true"
       inkscape:r_cx="true"
       id="g10822"
       inkscape:label="pattern"
       transform="matrix(5.1994046,0,0,5.1994046,-196.32572,1170.0783)" />
    <g
       style="display:inline"
       transform="matrix(5.1994046,0,0,5.1994046,-189.89182,1424.3786)"
       id="g30615"
       inkscape:r_cx="true"
       inkscape:r_cy="true">
      <g
         style="fill:#ffffff;fill-opacity:0.75706213;fill-rule:nonzero;stroke:none"
         id="g30617"
         transform="matrix(1.040764,0,0.05449252,1.040764,-8.670199,2.670594)"
         inkscape:export-filename="/home/jimmac/ximian_art/icons/nautilus/suse93/gnome-fs-directory.png"
         inkscape:export-xdpi="74.800003"
         inkscape:export-ydpi="74.800003"
         inkscape:r_cx="true"
         inkscape:r_cy="true" />
      <g
         inkscape:export-ydpi="74.800003"
         inkscape:export-xdpi="74.800003"
         inkscape:export-filename="/home/jimmac/ximian_art/icons/nautilus/suse93/gnome-fs-directory.png"
         style="opacity:0.41477272;fill:url(#linearGradient30712);fill-opacity:1;fill-rule:nonzero;stroke:#000000;stroke-miterlimit:4"
         transform="matrix(1.040764,0,0.05449252,1.365642,-8.358528,0.921788)"
         id="g30619"
         inkscape:r_cx="true"
         inkscape:r_cy="true" />
    </g>
    <g
       style="display:inline"
       transform="matrix(5.1994046,0,0,5.1994046,-189.89182,1705.1464)"
       id="g35216"
       inkscape:r_cx="true"
       inkscape:r_cy="true">
      <g
         style="fill:#ffffff;fill-opacity:0.75706213;fill-rule:nonzero;stroke:none"
         id="g35218"
         transform="matrix(1.040764,0,0.05449252,1.040764,-8.670199,2.670594)"
         inkscape:export-filename="/home/jimmac/ximian_art/icons/nautilus/suse93/gnome-fs-directory.png"
         inkscape:export-xdpi="74.800003"
         inkscape:export-ydpi="74.800003"
         inkscape:r_cx="true"
         inkscape:r_cy="true" />
      <g
         inkscape:export-ydpi="74.800003"
         inkscape:export-xdpi="74.800003"
         inkscape:export-filename="/home/jimmac/ximian_art/icons/nautilus/suse93/gnome-fs-directory.png"
         style="opacity:0.41477272;fill:url(#linearGradient35276);fill-opacity:1;fill-rule:nonzero;stroke:#000000;stroke-miterlimit:4"
         transform="matrix(1.040764,0,0.05449252,1.365642,-8.358528,0.921788)"
         id="g35220"
         inkscape:r_cx="true"
         inkscape:r_cy="true" />
    </g>
    <rect
       style="color:#000000;fill:#ffffff;fill-opacity:1;fill-rule:nonzero;stroke:none;stroke-width:1;marker:none;visibility:visible;display:inline;overflow:visible"
       id="rect1949"
       width="145.58333"
       height="5.1994047"
       x="69.51725"
       y="65.697693"
       rx="2.5997024"
       ry="2.5997024" />
  </g>
</svg>
