<?xml version="1.0" encoding="UTF-8" standalone="no"?>
<!-- Created with Inkscape (http://www.inkscape.org/) -->

<svg
   xmlns:dc="http://purl.org/dc/elements/1.1/"
   xmlns:cc="http://creativecommons.org/ns#"
   xmlns:rdf="http://www.w3.org/1999/02/22-rdf-syntax-ns#"
   xmlns:svg="http://www.w3.org/2000/svg"
   xmlns="http://www.w3.org/2000/svg"
   xmlns:xlink="http://www.w3.org/1999/xlink"
   xmlns:sodipodi="http://sodipodi.sourceforge.net/DTD/sodipodi-0.dtd"
   xmlns:inkscape="http://www.inkscape.org/namespaces/inkscape"
   width="256px"
   height="256px"
   id="svg2996"
   version="1.1"
   inkscape:version="0.48.4 r9939"
   sodipodi:docname="grid.svg">
  <defs
     id="defs2998">
    <linearGradient
       id="linearGradient4105">
      <stop
         style="stop-color:#ececec;stop-opacity:1;"
         offset="0"
         id="stop4107" />
      <stop
         style="stop-color:#ececec;stop-opacity:0;"
         offset="1"
         id="stop4109" />
    </linearGradient>
    <linearGradient
       id="linearGradient3702">
      <stop
         id="stop3704"
         offset="0"
         style="stop-color:black;stop-opacity:0;" />
      <stop
         style="stop-color:black;stop-opacity:1;"
         offset="0.5"
         id="stop3710" />
      <stop
         id="stop3706"
         offset="1"
         style="stop-color:black;stop-opacity:0;" />
    </linearGradient>
    <linearGradient
       id="linearGradient6732">
      <stop
         id="stop6734"
         offset="0"
         style="stop-color:#ffffff;stop-opacity:1;" />
      <stop
         id="stop6736"
         offset="1"
         style="stop-color:#dddddd;stop-opacity:1;" />
    </linearGradient>
    <linearGradient
       id="linearGradient3702-5">
      <stop
         id="stop3704-1"
         offset="0"
         style="stop-color:black;stop-opacity:0;" />
      <stop
         style="stop-color:black;stop-opacity:1;"
         offset="0.5"
         id="stop3710-1" />
      <stop
         id="stop3706-9"
         offset="1"
         style="stop-color:black;stop-opacity:0;" />
    </linearGradient>
    <linearGradient
       id="linearGradient6732-7">
      <stop
         id="stop6734-4"
         offset="0"
         style="stop-color:#ffffff;stop-opacity:1;" />
      <stop
         id="stop6736-9"
         offset="1"
         style="stop-color:#dddddd;stop-opacity:1;" />
    </linearGradient>
    <linearGradient
       inkscape:collect="always"
       xlink:href="#linearGradient4105"
       id="linearGradient4111"
       x1="128.72728"
       y1="214.54546"
       x2="133.09091"
       y2="137.45454"
       gradientUnits="userSpaceOnUse" />
    <linearGradient
       inkscape:collect="always"
       xlink:href="#linearGradient4105"
       id="linearGradient4115"
       gradientUnits="userSpaceOnUse"
       x1="50.18182"
       y1="184.72728"
       x2="58.909092"
       y2="168.72728" />
  </defs>
  <sodipodi:namedview
     id="base"
     pagecolor="#ffffff"
     bordercolor="#666666"
     borderopacity="1.0"
     inkscape:pageopacity="0.0"
     inkscape:pageshadow="2"
     inkscape:zoom="0.6875"
     inkscape:cx="137.71354"
     inkscape:cy="312.76661"
     inkscape:current-layer="layer1"
     showgrid="true"
     inkscape:document-units="px"
     inkscape:grid-bbox="true"
     inkscape:window-width="927"
     inkscape:window-height="1028"
     inkscape:window-x="65"
     inkscape:window-y="24"
     inkscape:window-maximized="0" />
  <metadata
     id="metadata3001">
    <rdf:RDF>
      <cc:Work
         rdf:about="">
        <dc:format>image/svg+xml</dc:format>
        <dc:type
           rdf:resource="http://purl.org/dc/dcmitype/StillImage" />
        <dc:title></dc:title>
      </cc:Work>
    </rdf:RDF>
  </metadata>
  <g
     id="layer1"
     inkscape:label="Layer 1"
     inkscape:groupmode="layer">
    <path
       style="fill:none;stroke:#000000;stroke-width:10;stroke-linecap:butt;stroke-linejoin:round;stroke-opacity:1;stroke-miterlimit:4;stroke-dasharray:none"
       d="m 3.6363636,173.09091 c 0,0 5.0909091,-18.18182 27.6363634,-20.36364 22.545455,-2.18182 31.272727,-20.36363 31.272727,-20.36363 0,0 12.363637,-55.272731 27.636364,-67.636367 C 105.45455,52.363637 104,34.181818 125.81818,29.090909 147.63636,24 168.72727,18.181818 184.72727,30.545455 c 16,12.363636 26.90909,0.727273 32.72728,37.090909 5.81818,36.363636 -2.9091,58.181816 2.90909,71.272726 5.81818,13.09091 8.72727,18.18182 18.90909,27.63636 C 249.45455,176 251.63636,173.09091 252.36364,192 253.09091,210.90909 253.09091,216.72727 240,225.45455 226.90909,234.18182 218.90909,248 202.18182,234.90909 185.45455,221.81818 192,216 176,207.27273 160,198.54545 165.09091,208 154.90909,216 c -10.18182,8 -11.63636,20.36364 -35.63636,24 -24.000003,3.63636 -50.181821,15.27273 -58.181821,0.72727 -8,-14.54545 -11.636364,-38.54545 -24.727273,-27.63636 C 23.272727,224 8,225.45455 3.6363636,206.54545 c -4.36363633,-18.90909 0,-33.45454 0,-33.45454 z"
       id="path4079"
       inkscape:connector-curvature="0" />
    <path
       style="fill:none;stroke:#000000;stroke-width:10;stroke-linecap:butt;stroke-linejoin:round;stroke-opacity:1;stroke-miterlimit:4;stroke-dasharray:none"
       d="m 112.72727,150.54545 c 0,0 5.81818,12.36364 17.45455,13.81819 C 141.81818,165.81818 144,160 151.27273,154.90909 c 7.27272,-5.09091 16.72727,-3.63636 22.54545,-0.72727 5.81818,2.90909 14.54546,-10.90909 14.54546,-10.90909"
       id="path4081"
       inkscape:connector-curvature="0" />
    <path
       style="fill:none;stroke:#000000;stroke-width:10;stroke-linecap:butt;stroke-linejoin:round;stroke-opacity:1;stroke-miterlimit:4;stroke-dasharray:none"
       d="m 110.54545,101.81818 c 0,0 0.72728,-7.999998 9.45455,-10.181816 8.72727,-2.181818 12.36364,-2.909091 18.18182,0 5.81818,2.909091 5.09091,10.909086 5.09091,10.909086"
       id="path4083"
       inkscape:connector-curvature="0" />
    <path
       style="fill:none;stroke:#000000;stroke-width:10;stroke-linecap:butt;stroke-linejoin:round;stroke-miterlimit:4;stroke-opacity:1;stroke-dasharray:none"
       d="m 158.89454,103.14119 c 0,0 0.72728,-8.000002 9.45455,-10.18182 8.72727,-2.181818 12.36364,-2.909091 18.18182,0 5.81818,2.909091 5.09091,10.90909 5.09091,10.90909"
       id="path4083-1"
       inkscape:connector-curvature="0" />
    <path
       style="fill:url(#linearGradient4111);stroke:none;fill-opacity:1"
       d="m 69.489521,241.41335 c -2.61852,-1.19803 -4.224208,-4.00659 -9.738336,-17.03363 -4.300818,-10.1606 -7.34729,-14.99501 -10.952983,-17.38115 -2.386336,-1.5792 -3.385303,-1.79317 -7.11282,-1.52355 -3.680238,0.26621 -4.975483,0.77636 -8.558032,3.37071 -6.221531,4.50541 -9.427273,6.02699 -13.586991,6.44897 -6.121185,0.62095 -8.978179,-2.53613 -11.0021589,-12.1578 -1.2472265,-5.92911 -1.4353961,-19.75412 -0.3473185,-25.51783 1.5554658,-8.23955 8.2588764,-15.23809 17.1207004,-17.87447 2.776869,-0.82611 7.744125,-2.00772 11.038347,-2.62579 8.221674,-1.54259 15.810528,-5.33858 21.715182,-10.8621 7.490618,-7.0071 8.702954,-9.23755 12.266882,-22.56854 5.333649,-19.9507 11.233787,-36.127089 16.845133,-46.184231 1.399731,-2.508724 5.061389,-7.090542 8.137018,-10.181818 3.075629,-3.091275 6.446276,-6.929591 7.490336,-8.529591 1.04405,-1.6 4.03463,-6.219045 6.64573,-10.264545 6.99814,-10.842579 9.30105,-12.283297 25.49012,-15.946833 14.62312,-3.309169 22.14457,-4.254203 29.41501,-3.695855 7.16069,0.54992 10.33199,1.703964 17.89821,6.513208 3.14121,1.996618 8.84321,4.885575 12.67111,6.419903 3.82791,1.534328 7.647,3.239941 8.48687,3.790251 4.0352,2.643957 7.48916,13.410083 9.59605,29.911144 0.90821,7.113201 1.02184,13.252718 0.61431,33.196337 -0.5681,27.80216 -0.55922,27.8699 5.16131,39.36427 5.26361,10.57628 9.51777,15.96504 19.51372,24.71815 3.23493,2.83272 6.32162,5.95182 6.8593,6.93133 1.2186,2.21999 2.49968,20.00212 1.87704,26.05449 -0.79094,7.68835 -1.69037,8.75726 -17.67733,21.00815 -8.27038,6.33764 -11.35203,7.98509 -14.76891,7.8955 -5.60186,-0.14689 -14.11987,-7.2882 -20.51199,-17.19679 -4.83848,-7.50026 -9.78452,-12.0062 -17.3175,-15.77657 -9.38091,-4.6953 -14.92294,-3.94382 -19.27638,2.61379 -1.03249,1.55524 -4.52976,5.63037 -7.77171,9.05584 -3.24195,3.42547 -7.81763,8.28929 -10.16817,10.80848 -5.89537,6.31837 -10.03261,8.10005 -27.01155,11.63239 -7.5931,1.57969 -16.91474,3.5502 -20.71474,4.3789 -9.462145,2.06352 -19.294344,2.59609 -22.325459,1.20928 l 0,0 z m 73.234549,-73.37037 c 1.4,-0.69195 4.99484,-3.20985 7.98854,-5.59534 7.58999,-6.04799 10.33603,-6.54448 20.0979,-3.63371 6.89062,2.05461 9.46079,1.12336 16.51011,-5.98211 3.12809,-3.15302 5.58264,-6.04456 5.45454,-6.42563 -0.1281,-0.38109 -2.03291,-1.98253 -4.23291,-3.55879 l -4,-2.86591 -4.08217,4.49325 -4.08218,4.49325 -4.76447,-1.26955 c -6.40478,-1.70663 -13.31185,-1.63804 -18.13481,0.18009 -2.115,0.7973 -6.13637,3.28333 -8.93637,5.52451 -2.8,2.24118 -5.70029,4.40179 -6.44509,4.80136 -1.97196,1.05792 -7.90723,0.84028 -10.87249,-0.39868 -2.82408,-1.17998 -8.18349,-6.32289 -8.88178,-8.52301 -0.24426,-0.7696 -0.75429,-1.39927 -1.13339,-1.39927 -0.55824,0 -8.20872,3.97932 -9.33372,4.85484 -0.16656,0.12962 0.95392,2.06044 2.48996,4.29069 3.91855,5.68957 9.64382,10.09608 15.62635,12.02699 3.16668,1.02206 13.93336,0.37023 16.73198,-1.01298 l 0,0 z m 22.11452,-65.60489 c 0.6341,-2.526435 3.02014,-3.869109 9.14527,-5.146236 4.09577,-0.853993 5.82725,-0.918838 7.73376,-0.289632 2.78874,0.920368 4.64281,3.152088 4.64281,5.588498 0,1.57639 0.26332,1.65636 5.45455,1.65636 3,0 5.45455,-0.28261 5.45455,-0.62801 0,-0.34541 -0.33238,-2.38064 -0.73862,-4.52274 -1.59924,-8.432725 -7.76574,-13.031073 -17.47501,-13.031073 -11.72816,0 -21.44091,4.625485 -24.03393,11.445624 -1.84874,4.862559 -1.79142,5.002409 2.37833,5.802599 6.29429,1.20789 6.93433,1.13256 7.43829,-0.87539 l 0,0 z m -47.92795,-2.03721 c 3.15709,-5.052965 17.27436,-6.739093 20.16593,-2.408565 0.29388,0.440118 0.53933,1.700215 0.54546,2.800215 l 0.0111,2 5.45455,0 5.45454,0 -0.007,-2.72727 c -0.0108,-4.171699 -3.03489,-9.958774 -6.30138,-12.058976 -4.30224,-2.766134 -7.87037,-3.612082 -13.60924,-3.226537 -10.99378,0.73858 -18.2994,4.394196 -21.5619,10.789225 -2.24337,4.397359 -1.9379,5.569548 1.66144,6.375598 5.43647,1.21746 6.59829,0.99838 8.18657,-1.54369 l 1.7e-4,0 z"
       id="path4103"
       inkscape:connector-curvature="0" />
    <path
       inkscape:connector-curvature="0"
       id="path4113"
       d="m 69.489521,241.41335 c -2.61852,-1.19803 -4.224208,-4.00659 -9.738336,-17.03363 -4.300818,-10.1606 -7.34729,-14.99501 -10.952983,-17.38115 -2.386336,-1.5792 -3.385303,-1.79317 -7.11282,-1.52355 -3.680238,0.26621 -4.975483,0.77636 -8.558032,3.37071 -6.221531,4.50541 -9.427273,6.02699 -13.586991,6.44897 -6.121185,0.62095 -8.978179,-2.53613 -11.0021589,-12.1578 -1.2472265,-5.92911 -1.4353961,-19.75412 -0.3473185,-25.51783 1.5554658,-8.23955 8.2588764,-15.23809 17.1207004,-17.87447 2.776869,-0.82611 7.744125,-2.00772 11.038347,-2.62579 8.221674,-1.54259 15.810528,-5.33858 21.715182,-10.8621 7.490618,-7.0071 8.702954,-9.23755 12.266882,-22.56854 5.333649,-19.9507 11.233787,-36.127089 16.845133,-46.184231 1.399731,-2.508724 5.061389,-7.090542 8.137018,-10.181818 3.075629,-3.091275 6.446276,-6.929591 7.490336,-8.529591 1.04405,-1.6 4.03463,-6.219045 6.64573,-10.264545 6.99814,-10.842579 9.30105,-12.283297 25.49012,-15.946833 14.62312,-3.309169 22.14457,-4.254203 29.41501,-3.695855 7.16069,0.54992 10.33199,1.703964 17.89821,6.513208 3.14121,1.996618 8.84321,4.885575 12.67111,6.419903 3.82791,1.534328 7.647,3.239941 8.48687,3.790251 4.0352,2.643957 7.48916,13.410083 9.59605,29.911144 0.90821,7.113201 1.02184,13.252718 0.61431,33.196337 -0.5681,27.80216 -0.55922,27.8699 5.16131,39.36427 5.26361,10.57628 9.51777,15.96504 19.51372,24.71815 3.23493,2.83272 6.32162,5.95182 6.8593,6.93133 1.2186,2.21999 2.49968,20.00212 1.87704,26.05449 -0.79094,7.68835 -1.69037,8.75726 -17.67733,21.00815 -8.27038,6.33764 -11.35203,7.98509 -14.76891,7.8955 -5.60186,-0.14689 -14.11987,-7.2882 -20.51199,-17.19679 -4.83848,-7.50026 -9.78452,-12.0062 -17.3175,-15.77657 -9.38091,-4.6953 -14.92294,-3.94382 -19.27638,2.61379 -1.03249,1.55524 -4.52976,5.63037 -7.77171,9.05584 -3.24195,3.42547 -7.81763,8.28929 -10.16817,10.80848 -5.89537,6.31837 -10.03261,8.10005 -27.01155,11.63239 -7.5931,1.57969 -16.91474,3.5502 -20.71474,4.3789 -9.462145,2.06352 -19.294344,2.59609 -22.325459,1.20928 l 0,0 z m 73.234549,-73.37037 c 1.4,-0.69195 4.99484,-3.20985 7.98854,-5.59534 7.58999,-6.04799 10.33603,-6.54448 20.0979,-3.63371 6.89062,2.05461 9.46079,1.12336 16.51011,-5.98211 3.12809,-3.15302 5.58264,-6.04456 5.45454,-6.42563 -0.1281,-0.38109 -2.03291,-1.98253 -4.23291,-3.55879 l -4,-2.86591 -4.08217,4.49325 -4.08218,4.49325 -4.76447,-1.26955 c -6.40478,-1.70663 -13.31185,-1.63804 -18.13481,0.18009 -2.115,0.7973 -6.13637,3.28333 -8.93637,5.52451 -2.8,2.24118 -5.70029,4.40179 -6.44509,4.80136 -1.97196,1.05792 -7.90723,0.84028 -10.87249,-0.39868 -2.82408,-1.17998 -8.18349,-6.32289 -8.88178,-8.52301 -0.24426,-0.7696 -0.75429,-1.39927 -1.13339,-1.39927 -0.55824,0 -8.20872,3.97932 -9.33372,4.85484 -0.16656,0.12962 0.95392,2.06044 2.48996,4.29069 3.91855,5.68957 9.64382,10.09608 15.62635,12.02699 3.16668,1.02206 13.93336,0.37023 16.73198,-1.01298 l 0,0 z m 22.11452,-65.60489 c 0.6341,-2.526435 3.02014,-3.869109 9.14527,-5.146236 4.09577,-0.853993 5.82725,-0.918838 7.73376,-0.289632 2.78874,0.920368 4.64281,3.152088 4.64281,5.588498 0,1.57639 0.26332,1.65636 5.45455,1.65636 3,0 5.45455,-0.28261 5.45455,-0.62801 0,-0.34541 -0.33238,-2.38064 -0.73862,-4.52274 -1.59924,-8.432725 -7.76574,-13.031073 -17.47501,-13.031073 -11.72816,0 -21.44091,4.625485 -24.03393,11.445624 -1.84874,4.862559 -1.79142,5.002409 2.37833,5.802599 6.29429,1.20789 6.93433,1.13256 7.43829,-0.87539 l 0,0 z m -47.92795,-2.03721 c 3.15709,-5.052965 17.27436,-6.739093 20.16593,-2.408565 0.29388,0.440118 0.53933,1.700215 0.54546,2.800215 l 0.0111,2 5.45455,0 5.45454,0 -0.007,-2.72727 c -0.0108,-4.171699 -3.03489,-9.958774 -6.30138,-12.058976 -4.30224,-2.766134 -7.87037,-3.612082 -13.60924,-3.226537 -10.99378,0.73858 -18.2994,4.394196 -21.5619,10.789225 -2.24337,4.397359 -1.9379,5.569548 1.66144,6.375598 5.43647,1.21746 6.59829,0.99838 8.18657,-1.54369 l 1.7e-4,0 z"
       style="fill:url(#linearGradient4115);stroke:none;fill-opacity:1" />
  </g>
</svg>
