<?xml version="1.0" encoding="UTF-8" standalone="no"?>
<!-- Created with Inkscape (http://www.inkscape.org/) -->

<svg
   xmlns:dc="http://purl.org/dc/elements/1.1/"
   xmlns:cc="http://creativecommons.org/ns#"
   xmlns:rdf="http://www.w3.org/1999/02/22-rdf-syntax-ns#"
   xmlns:svg="http://www.w3.org/2000/svg"
   xmlns="http://www.w3.org/2000/svg"
   xmlns:xlink="http://www.w3.org/1999/xlink"
   xmlns:sodipodi="http://sodipodi.sourceforge.net/DTD/sodipodi-0.dtd"
   xmlns:inkscape="http://www.inkscape.org/namespaces/inkscape"
   width="256px"
   height="256px"
   id="svg2985"
   version="1.1"
   inkscape:version="0.48.4 r9939"
   sodipodi:docname="inlinedeep.svg">
  <defs
     id="defs2987">
    <radialGradient
       r="7.84375"
       fy="16.96875"
       fx="12.15625"
       cy="16.96875"
       cx="12.15625"
       gradientTransform="matrix(1,0,0,0.537849,0,7.842131)"
       gradientUnits="userSpaceOnUse"
       id="radialGradient3927"
       xlink:href="#linearGradient3209"
       inkscape:collect="always" />
    <linearGradient
       inkscape:collect="always"
       id="linearGradient3209">
      <stop
         style="stop-color:black;stop-opacity:1;"
         offset="0"
         id="stop3211" />
      <stop
         style="stop-color:black;stop-opacity:0;"
         offset="1"
         id="stop3213" />
    </linearGradient>
    <linearGradient
       id="linearGradient3252">
      <stop
         id="stop3254"
         offset="0"
         style="stop-color:#744602;stop-opacity:1;" />
      <stop
         style="stop-color:#d88500;stop-opacity:1;"
         offset="0.24886067"
         id="stop3258" />
      <stop
         id="stop3260"
         offset="0.60878158"
         style="stop-color:#c97903;stop-opacity:1;" />
      <stop
         id="stop3256"
         offset="1"
         style="stop-color:white;stop-opacity:1;" />
    </linearGradient>
    <linearGradient
       id="linearGradient3263">
      <stop
         style="stop-color:#000000;stop-opacity:1;"
         offset="0"
         id="stop3265" />
      <stop
         style="stop-color:#000000;stop-opacity:0;"
         offset="1"
         id="stop3267" />
    </linearGradient>
    <filter
       id="filter3096"
       inkscape:label="Desaturate"
       x="0"
       y="0"
       width="1"
       height="1"
       inkscape:menu="Color"
       inkscape:menu-tooltip="Render in shades of gray by reducing saturation to zero"
       color-interpolation-filters="sRGB">
      <feColorMatrix
         id="feColorMatrix3098"
         type="saturate"
         values="0" />
    </filter>
    <filter
       id="filter3100"
       inkscape:label="Desaturate"
       x="0"
       y="0"
       width="1"
       height="1"
       inkscape:menu="Color"
       inkscape:menu-tooltip="Render in shades of gray by reducing saturation to zero"
       color-interpolation-filters="sRGB">
      <feColorMatrix
         id="feColorMatrix3102"
         type="saturate"
         values="0" />
    </filter>
  </defs>
  <sodipodi:namedview
     id="base"
     pagecolor="#ffffff"
     bordercolor="#666666"
     borderopacity="1.0"
     inkscape:pageopacity="0.0"
     inkscape:pageshadow="2"
     inkscape:zoom="1.4142136"
     inkscape:cx="110.15429"
     inkscape:cy="241.55149"
     inkscape:current-layer="layer1"
     showgrid="true"
     inkscape:document-units="px"
     inkscape:grid-bbox="true"
     inkscape:window-width="927"
     inkscape:window-height="1028"
     inkscape:window-x="65"
     inkscape:window-y="24"
     inkscape:window-maximized="0" />
  <metadata
     id="metadata2990">
    <rdf:RDF>
      <cc:Work
         rdf:about="">
        <dc:format>image/svg+xml</dc:format>
        <dc:type
           rdf:resource="http://purl.org/dc/dcmitype/StillImage" />
        <dc:title></dc:title>
      </cc:Work>
    </rdf:RDF>
  </metadata>
  <g
     id="layer1"
     inkscape:label="Layer 1"
     inkscape:groupmode="layer">
    <g
       transform="matrix(-0.24708544,0,0,-0.24708544,248.29272,197.0245)"
       id="g3">
      <path
         d="m 190.88706,112.49 100.05094,0 0,69.73646 L 521.87158,62.781451 290.938,-72.849295 l 0,61.642099 -229.817915,2.0235911 4.047183,511.2326049 123.696192,0 z"
         id="polygon5"
         inkscape:connector-curvature="0"
         sodipodi:nodetypes="cccccccccc"
         style="fill:#338000;stroke:#086600;stroke-opacity:1;stroke-width:16.37894972999999865;stroke-miterlimit:4;stroke-dasharray:none" />
    </g>
    <g
       transform="matrix(-0.24708544,0,0,-0.24708544,248.29272,197.0245)"
       id="g7" />
    <g
       transform="matrix(-0.24708544,0,0,-0.24708544,248.29272,197.0245)"
       id="g9" />
    <g
       transform="matrix(-0.24708544,0,0,-0.24708544,248.29272,197.0245)"
       id="g11" />
    <g
       transform="matrix(-0.24708544,0,0,-0.24708544,248.29272,197.0245)"
       id="g13" />
    <g
       transform="matrix(-0.24708544,0,0,-0.24708544,248.29272,197.0245)"
       id="g15" />
    <g
       transform="matrix(-0.24708544,0,0,-0.24708544,248.29272,197.0245)"
       id="g17" />
    <g
       transform="matrix(-0.24708544,0,0,-0.24708544,248.29272,197.0245)"
       id="g19" />
    <g
       transform="matrix(-0.24708544,0,0,-0.24708544,248.29272,197.0245)"
       id="g21" />
    <g
       transform="matrix(-0.24708544,0,0,-0.24708544,248.29272,197.0245)"
       id="g23" />
    <g
       transform="matrix(-0.24708544,0,0,-0.24708544,248.29272,197.0245)"
       id="g25" />
    <g
       transform="matrix(-0.24708544,0,0,-0.24708544,248.29272,197.0245)"
       id="g27" />
    <g
       transform="matrix(-0.24708544,0,0,-0.24708544,248.29272,197.0245)"
       id="g29" />
    <g
       transform="matrix(-0.24708544,0,0,-0.24708544,248.29272,197.0245)"
       id="g31" />
    <g
       transform="matrix(-0.24708544,0,0,-0.24708544,248.29272,197.0245)"
       id="g33" />
    <g
       transform="matrix(-0.24708544,0,0,-0.24708544,248.29272,197.0245)"
       id="g35" />
    <rect
       y="216.5"
       x="48"
       height="9"
       width="25"
       id="rect4087"
       style="fill:#000000;fill-opacity:1;stroke:none" />
    <rect
       y="168"
       x="16"
       height="9"
       width="25"
       id="rect4089"
       style="fill:#000000;fill-opacity:1;stroke:none" />
    <rect
       style="fill:#000000;fill-opacity:1;stroke:none"
       id="rect4085"
       width="25"
       height="9"
       x="79.5"
       y="216.5" />
    <rect
       y="39.5"
       x="135.5"
       height="9"
       width="25"
       id="rect4079"
       style="opacity:1;fill:#000000;fill-opacity:1;stroke:none" />
    <rect
       y="39.5"
       x="216"
       height="9"
       width="25"
       id="rect4081"
       style="opacity:1;fill:#000000;fill-opacity:1;stroke:none" />
    <rect
       style="fill:#000000;fill-opacity:1;stroke:none"
       id="rect4091"
       width="16.5"
       height="9"
       x="88.5"
       y="144.5" />
    <rect
       style="fill:#000000;fill-opacity:1;stroke:none"
       id="rect4093"
       width="16.5"
       height="9"
       x="81"
       y="168.5" />
    <rect
       style="fill:#000000;fill-opacity:1;stroke:none"
       id="rect4095"
       width="16.5"
       height="9"
       x="47.5"
       y="168" />
    <rect
       style="fill:#000000;fill-opacity:1;stroke:none"
       id="rect4097"
       width="16.5"
       height="9"
       x="23.5"
       y="192.5" />
    <rect
       style="fill:#000000;fill-opacity:1;stroke:none"
       id="rect4099"
       width="16.5"
       height="9"
       x="56"
       y="192.5" />
    <rect
       style="fill:#000000;fill-opacity:1;stroke:none"
       id="rect4101"
       width="16.5"
       height="9"
       x="80.5"
       y="192.5" />
    <rect
       style="fill:#000000;fill-opacity:1;stroke:none"
       id="rect4103"
       width="16.5"
       height="9"
       x="15.5"
       y="216" />
    <rect
       style="fill:#000000;fill-opacity:1;stroke:none"
       id="rect4105"
       width="16"
       height="9"
       x="16.5"
       y="150" />
    <rect
       style="fill:#000000;fill-opacity:1;stroke:none"
       id="rect4107"
       width="58"
       height="9"
       x="16.5"
       y="142.5" />
    <rect
       y="39.36039"
       x="178.40054"
       height="9"
       width="16.5"
       id="rect4083"
       style="fill:#000000;fill-opacity:1;stroke:none" />
    <rect
       style="opacity:1;fill:#000000;fill-opacity:1;stroke:none;stroke-width:4.04699993000000013;stroke-linejoin:round;stroke-miterlimit:4;stroke-opacity:1;stroke-dasharray:none"
       id="rect4077"
       width="25"
       height="9"
       x="96"
       y="39.5" />
    <g
       transform="matrix(0.8660254,-0.5,0.5,0.8660254,0,0)"
       style="font-size:88.1880188px;font-style:normal;font-weight:normal;line-height:125%;letter-spacing:0px;word-spacing:0px;fill:#000000;fill-opacity:1;stroke:none;font-family:Sans"
       id="text4151">
      <path
         d="m 62.675337,182.69539 c -3.203847,-3.72037 -7.337656,-9.92108 -12.401441,-18.60216 -6.924262,12.4015 -13.435012,21.34087 -19.532268,26.81812 -7.64766,6.61414 -17.413784,9.92119 -29.2984021,9.92115 -13.9516899,4e-5 -25.5263559,-5.2189 -34.7240319,-15.65682 -9.714501,-10.95454 -14.571727,-25.47455 -14.571693,-43.56006 -3.4e-5,-17.3619 4.857192,-31.93358 14.571693,-43.715073 8.68095,-10.437729 20.358961,-15.656664 35.0340679,-15.656818 7.5441182,1.54e-4 14.1065401,1.550333 19.6872861,4.65054 6.510646,3.410542 11.987944,8.061078 16.431908,13.951621 4.13369,5.27074 8.267499,11.47146 12.40144,18.60216 6.923999,-12.40131 13.434748,-21.340674 19.532269,-26.818115 7.647395,-6.613951 17.413519,-9.920998 29.298402,-9.921152 13.951423,1.54e-4 25.526093,5.219088 34.724033,15.656818 9.71424,10.954729 14.57146,25.474739 14.57169,43.560059 -2.3e-4,17.36209 -4.85745,31.93377 -14.57169,43.71508 -8.68122,10.43792 -20.35923,15.65685 -35.034069,15.65681 -7.544383,4e-5 -14.106805,-1.55014 -19.687286,-4.65054 -5.580804,-2.79028 -11.058101,-7.44081 -16.431908,-13.95162 M -0.2619721,180.52514 C 16.789909,180.5252 30.43148,168.12377 40.66278,143.32082 27.537813,116.24446 13.896243,102.70624 -0.2619721,102.70611 c -10.3346049,1.3e-4 -18.1371699,3.72056 -23.4077179,11.16129 -5.684046,7.95771 -8.52604,17.20711 -8.52599,27.74822 -5e-5,11.57476 2.841944,20.92751 8.52599,28.05826 5.787274,7.23424 13.589839,10.85132 23.4077179,10.85126 m 101.0717421,-77.509 c -15.398627,1.3e-4 -29.040198,12.40156 -40.924757,37.20432 13.021357,27.07655 26.662927,40.61477 40.924757,40.61472 10.33434,5e-5 18.1369,-3.72037 23.40771,-11.1613 5.68378,-7.95751 8.52578,-17.20691 8.52599,-27.74822 -2.1e-4,-11.57457 -2.84221,-20.92731 -8.52599,-28.05826 -5.78754,-7.23404 -13.5901,-10.85113 -23.40771,-10.85126"
         style="font-size:317.47686768px"
         id="path4156" />
    </g>
  </g>
</svg>
