<?xml version="1.0" encoding="UTF-8" standalone="no"?>
<!-- Created with Inkscape (http://www.inkscape.org/) -->

<svg
   xmlns:dc="http://purl.org/dc/elements/1.1/"
   xmlns:cc="http://creativecommons.org/ns#"
   xmlns:rdf="http://www.w3.org/1999/02/22-rdf-syntax-ns#"
   xmlns:svg="http://www.w3.org/2000/svg"
   xmlns="http://www.w3.org/2000/svg"
   xmlns:xlink="http://www.w3.org/1999/xlink"
   xmlns:sodipodi="http://sodipodi.sourceforge.net/DTD/sodipodi-0.dtd"
   xmlns:inkscape="http://www.inkscape.org/namespaces/inkscape"
   width="256px"
   height="256px"
   id="svg2985"
   version="1.1"
   inkscape:version="0.48.4 r9939"
   sodipodi:docname="round.svg">
  <defs
     id="defs2987">
    <radialGradient
       r="7.84375"
       fy="16.96875"
       fx="12.15625"
       cy="16.96875"
       cx="12.15625"
       gradientTransform="matrix(1,0,0,0.537849,0,7.842131)"
       gradientUnits="userSpaceOnUse"
       id="radialGradient3927"
       xlink:href="#linearGradient3209"
       inkscape:collect="always" />
    <linearGradient
       inkscape:collect="always"
       id="linearGradient3209">
      <stop
         style="stop-color:black;stop-opacity:1;"
         offset="0"
         id="stop3211" />
      <stop
         style="stop-color:black;stop-opacity:0;"
         offset="1"
         id="stop3213" />
    </linearGradient>
    <linearGradient
       id="linearGradient3252">
      <stop
         id="stop3254"
         offset="0"
         style="stop-color:#744602;stop-opacity:1;" />
      <stop
         style="stop-color:#d88500;stop-opacity:1;"
         offset="0.24886067"
         id="stop3258" />
      <stop
         id="stop3260"
         offset="0.60878158"
         style="stop-color:#c97903;stop-opacity:1;" />
      <stop
         id="stop3256"
         offset="1"
         style="stop-color:white;stop-opacity:1;" />
    </linearGradient>
    <linearGradient
       id="linearGradient3263">
      <stop
         style="stop-color:#000000;stop-opacity:1;"
         offset="0"
         id="stop3265" />
      <stop
         style="stop-color:#000000;stop-opacity:0;"
         offset="1"
         id="stop3267" />
    </linearGradient>
    <filter
       id="filter3096"
       inkscape:label="Desaturate"
       x="0"
       y="0"
       width="1"
       height="1"
       inkscape:menu="Color"
       inkscape:menu-tooltip="Render in shades of gray by reducing saturation to zero"
       color-interpolation-filters="sRGB">
      <feColorMatrix
         id="feColorMatrix3098"
         type="saturate"
         values="0" />
    </filter>
    <filter
       id="filter3100"
       inkscape:label="Desaturate"
       x="0"
       y="0"
       width="1"
       height="1"
       inkscape:menu="Color"
       inkscape:menu-tooltip="Render in shades of gray by reducing saturation to zero"
       color-interpolation-filters="sRGB">
      <feColorMatrix
         id="feColorMatrix3102"
         type="saturate"
         values="0" />
    </filter>
    <linearGradient
       id="linearGradient3252-7">
      <stop
         id="stop3254-6"
         offset="0"
         style="stop-color:#744602;stop-opacity:1;" />
      <stop
         style="stop-color:#d88500;stop-opacity:1;"
         offset="0.24886067"
         id="stop3258-2" />
      <stop
         id="stop3260-2"
         offset="0.60878158"
         style="stop-color:#c97903;stop-opacity:1;" />
      <stop
         id="stop3256-0"
         offset="1"
         style="stop-color:white;stop-opacity:1;" />
    </linearGradient>
    <filter
       id="filter3100-6"
       inkscape:label="Desaturate"
       x="0"
       y="0"
       width="1"
       height="1"
       inkscape:menu="Color"
       inkscape:menu-tooltip="Render in shades of gray by reducing saturation to zero"
       color-interpolation-filters="sRGB">
      <feColorMatrix
         id="feColorMatrix3102-2"
         type="saturate"
         values="0" />
    </filter>
    <linearGradient
       inkscape:collect="always"
       xlink:href="#linearGradient3263-0"
       id="linearGradient3854"
       gradientUnits="userSpaceOnUse"
       gradientTransform="matrix(0,1.5224361,-1.5224361,0,159.6298,111.92157)"
       x1="18.375"
       y1="26.9375"
       x2="46.5625"
       y2="15.71875" />
    <linearGradient
       id="linearGradient3263-0">
      <stop
         style="stop-color:#000000;stop-opacity:1;"
         offset="0"
         id="stop3265-3" />
      <stop
         style="stop-color:#000000;stop-opacity:0;"
         offset="1"
         id="stop3267-1" />
    </linearGradient>
    <filter
       id="filter3096-0"
       inkscape:label="Desaturate"
       x="0"
       y="0"
       width="1"
       height="1"
       inkscape:menu="Color"
       inkscape:menu-tooltip="Render in shades of gray by reducing saturation to zero"
       color-interpolation-filters="sRGB">
      <feColorMatrix
         id="feColorMatrix3098-6"
         type="saturate"
         values="0" />
    </filter>
  </defs>
  <sodipodi:namedview
     id="base"
     pagecolor="#ffffff"
     bordercolor="#666666"
     borderopacity="1.0"
     inkscape:pageopacity="0.0"
     inkscape:pageshadow="2"
     inkscape:zoom="0.70710678"
     inkscape:cx="132.35391"
     inkscape:cy="475.70539"
     inkscape:current-layer="layer1"
     showgrid="true"
     inkscape:document-units="px"
     inkscape:grid-bbox="true"
     inkscape:window-width="927"
     inkscape:window-height="1028"
     inkscape:window-x="65"
     inkscape:window-y="24"
     inkscape:window-maximized="0" />
  <metadata
     id="metadata2990">
    <rdf:RDF>
      <cc:Work
         rdf:about="">
        <dc:format>image/svg+xml</dc:format>
        <dc:type
           rdf:resource="http://purl.org/dc/dcmitype/StillImage" />
        <dc:title></dc:title>
      </cc:Work>
    </rdf:RDF>
  </metadata>
  <g
     id="layer1"
     inkscape:label="Layer 1"
     inkscape:groupmode="layer">
    <g
       style="font-size:139.51940918px;font-style:normal;font-weight:normal;line-height:125%;letter-spacing:0px;word-spacing:0px;fill:#000000;fill-opacity:1;stroke:none;font-family:Sans"
       id="text4424">
      <path
         d="m 28.165837,101.49054 14.374314,0 0,17.30368 -14.374314,0 0,-17.30368"
         style=""
         id="path4499" />
      <path
         d="m 102.01302,26.144612 c -7.085003,9.3e-5 -12.421433,3.497158 -16.009303,10.491206 -3.542509,6.948796 -5.31375,17.417283 -5.313727,31.405492 -2.3e-5,13.942894 1.771218,24.411381 5.313727,31.405492 3.58787,6.948728 8.9243,10.423088 16.009303,10.423078 7.13034,1e-5 12.46677,-3.47435 16.00931,-10.423078 3.58784,-6.994111 5.38179,-17.462598 5.38185,-31.405492 -6e-5,-13.988209 -1.79401,-24.456696 -5.38185,-31.405492 -3.54254,-6.994048 -8.87897,-10.491113 -16.00931,-10.491206 m 0,-10.899954 c 11.39948,1.04e-4 20.09673,4.519039 26.09177,13.556818 6.04031,8.992543 9.06051,22.072475 9.06059,39.239834 -8e-5,17.122044 -3.02028,30.201976 -9.06059,39.23983 -5.99504,8.99247 -14.69229,13.48869 -26.09177,13.4887 -11.399563,-1e-5 -20.119518,-4.49623 -26.159885,-13.4887 -5.994986,-9.037854 -8.992471,-22.117786 -8.992462,-39.23983 -9e-6,-17.167359 2.997476,-30.247291 8.992462,-39.239834 6.040367,-9.037779 14.760322,-13.556714 26.159885,-13.556818"
         style=""
         id="path4501" />
      <path
         d="m 190.84765,26.144612 c -7.08501,9.3e-5 -12.42144,3.497158 -16.00931,10.491206 -3.54251,6.948796 -5.31375,17.417283 -5.31372,31.405492 -3e-5,13.942894 1.77121,24.411381 5.31372,31.405492 3.58787,6.948728 8.9243,10.423088 16.00931,10.423078 7.13033,1e-5 12.46677,-3.47435 16.00931,-10.423078 3.58783,-6.994111 5.38178,-17.462598 5.38185,-31.405492 -7e-5,-13.988209 -1.79402,-24.456696 -5.38185,-31.405492 -3.54254,-6.994048 -8.87898,-10.491113 -16.00931,-10.491206 m 0,-10.899954 c 11.39948,1.04e-4 20.09673,4.519039 26.09176,13.556818 6.04032,8.992543 9.06051,22.072475 9.06059,39.239834 -8e-5,17.122044 -3.02027,30.201976 -9.06059,39.23983 -5.99503,8.99247 -14.69228,13.48869 -26.09176,13.4887 -11.39957,-1e-5 -20.11952,-4.49623 -26.15989,-13.4887 -5.99499,-9.037854 -8.99247,-22.117786 -8.99246,-39.23983 -1e-5,-17.167359 2.99747,-30.247291 8.99246,-39.239834 6.04037,-9.037779 14.76032,-13.556714 26.15989,-13.556818"
         style=""
         id="path4503" />
    </g>
    <g
       style="font-size:139.51940918px;font-style:normal;font-weight:normal;line-height:125%;letter-spacing:0px;word-spacing:0px;fill:#000000;fill-opacity:1;stroke:none;font-family:Sans"
       id="text4424-2">
      <path
         d="m 117.00046,223.4833 14.37431,0 0,17.30367 -14.37431,0 0,-17.30367"
         style=""
         id="path4494" />
      <path
         d="m 190.84765,148.13736 c -7.08501,1e-4 -12.42144,3.49716 -16.00931,10.49121 -3.54251,6.9488 -5.31375,17.41728 -5.31373,31.40549 -2e-5,13.9429 1.77122,24.41138 5.31373,31.40549 3.58787,6.94874 8.9243,10.42309 16.00931,10.42308 7.13033,1e-5 12.46676,-3.47434 16.0093,-10.42308 3.58784,-6.99411 5.38179,-17.46259 5.38186,-31.40549 -7e-5,-13.98821 -1.79402,-24.45669 -5.38186,-31.40549 -3.54254,-6.99405 -8.87897,-10.49111 -16.0093,-10.49121 m 0,-10.89995 c 11.39948,10e-5 20.09672,4.51904 26.09176,13.55682 6.04032,8.99254 9.06051,22.07247 9.06059,39.23983 -8e-5,17.12205 -3.02027,30.20198 -9.06059,39.23984 -5.99504,8.99246 -14.69228,13.48869 -26.09176,13.48869 -11.39957,0 -20.11953,-4.49623 -26.15989,-13.48869 -5.99499,-9.03786 -8.99247,-22.11779 -8.99247,-39.23984 0,-17.16736 2.99748,-30.24729 8.99247,-39.23983 6.04036,-9.03778 14.76032,-13.55672 26.15989,-13.55682"
         style=""
         id="path4496" />
    </g>
    <g
       transform="matrix(-3.3533751,0,0,-3.3533751,127.46166,213.89425)"
       id="g3"
       style="fill:#008080">
      <path
         inkscape:connector-curvature="0"
         d="m 30.652,17.894 c 0,3.458577 -5.059496,3.821641 -4.999,0 0.117306,-7.41044 -2.992,-6.666 -6.668,-6.666 l -10.615,0 1.197,1.197 c 0.977,0.977 0.977,2.56 10e-4,3.534 C 9.08,16.447 8.44,16.691 7.799,16.691 7.16,16.691 6.52,16.447 6.031,15.959 L 0.732,10.66 C 0.263,10.191 0,9.557 0,8.893 0,8.229 0.263,7.593 0.732,7.123 L 6.031,1.824 c 0.975,-0.977 2.559,-0.977 3.535,0 0.976,0.978 0.977,2.56 0,3.535 l -0.865,0.865 10.281,0 c 6.434,0.004 11.67,0.1985827 11.67,11.67 z"
         id="path5"
         style="fill:#008080"
         sodipodi:nodetypes="ssscscscssccccccs" />
    </g>
    <g
       transform="matrix(-3.3533751,0,0,-3.3533751,127.46166,235.89425)"
       id="g7"
       style="fill:#008080" />
    <g
       transform="matrix(-3.3533751,0,0,-3.3533751,127.46166,235.89425)"
       id="g9"
       style="fill:#008080" />
    <g
       transform="matrix(-3.3533751,0,0,-3.3533751,127.46166,235.89425)"
       id="g11"
       style="fill:#008080" />
    <g
       transform="matrix(-3.3533751,0,0,-3.3533751,127.46166,235.89425)"
       id="g13"
       style="fill:#008080" />
    <g
       transform="matrix(-3.3533751,0,0,-3.3533751,127.46166,235.89425)"
       id="g15"
       style="fill:#008080" />
    <g
       transform="matrix(-3.3533751,0,0,-3.3533751,127.46166,235.89425)"
       id="g17"
       style="fill:#008080" />
    <g
       transform="matrix(-3.3533751,0,0,-3.3533751,127.46166,235.89425)"
       id="g19"
       style="fill:#008080" />
    <g
       transform="matrix(-3.3533751,0,0,-3.3533751,127.46166,235.89425)"
       id="g21"
       style="fill:#008080" />
    <g
       transform="matrix(-3.3533751,0,0,-3.3533751,127.46166,235.89425)"
       id="g23"
       style="fill:#008080" />
    <g
       transform="matrix(-3.3533751,0,0,-3.3533751,127.46166,235.89425)"
       id="g25"
       style="fill:#008080" />
    <g
       transform="matrix(-3.3533751,0,0,-3.3533751,127.46166,235.89425)"
       id="g27"
       style="fill:#008080" />
    <g
       transform="matrix(-3.3533751,0,0,-3.3533751,127.46166,235.89425)"
       id="g29"
       style="fill:#008080" />
    <g
       transform="matrix(-3.3533751,0,0,-3.3533751,127.46166,235.89425)"
       id="g31"
       style="fill:#008080" />
    <g
       transform="matrix(-3.3533751,0,0,-3.3533751,127.46166,235.89425)"
       id="g33"
       style="fill:#008080" />
    <g
       transform="matrix(-3.3533751,0,0,-3.3533751,127.46166,235.89425)"
       id="g35"
       style="fill:#008080" />
  </g>
</svg>
