<?xml version="1.0" encoding="UTF-8" standalone="no"?>
<!-- Created with Inkscape (http://www.inkscape.org/) -->

<svg
   xmlns:dc="http://purl.org/dc/elements/1.1/"
   xmlns:cc="http://creativecommons.org/ns#"
   xmlns:rdf="http://www.w3.org/1999/02/22-rdf-syntax-ns#"
   xmlns:svg="http://www.w3.org/2000/svg"
   xmlns="http://www.w3.org/2000/svg"
   xmlns:sodipodi="http://sodipodi.sourceforge.net/DTD/sodipodi-0.dtd"
   xmlns:inkscape="http://www.inkscape.org/namespaces/inkscape"
   width="256px"
   height="256px"
   id="svg2985"
   version="1.1"
   inkscape:version="0.48.4 r9939"
   sodipodi:docname="toavg.svg">
  <defs
     id="defs2987" />
  <sodipodi:namedview
     id="base"
     pagecolor="#ffffff"
     bordercolor="#666666"
     borderopacity="1.0"
     inkscape:pageopacity="0.0"
     inkscape:pageshadow="2"
     inkscape:zoom="1"
     inkscape:cx="126"
     inkscape:cy="40"
     inkscape:current-layer="layer1"
     showgrid="true"
     inkscape:document-units="px"
     inkscape:grid-bbox="true"
     inkscape:window-width="927"
     inkscape:window-height="1028"
     inkscape:window-x="75"
     inkscape:window-y="24"
     inkscape:window-maximized="0" />
  <metadata
     id="metadata2990">
    <rdf:RDF>
      <cc:Work
         rdf:about="">
        <dc:format>image/svg+xml</dc:format>
        <dc:type
           rdf:resource="http://purl.org/dc/dcmitype/StillImage" />
        <dc:title />
      </cc:Work>
    </rdf:RDF>
  </metadata>
  <g
     id="layer1"
     inkscape:label="Layer 1"
     inkscape:groupmode="layer">
    <g
       transform="translate(0,1.3e-6)"
       id="g3287">
      <rect
         ry="10"
         rx="10"
         style="fill:#008000"
         id="rect3253"
         width="10.613055"
         height="168.29689"
         x="-241.63284"
         y="-123.90164"
         transform="matrix(-0.61715442,-0.78684206,0.84745933,-0.53086033,0,0)" />
      <rect
         ry="10"
         rx="10"
         transform="matrix(0.64240867,-0.76636225,0.76636225,0.64240867,0,0)"
         y="38.713367"
         x="-11.657083"
         height="209.70424"
         width="9.3428764"
         id="rect3249"
         style="fill:#000080" />
      <rect
         ry="10"
         rx="10"
         style="fill:#ff0000"
         id="rect3251"
         width="10.62682"
         height="169.01923"
         x="228.6575"
         y="-99.450508"
         transform="matrix(0.89567303,0.44471319,-0.40028804,0.91638937,0,0)" />
      <path
         style="fill:#000080"
         d="m 29.024975,61.224477 -17.010532,-40.27455 42.121302,4.85085 c -17.537026,10.28921 -20.562069,20.77821 -25.11077,35.4237 z"
         id="path3283"
         inkscape:connector-curvature="0"
         sodipodi:nodetypes="cccc" />
      <path
         style="fill:#ff0000"
         d="M 217.74401,28.168256 255.03898,5.3541487 256.50989,47.72833 C 243.72567,31.917606 232.90331,30.487031 217.74401,28.168256 z"
         id="path3285"
         inkscape:connector-curvature="0"
         sodipodi:nodetypes="cccc" />
      <path
         sodipodi:nodetypes="cccc"
         inkscape:connector-curvature="0"
         id="rect3280"
         d="m 78.773018,251.68529 -43.674724,1.97906 19.164894,-37.82118 c 3.564887,20.01766 12.352572,26.49427 24.50983,35.84212 z"
         style="fill:#008000" />
    </g>
    <g
       style="font-size:244.14569092px;font-style:normal;font-weight:normal;line-height:125%;letter-spacing:0px;word-spacing:0px;fill:#4d4d4d;fill-opacity:1;stroke:#000000;stroke-width:7;stroke-linejoin:round;stroke-miterlimit:4.0999999;stroke-opacity:1;font-family:Sans"
       id="text2989"
       transform="matrix(0.76757359,0,0,0.76757359,34.742458,33.144842)">
      <path
         d="m 134.83595,61.713017 c -9.13966,1.57e-4 -17.32552,1.390959 -24.55762,4.172412 -7.23225,2.781757 -13.153093,6.437581 -17.762557,10.967482 -4.530096,4.530184 -8.305131,9.974183 -11.325117,16.332012 -3.020071,6.278605 -5.126143,12.716037 -6.318224,19.312307 -1.192152,6.51701 -1.78821,13.43128 -1.788176,20.74285 -3.4e-5,16.76918 4.053162,30.8759 12.1596,42.32017 L 174.65268,75.660794 C 164.00297,66.362428 150.73074,61.713174 134.83595,61.713017 m 49.7113,25.392106 -88.693547,99.541827 c 10.490567,8.34484 23.365427,12.51725 38.624607,12.51723 19.15325,2e-5 34.21365,-6.15925 45.18126,-18.47782 10.96733,-12.39798 16.45107,-29.04787 16.45123,-49.94973 -1.6e-4,-17.24587 -3.85467,-31.789686 -11.56355,-43.631507 m 4.17242,-27.180282 19.07388,-21.338906 11.32512,9.656153 -20.02758,22.531023 c 12.31838,15.895034 18.47764,35.922589 18.47782,60.082729 -1.8e-4,26.86244 -7.66946,48.36028 -23.00787,64.49356 -15.25924,16.05386 -35.24706,24.08078 -59.96351,24.08078 -20.66345,0 -38.147826,-5.7619 -52.45318,-17.28571 L 61.639927,225.15234 49.71875,215.25777 71.176868,191.2962 C 58.143029,175.56029 51.626126,156.08906 51.626138,132.88244 51.626126,104.51015 58.977511,82.177839 73.680315,65.885429 88.38305,49.593323 108.7285,41.447194 134.71674,41.447018 c 21.53747,1.76e-4 39.53843,6.159445 54.00293,18.477823"
         style="font-variant:normal;font-stretch:normal;fill:#4d4d4d;stroke:#000000;font-family:Loma;-inkscape-font-specification:Loma"
         id="path3762"
         inkscape:connector-curvature="0" />
    </g>
  </g>
</svg>
