<?xml version="1.0" encoding="UTF-8" standalone="no"?>
<!-- Created with Inkscape (http://www.inkscape.org/) -->

<svg
   xmlns:dc="http://purl.org/dc/elements/1.1/"
   xmlns:cc="http://creativecommons.org/ns#"
   xmlns:rdf="http://www.w3.org/1999/02/22-rdf-syntax-ns#"
   xmlns:svg="http://www.w3.org/2000/svg"
   xmlns="http://www.w3.org/2000/svg"
   xmlns:sodipodi="http://sodipodi.sourceforge.net/DTD/sodipodi-0.dtd"
   xmlns:inkscape="http://www.inkscape.org/namespaces/inkscape"
   width="256px"
   height="256px"
   id="svg2985"
   version="1.1"
   inkscape:version="0.91 r13725"
   sodipodi:docname="tonearestvertexN2.svg">
  <defs
     id="defs2987" />
  <sodipodi:namedview
     id="base"
     pagecolor="#ffffff"
     bordercolor="#666666"
     borderopacity="1.0"
     inkscape:pageopacity="0.0"
     inkscape:pageshadow="2"
     inkscape:zoom="2"
     inkscape:cx="65.25"
     inkscape:cy="129.07681"
     inkscape:current-layer="layer1"
     showgrid="true"
     inkscape:document-units="px"
     inkscape:grid-bbox="true"
     inkscape:window-width="1855"
     inkscape:window-height="1056"
     inkscape:window-x="65"
     inkscape:window-y="24"
     inkscape:window-maximized="1" />
  <metadata
     id="metadata2990">
    <rdf:RDF>
      <cc:Work
         rdf:about="">
        <dc:format>image/svg+xml</dc:format>
        <dc:type
           rdf:resource="http://purl.org/dc/dcmitype/StillImage" />
        <dc:title></dc:title>
      </cc:Work>
    </rdf:RDF>
  </metadata>
  <g
     id="layer1"
     inkscape:label="Layer 1"
     inkscape:groupmode="layer">
    <rect
       style="fill:#666666"
       id="rect3095"
       width="69.894722"
       height="69.894722"
       x="63.650978"
       y="92.389877"
       rx="12.645427"
       ry="12.645427" />
    <g
       transform="translate(0,1.3e-6)"
       id="g3287">
      <rect
         ry="10"
         rx="10"
         style="fill:#008000"
         id="rect3253"
         width="10.613055"
         height="168.29689"
         x="-241.63284"
         y="-123.90164"
         transform="matrix(-0.61715442,-0.78684206,0.84745933,-0.53086033,0,0)" />
      <rect
         ry="10"
         rx="10"
         transform="matrix(0.64240867,-0.76636225,0.76636225,0.64240867,0,0)"
         y="38.713367"
         x="-11.657083"
         height="209.70424"
         width="9.3428764"
         id="rect3249"
         style="fill:#000080" />
      <rect
         ry="10"
         rx="10"
         style="fill:#ff0000"
         id="rect3251"
         width="10.62682"
         height="169.01923"
         x="228.6575"
         y="-99.450508"
         transform="matrix(0.89567303,0.44471319,-0.40028804,0.91638937,0,0)" />
      <path
         style="fill:#000080"
         d="m 29.024975,61.224477 -17.010532,-40.27455 42.121302,4.85085 c -17.537026,10.28921 -20.562069,20.77821 -25.11077,35.4237 z"
         id="path3283"
         inkscape:connector-curvature="0"
         sodipodi:nodetypes="cccc" />
      <path
         style="fill:#ff0000"
         d="M 217.74401,28.168256 255.03898,5.3541487 256.50989,47.72833 C 243.72567,31.917606 232.90331,30.487031 217.74401,28.168256 z"
         id="path3285"
         inkscape:connector-curvature="0"
         sodipodi:nodetypes="cccc" />
      <path
         sodipodi:nodetypes="cccc"
         inkscape:connector-curvature="0"
         id="rect3280"
         d="m 78.773018,251.68529 -43.674724,1.97906 19.164894,-37.82118 c 3.564887,20.01766 12.352572,26.49427 24.50983,35.84212 z"
         style="fill:#008000" />
    </g>
    <rect
       style="fill:#000000"
       id="rect3097"
       width="69.894722"
       height="70.814392"
       x="54.4543"
       y="82.273529"
       rx="12.645427"
       ry="12.645427" />
    <rect
       style="fill:#ffff00"
       id="rect3099"
       width="59.778374"
       height="59.778389"
       x="59.052635"
       y="87.79155"
       rx="12.267951"
       ry="13.257302" />
    <rect
       style="opacity:1;fill:#eed7f4;fill-opacity:1;stroke:none;stroke-width:19.43799973;stroke-linejoin:round;stroke-miterlimit:4;stroke-dasharray:none;stroke-dashoffset:0;stroke-opacity:1"
       id="rect4233"
       width="195"
       height="77.5"
       x="49"
       y="0.5"
       rx="12.268"
       ry="13.2573" />
    <g
       style="font-size:106.52913666px;font-style:normal;font-weight:normal;line-height:125%;letter-spacing:0px;word-spacing:0px;fill:#0b1728;fill-opacity:1;stroke:none;font-family:Sans"
       id="text3911">
      <path
         d="m 184.42579,169.83984 14.1484,0 34.43471,64.96821 0,-64.96821 10.19517,0 0,77.66016 -14.1484,0 -34.43471,-64.96821 0,64.96821 -10.19517,0 0,-77.66016"
         style="fill:#0b1728"
         id="path3916" />
      <g
         style="font-style:normal;font-weight:normal;font-size:80px;line-height:125%;font-family:Sans;letter-spacing:0px;word-spacing:0px;fill:#0b1728;fill-opacity:1;stroke:none;stroke-width:1px;stroke-linecap:butt;stroke-linejoin:miter;stroke-opacity:1"
         id="text3422">
        <path
           d="m 79.242187,10.664063 0,21.914062 9.921875,0 q 5.507813,0 8.515625,-2.851563 3.007813,-2.851562 3.007813,-8.125 0,-5.234375 -3.007813,-8.085937 -3.007812,-2.851562 -8.515625,-2.851562 l -9.921875,0 z m -7.890625,-6.4843755 17.8125,0 q 9.804688,0 14.804688,4.453125 5.03906,4.4140625 5.03906,12.9687495 0,8.632813 -5.03906,13.046875 -5,4.414063 -14.804688,4.414063 l -9.921875,0 0,23.4375 -7.890625,0 0,-58.3203125 z"
           style="fill:#0b1728"
           id="path4227" />
        <path
           d="m 143.30469,9.53125 q -8.59375,0 -13.67188,6.40625 -5.03906,6.40625 -5.03906,17.460937 0,11.015625 5.03906,17.421875 5.07813,6.40625 13.67188,6.40625 8.59375,0 13.59375,-6.40625 5.03906,-6.40625 5.03906,-17.421875 0,-11.054687 -5.03906,-17.460937 -5,-6.40625 -13.59375,-6.40625 z m 0,-6.40625 q 12.26562,0 19.60937,8.242188 7.34375,8.203124 7.34375,22.031249 0,13.789063 -7.34375,22.03125 -7.34375,8.203125 -19.60937,8.203125 -12.30469,0 -19.6875,-8.203125 -7.34375,-8.203125 -7.34375,-22.03125 0,-13.828125 7.34375,-22.031249 Q 131,3.125 143.30469,3.125 Z"
           style="fill:#0b1728"
           id="path4229" />
        <path
           d="m 217.5625,6.09375 0,7.695313 q -4.49219,-2.148438 -8.47656,-3.203125 -3.98438,-1.054688 -7.69532,-1.054688 -6.44531,0 -9.96093,2.5 -3.47657,2.5 -3.47657,7.109375 0,3.867187 2.30469,5.859375 2.34375,1.953125 8.82813,3.164062 l 4.76562,0.976563 q 8.82813,1.679687 13.00781,5.9375 4.21875,4.21875 4.21875,11.328125 0,8.476562 -5.70312,12.851562 -5.66406,4.375 -16.64063,4.375 -4.14062,0 -8.82812,-0.9375 -4.64844,-0.9375 -9.64844,-2.773437 l 0,-8.125 q 4.80469,2.695312 9.41406,4.0625 4.60938,1.367187 9.0625,1.367187 6.75782,0 10.42969,-2.65625 3.67188,-2.65625 3.67188,-7.578125 0,-4.296875 -2.65625,-6.71875 -2.61719,-2.421875 -8.63282,-3.632812 l -4.80468,-0.9375 q -8.82813,-1.757813 -12.77344,-5.507813 -3.94531,-3.75 -3.94531,-10.429687 0,-7.734375 5.42968,-12.1875 Q 190.92187,3.125 200.49219,3.125 q 4.10156,0 8.35937,0.7421875 4.25781,0.7421875 8.71094,2.2265625 z"
           style="fill:#0b1728"
           id="path4231" />
      </g>
    </g>
  </g>
</svg>
