<?xml version="1.0" encoding="UTF-8" standalone="no"?>
<!-- Created with Inkscape (http://www.inkscape.org/) -->

<svg
   xmlns:dc="http://purl.org/dc/elements/1.1/"
   xmlns:cc="http://creativecommons.org/ns#"
   xmlns:rdf="http://www.w3.org/1999/02/22-rdf-syntax-ns#"
   xmlns:svg="http://www.w3.org/2000/svg"
   xmlns="http://www.w3.org/2000/svg"
   xmlns:sodipodi="http://sodipodi.sourceforge.net/DTD/sodipodi-0.dtd"
   xmlns:inkscape="http://www.inkscape.org/namespaces/inkscape"
   width="256px"
   height="256px"
   id="svg2985"
   version="1.1"
   inkscape:version="0.48.4 r9939"
   sodipodi:docname="tosubfile.svg">
  <defs
     id="defs2987" />
  <sodipodi:namedview
     id="base"
     pagecolor="#ffffff"
     bordercolor="#666666"
     borderopacity="1.0"
     inkscape:pageopacity="0.0"
     inkscape:pageshadow="2"
     inkscape:zoom="1"
     inkscape:cx="126"
     inkscape:cy="40"
     inkscape:current-layer="layer1"
     showgrid="true"
     inkscape:document-units="px"
     inkscape:grid-bbox="true"
     inkscape:window-width="927"
     inkscape:window-height="1028"
     inkscape:window-x="75"
     inkscape:window-y="24"
     inkscape:window-maximized="0" />
  <metadata
     id="metadata2990">
    <rdf:RDF>
      <cc:Work
         rdf:about="">
        <dc:format>image/svg+xml</dc:format>
        <dc:type
           rdf:resource="http://purl.org/dc/dcmitype/StillImage" />
        <dc:title />
      </cc:Work>
    </rdf:RDF>
  </metadata>
  <g
     id="layer1"
     inkscape:label="Layer 1"
     inkscape:groupmode="layer">
    <g
       transform="translate(0,1.3e-6)"
       id="g3287">
      <rect
         ry="10"
         rx="10"
         style="fill:#008000"
         id="rect3253"
         width="10.613055"
         height="168.29689"
         x="-241.63284"
         y="-123.90164"
         transform="matrix(-0.61715442,-0.78684206,0.84745933,-0.53086033,0,0)" />
      <rect
         ry="10"
         rx="10"
         transform="matrix(0.64240867,-0.76636225,0.76636225,0.64240867,0,0)"
         y="38.713367"
         x="-11.657083"
         height="209.70424"
         width="9.3428764"
         id="rect3249"
         style="fill:#000080" />
      <rect
         ry="10"
         rx="10"
         style="fill:#ff0000"
         id="rect3251"
         width="10.62682"
         height="169.01923"
         x="228.6575"
         y="-99.450508"
         transform="matrix(0.89567303,0.44471319,-0.40028804,0.91638937,0,0)" />
      <path
         style="fill:#000080"
         d="m 29.024975,61.224477 -17.010532,-40.27455 42.121302,4.85085 c -17.537026,10.28921 -20.562069,20.77821 -25.11077,35.4237 z"
         id="path3283"
         inkscape:connector-curvature="0"
         sodipodi:nodetypes="cccc" />
      <path
         style="fill:#ff0000"
         d="M 217.74401,28.168256 255.03898,5.3541487 256.50989,47.72833 C 243.72567,31.917606 232.90331,30.487031 217.74401,28.168256 z"
         id="path3285"
         inkscape:connector-curvature="0"
         sodipodi:nodetypes="cccc" />
      <path
         sodipodi:nodetypes="cccc"
         inkscape:connector-curvature="0"
         id="rect3280"
         d="m 78.773018,251.68529 -43.674724,1.97906 19.164894,-37.82118 c 3.564887,20.01766 12.352572,26.49427 24.50983,35.84212 z"
         style="fill:#008000" />
    </g>
    <g
       style="font-size:63.13750839px;font-style:normal;font-weight:normal;line-height:125%;letter-spacing:0px;word-spacing:0px;fill:#c87137;fill-opacity:1;stroke:#000000;stroke-width:7;stroke-linecap:butt;stroke-linejoin:round;stroke-miterlimit:4;stroke-opacity:1;font-family:Sans"
       id="text2989">
      <path
         d="m 179.14772,54.559773 0,21.863829 c -8.50888,-4.069267 -16.53671,-7.102824 -24.08351,-9.10068 -7.547,-1.997561 -14.83493,-2.996415 -21.86383,-2.996565 -12.20829,1.5e-4 -21.64191,2.367804 -28.30089,7.102969 -6.585089,4.735452 -9.877608,11.468469 -9.87757,20.19907 -3.8e-5,7.325054 2.182643,12.874244 6.54805,16.647584 4.43931,3.69957 12.80009,6.69613 25.08236,8.9897 l 13.54004,2.77459 c 16.72147,3.18163 29.04067,8.80481 36.95764,16.86956 7.99071,7.99091 11.98613,18.71934 11.98626,32.18533 -1.3e-4,16.0557 -5.40135,28.22692 -16.20365,36.5137 -10.72855,8.2868 -26.48825,12.4302 -47.27914,12.4302 -7.84293,0 -16.20371,-0.88787 -25.08237,-2.66361 -8.804752,-1.77575 -17.942418,-4.40236 -27.413019,-7.87986 l 0,-23.08465 c 9.100655,5.10528 18.016353,8.95272 26.74712,11.54232 8.730679,2.58964 17.313429,3.88445 25.748269,3.88444 12.80006,10e-6 22.67762,-2.51562 29.6327,-7.54691 6.95488,-5.03124 10.43238,-12.20819 10.43248,-21.53087 -1e-4,-8.13877 -2.51574,-14.50184 -7.5469,-19.08923 -4.95738,-4.58727 -13.13318,-8.02777 -24.52744,-10.32151 L 119.9933,138.68557 C 103.27168,135.35613 91.174444,130.13989 83.701562,123.03684 76.228627,115.93397 72.492173,106.05641 72.492188,93.404139 72.492173,78.7544 77.634422,67.212086 87.91895,58.777162 c 10.358457,-8.434612 24.60138,-12.651996 42.7288,-12.652165 7.76879,1.69e-4 15.68564,0.703066 23.75056,2.108694 8.06472,1.405961 16.31452,3.514653 24.74941,6.326082"
         style="font-size:227.29502869px;fill:#c87137;stroke:#000000"
         id="path2992" />
    </g>
  </g>
</svg>
