<?xml version="1.0" encoding="UTF-8" standalone="no"?>
<!-- Created with Inkscape (http://www.inkscape.org/) -->

<svg
   xmlns:dc="http://purl.org/dc/elements/1.1/"
   xmlns:cc="http://creativecommons.org/ns#"
   xmlns:rdf="http://www.w3.org/1999/02/22-rdf-syntax-ns#"
   xmlns:svg="http://www.w3.org/2000/svg"
   xmlns="http://www.w3.org/2000/svg"
   xmlns:xlink="http://www.w3.org/1999/xlink"
   xmlns:sodipodi="http://sodipodi.sourceforge.net/DTD/sodipodi-0.dtd"
   xmlns:inkscape="http://www.inkscape.org/namespaces/inkscape"
   width="256px"
   height="256px"
   id="svg2985"
   version="1.1"
   inkscape:version="0.91 r13725"
   sodipodi:docname="tosubfile2.svg">
  <defs
     id="defs2987">
    <filter
       style="color-interpolation-filters:sRGB"
       inkscape:collect="always"
       x="-0.083650827"
       width="1.1673017"
       y="-0.4520362"
       height="1.9040724"
       id="filter5830">
      <feGaussianBlur
         inkscape:collect="always"
         stdDeviation="1.4691176"
         id="feGaussianBlur5832" />
    </filter>
    <linearGradient
       gradientTransform="matrix(2.3394814,0,0,2.3394814,141.87968,-144.17089)"
       inkscape:collect="always"
       xlink:href="#linearGradient5772"
       id="linearGradient5784"
       gradientUnits="userSpaceOnUse"
       x1="25.5"
       y1="-13.625"
       x2="26"
       y2="-39.125" />
    <linearGradient
       id="linearGradient5772">
      <stop
         id="stop5774"
         offset="0"
         style="stop-color:#e2b369;stop-opacity:1" />
      <stop
         id="stop5776"
         offset="1"
         style="stop-color:#c79b55;stop-opacity:1" />
    </linearGradient>
    <filter
       style="color-interpolation-filters:sRGB"
       inkscape:collect="always"
       x="-0.090666525"
       width="1.1813331"
       y="-0.31875175"
       height="1.6375035"
       id="filter5766">
      <feGaussianBlur
         inkscape:collect="always"
         stdDeviation="0.79295562"
         id="feGaussianBlur5768" />
    </filter>
    <linearGradient
       gradientTransform="matrix(2.3394814,0,0,2.3394814,141.87968,-144.17089)"
       inkscape:collect="always"
       xlink:href="#linearGradient5788"
       id="linearGradient5794"
       x1="24.499998"
       y1="-38.500011"
       x2="24.499998"
       y2="-1.6250113"
       gradientUnits="userSpaceOnUse" />
    <linearGradient
       inkscape:collect="always"
       id="linearGradient5788">
      <stop
         style="stop-color:#ffffff;stop-opacity:1;"
         offset="0"
         id="stop5790" />
      <stop
         style="stop-color:#ffffff;stop-opacity:0;"
         offset="1"
         id="stop5792" />
    </linearGradient>
    <linearGradient
       gradientTransform="matrix(2.3394814,0,0,2.3394814,141.87968,144.17089)"
       inkscape:collect="always"
       xlink:href="#linearGradient5586"
       id="linearGradient5592"
       x1="24.635435"
       y1="7.202693"
       x2="24.635435"
       y2="12.380689"
       gradientUnits="userSpaceOnUse" />
    <linearGradient
       id="linearGradient5586">
      <stop
         style="stop-color:#bfbcb3;stop-opacity:1;"
         offset="0"
         id="stop5588" />
      <stop
         style="stop-color:#9c988a;stop-opacity:1;"
         offset="1"
         id="stop5590" />
    </linearGradient>
    <filter
       style="color-interpolation-filters:sRGB"
       inkscape:collect="always"
       x="-0.085321061"
       width="1.1706421"
       y="-0.73719835"
       height="2.4743967"
       id="filter5670">
      <feGaussianBlur
         inkscape:collect="always"
         stdDeviation="0.38394476"
         id="feGaussianBlur5672" />
    </filter>
  </defs>
  <sodipodi:namedview
     id="base"
     pagecolor="#ffffff"
     bordercolor="#666666"
     borderopacity="1.0"
     inkscape:pageopacity="0.0"
     inkscape:pageshadow="2"
     inkscape:zoom="1"
     inkscape:cx="126"
     inkscape:cy="40"
     inkscape:current-layer="layer1"
     showgrid="true"
     inkscape:document-units="px"
     inkscape:grid-bbox="true"
     inkscape:window-width="927"
     inkscape:window-height="1028"
     inkscape:window-x="75"
     inkscape:window-y="24"
     inkscape:window-maximized="0" />
  <metadata
     id="metadata2990">
    <rdf:RDF>
      <cc:Work
         rdf:about="">
        <dc:format>image/svg+xml</dc:format>
        <dc:type
           rdf:resource="http://purl.org/dc/dcmitype/StillImage" />
        <dc:title></dc:title>
      </cc:Work>
    </rdf:RDF>
  </metadata>
  <g
     id="layer1"
     inkscape:label="Layer 1"
     inkscape:groupmode="layer">
    <g
       transform="translate(0,1.3e-6)"
       id="g3287">
      <rect
         ry="10"
         rx="10"
         style="fill:#008000"
         id="rect3253"
         width="10.613055"
         height="168.29689"
         x="-241.63284"
         y="-123.90164"
         transform="matrix(-0.61715442,-0.78684206,0.84745933,-0.53086033,0,0)" />
      <rect
         ry="10"
         rx="10"
         transform="matrix(0.64240867,-0.76636225,0.76636225,0.64240867,0,0)"
         y="38.713367"
         x="-11.657083"
         height="209.70424"
         width="9.3428764"
         id="rect3249"
         style="fill:#000080" />
      <rect
         ry="10"
         rx="10"
         style="fill:#ff0000"
         id="rect3251"
         width="10.62682"
         height="169.01923"
         x="228.6575"
         y="-99.450508"
         transform="matrix(0.89567303,0.44471319,-0.40028804,0.91638937,0,0)" />
      <path
         style="fill:#000080"
         d="m 29.024975,61.224477 -17.010532,-40.27455 42.121302,4.85085 c -17.537026,10.28921 -20.562069,20.77821 -25.11077,35.4237 z"
         id="path3283"
         inkscape:connector-curvature="0"
         sodipodi:nodetypes="cccc" />
      <path
         style="fill:#ff0000"
         d="M 217.74401,28.168256 255.03898,5.3541487 256.50989,47.72833 C 243.72567,31.917606 232.90331,30.487031 217.74401,28.168256 z"
         id="path3285"
         inkscape:connector-curvature="0"
         sodipodi:nodetypes="cccc" />
      <path
         sodipodi:nodetypes="cccc"
         inkscape:connector-curvature="0"
         id="rect3280"
         d="m 78.773018,251.68529 -43.674724,1.97906 19.164894,-37.82118 c 3.564887,20.01766 12.352572,26.49427 24.50983,35.84212 z"
         style="fill:#008000" />
    </g>
    <g
       style="font-size:63.13750839px;font-style:normal;font-weight:normal;line-height:125%;letter-spacing:0px;word-spacing:0px;fill:#c87137;fill-opacity:1;stroke:#000000;stroke-width:7;stroke-linecap:butt;stroke-linejoin:round;stroke-miterlimit:4;stroke-opacity:1;font-family:Sans"
       id="text2989">
      <path
         d="m 179.14772,54.559773 0,21.863829 c -8.50888,-4.069267 -16.53671,-7.102824 -24.08351,-9.10068 -7.547,-1.997561 -14.83493,-2.996415 -21.86383,-2.996565 -12.20829,1.5e-4 -21.64191,2.367804 -28.30089,7.102969 -6.585089,4.735452 -9.877608,11.468469 -9.87757,20.19907 -3.8e-5,7.325054 2.182643,12.874244 6.54805,16.647584 4.43931,3.69957 12.80009,6.69613 25.08236,8.9897 l 13.54004,2.77459 c 16.72147,3.18163 29.04067,8.80481 36.95764,16.86956 7.99071,7.99091 11.98613,18.71934 11.98626,32.18533 -1.3e-4,16.0557 -5.40135,28.22692 -16.20365,36.5137 -10.72855,8.2868 -26.48825,12.4302 -47.27914,12.4302 -7.84293,0 -16.20371,-0.88787 -25.08237,-2.66361 -8.804752,-1.77575 -17.942418,-4.40236 -27.413019,-7.87986 l 0,-23.08465 c 9.100655,5.10528 18.016353,8.95272 26.74712,11.54232 8.730679,2.58964 17.313429,3.88445 25.748269,3.88444 12.80006,10e-6 22.67762,-2.51562 29.6327,-7.54691 6.95488,-5.03124 10.43238,-12.20819 10.43248,-21.53087 -1e-4,-8.13877 -2.51574,-14.50184 -7.5469,-19.08923 -4.95738,-4.58727 -13.13318,-8.02777 -24.52744,-10.32151 L 119.9933,138.68557 C 103.27168,135.35613 91.174444,130.13989 83.701562,123.03684 76.228627,115.93397 72.492173,106.05641 72.492188,93.404139 72.492173,78.7544 77.634422,67.212086 87.91895,58.777162 c 10.358457,-8.434612 24.60138,-12.651996 42.7288,-12.652165 7.76879,1.69e-4 15.68564,0.703066 23.75056,2.108694 8.06472,1.405961 16.31452,3.514653 24.74941,6.326082"
         style="font-size:227.29502869px;fill:#c87137;stroke:#000000"
         id="path2992" />
    </g>
    <rect
       ry="7.272984"
       rx="4.4858322"
       y="38.438263"
       x="19.514534"
       height="6.5"
       width="35.125"
       id="rect5984"
       style="color:#000000;display:block;overflow:visible;visibility:visible;opacity:0.35294118;fill:#000000;fill-opacity:1;fill-rule:nonzero;stroke:none;stroke-width:1;marker:none;filter:url(#filter5830);enable-background:accumulate"
       transform="matrix(1.6949615,0,0,1.0454188,156.31823,198.63507)" />
    <rect
       style="color:#000000;display:block;overflow:visible;visibility:visible;opacity:0.41764706;fill:#000000;fill-opacity:1;fill-rule:nonzero;stroke:none;stroke-width:1;marker:none;filter:url(#filter5830);enable-background:accumulate"
       id="rect5796"
       width="35.125"
       height="6.5"
       x="6.8749995"
       y="35.875"
       rx="3.2499998"
       ry="5.28125"
       transform="matrix(2.3394814,0,0,1.4396808,141.87968,181.13021)" />
    <rect
       style="color:#000000;display:block;overflow:visible;visibility:visible;fill:url(#linearGradient5784);fill-opacity:1;fill-rule:nonzero;stroke:#8f5902;stroke-width:2.33948135;stroke-linecap:butt;stroke-linejoin:miter;stroke-miterlimit:4;stroke-dasharray:none;stroke-dashoffset:0;stroke-opacity:1;marker:none;enable-background:accumulate"
       id="rect4613"
       width="70.184433"
       height="74.863403"
       x="164.10478"
       y="-238.91989"
       rx="6.4335728"
       ry="6.4335737"
       transform="scale(1,-1)" />
    <path
       inkscape:connector-curvature="0"
       sodipodi:nodetypes="ccccccccc"
       id="path5674"
       d="m 16.722015,14.506832 15.632463,0 c 0.972272,0.04419 1.026805,-1.889084 1.026805,-1.889084 l -2.88421,-2.310477 0.0091,-0.7545235 c 0,0 -12.01513,-0.02055 -12.01513,-0.02055 l 0,0.8902015 -2.600867,2.242637 c 0,0 -0.05203,1.797602 0.83185,1.841796 z"
       style="color:#000000;display:block;overflow:visible;visibility:visible;opacity:0.44117647;fill:#000000;fill-opacity:1;fill-rule:nonzero;stroke:none;stroke-width:1;marker:none;filter:url(#filter5766);enable-background:accumulate"
       transform="matrix(2.4570342,0,0,2.4570342,138.98372,140.27223)" />
    <rect
       transform="scale(1,-1)"
       ry="2.9243505"
       rx="2.9243505"
       y="-236.08701"
       x="166.7606"
       height="69.197601"
       width="64.872749"
       id="rect5786"
       style="color:#000000;display:block;overflow:visible;visibility:visible;opacity:0.41764706;fill:none;stroke:url(#linearGradient5794);stroke-width:2.33948135;stroke-linecap:butt;stroke-linejoin:miter;stroke-miterlimit:4;stroke-dasharray:none;stroke-dashoffset:0;stroke-opacity:1;marker:none;enable-background:accumulate" />
    <path
       inkscape:connector-curvature="0"
       style="color:#000000;display:block;overflow:visible;visibility:visible;fill:url(#linearGradient5592);fill-opacity:1;fill-rule:nonzero;stroke:#555753;stroke-width:2.33948135;stroke-linecap:butt;stroke-linejoin:miter;stroke-miterlimit:4;stroke-dasharray:none;stroke-dashoffset:0;stroke-opacity:1;marker:none;enable-background:accumulate"
       d="m 181.00052,173.4304 36.57185,0 c 2.27462,0.10342 2.40221,-4.41949 2.40221,-4.41949 l -6.74756,-5.40529 0.021,-8.78366 c 0,-1.92448 -1.61848,-4.52287 -3.97433,-4.52287 l -19.93248,-0.20681 c -2.83646,0 -4.20236,2.77965 -4.20236,4.68158 l 0,9.10105 -6.08469,5.24662 c 0,0 -0.12165,4.20545 1.9461,4.30883 z"
       id="path5584"
       sodipodi:nodetypes="ccccccccccc" />
    <rect
       style="color:#000000;display:block;overflow:visible;visibility:visible;opacity:0.46470588;fill:#ffffff;fill-opacity:1;fill-rule:nonzero;stroke:none;stroke-width:1;marker:none;enable-background:accumulate"
       id="rect5594"
       width="35.09222"
       height="2.4368792"
       x="181.65088"
       y="167.5657"
       rx="1.2184396"
       ry="1.2184396" />
    <rect
       ry="0.52081609"
       rx="0.52081609"
       y="135.72105"
       x="114.50581"
       height="1.0416322"
       width="9"
       id="rect5596"
       style="color:#000000;display:block;overflow:visible;visibility:visible;opacity:0.53529412;fill:#ffffff;fill-opacity:1;fill-rule:nonzero;stroke:none;stroke-width:1;marker:none;filter:url(#filter5670);enable-background:accumulate"
       transform="matrix(2.3394814,0,0,2.3394814,-79.214883,-163.98806)" />
    <g
       id="g5646"
       transform="matrix(1.2760811,0,0,1.2760811,241.21189,187.40852)">
      <g
         inkscape:label="Shadow"
         id="layer6"
         transform="matrix(1.1,0,0,1,-43.74165,5.918957)">
        <g
           transform="matrix(1,0,0,0.555556,-4.549998e-7,13.88887)"
           inkscape:label="Shadow"
           id="g2043">
          <g
             inkscape:label="Shadow"
             id="g2036"
             style="display:inline">
            <g
               transform="matrix(1.052632,0,0,1.285713,-1.263158,-13.42854)"
               style="opacity:0.4"
               id="g3712" />
          </g>
        </g>
        <g
           transform="translate(50.6887,6.21499)"
           style="display:inline"
           inkscape:label="pixmap"
           id="g2285" />
        <g
           id="g891"
           transform="matrix(0.186703,0,0,0.186703,29.5814,63.83798)" />
      </g>
      <g
         id="g5657"
         inkscape:label="Base"
         style="display:inline" />
      <g
         style="display:inline"
         inkscape:label="Text"
         id="layer5">
        <rect
           inkscape:r_cy="true"
           inkscape:r_cx="true"
           ry="2.6242814"
           rx="2.6242812"
           y="5.4189425"
           x="-36.591621"
           height="38.499989"
           width="38.499989"
           id="rect2373"
           style="color:#000000;display:inline;overflow:visible;visibility:visible;fill:#ffffff;fill-opacity:1;fill-rule:evenodd;stroke:#939393;stroke-width:1.8333329;stroke-linecap:butt;stroke-linejoin:miter;stroke-miterlimit:4;stroke-dasharray:none;stroke-dashoffset:0;stroke-opacity:1;marker:none" />
        <rect
           style="color:#000000;display:inline;overflow:visible;visibility:visible;opacity:1;fill:none;stroke:#ffffff;stroke-width:1.83327007;stroke-linecap:butt;stroke-linejoin:miter;stroke-miterlimit:4;stroke-dasharray:none;stroke-dashoffset:0;stroke-opacity:1;marker:none"
           id="rect2423"
           width="34.833324"
           height="34.833324"
           x="-34.758289"
           y="7.252274"
           rx="1.0501657"
           ry="1.0501654"
           inkscape:r_cx="true"
           inkscape:r_cy="true" />
      </g>
    </g>
    <rect
       style="color:#000000;display:inline;overflow:visible;visibility:visible;fill:#adaeab;fill-opacity:1;fill-rule:evenodd;stroke:none;stroke-width:1;marker:none;enable-background:accumulate"
       id="rect6916"
       width="37.431705"
       height="4.8251815"
       x="200.36671"
       y="202.51172"
       rx="0"
       ry="0"
       inkscape:r_cx="true"
       inkscape:r_cy="true" />
    <rect
       style="color:#000000;display:inline;overflow:visible;visibility:visible;fill:#adaeab;fill-opacity:1;fill-rule:evenodd;stroke:none;stroke-width:1;marker:none;enable-background:accumulate"
       id="rect5972"
       width="37.431705"
       height="4.8251815"
       x="200.36671"
       y="211.86963"
       rx="0"
       ry="0"
       inkscape:r_cx="true"
       inkscape:r_cy="true" />
    <rect
       style="color:#000000;display:inline;overflow:visible;visibility:visible;fill:#adaeab;fill-opacity:1;fill-rule:evenodd;stroke:none;stroke-width:1;marker:none;enable-background:accumulate"
       id="rect5976"
       width="37.431705"
       height="4.6954427"
       x="200.36671"
       y="221.35732"
       rx="0"
       ry="0"
       inkscape:r_cx="true"
       inkscape:r_cy="true" />
    <rect
       style="color:#000000;display:inline;overflow:visible;visibility:visible;fill:#adaeab;fill-opacity:1;fill-rule:evenodd;stroke:none;stroke-width:1;marker:none;enable-background:accumulate"
       id="rect5980"
       width="21.055334"
       height="4.8251815"
       x="200.36671"
       y="230.58548"
       rx="0"
       ry="0"
       inkscape:r_cx="true"
       inkscape:r_cy="true" />
  </g>
</svg>
