<?xml version="1.0" encoding="UTF-8" standalone="no"?>
<!-- Created with Inkscape (http://www.inkscape.org/) -->

<svg
   xmlns:dc="http://purl.org/dc/elements/1.1/"
   xmlns:cc="http://creativecommons.org/ns#"
   xmlns:rdf="http://www.w3.org/1999/02/22-rdf-syntax-ns#"
   xmlns:svg="http://www.w3.org/2000/svg"
   xmlns="http://www.w3.org/2000/svg"
   xmlns:xlink="http://www.w3.org/1999/xlink"
   xmlns:sodipodi="http://sodipodi.sourceforge.net/DTD/sodipodi-0.dtd"
   xmlns:inkscape="http://www.inkscape.org/namespaces/inkscape"
   width="256px"
   height="256px"
   id="svg4360"
   version="1.1"
   inkscape:version="0.48.4 r9939"
   sodipodi:docname="New document 16">
  <defs
     id="defs4362">
    <radialGradient
       inkscape:collect="always"
       xlink:href="#linearGradient8662"
       id="radialGradient2782"
       gradientUnits="userSpaceOnUse"
       gradientTransform="matrix(1,0,0,0.536723,0,16.87306)"
       cx="24.837126"
       cy="36.421127"
       fx="24.837126"
       fy="36.421127"
       r="15.644737" />
    <linearGradient
       inkscape:collect="always"
       id="linearGradient8662">
      <stop
         style="stop-color:#000000;stop-opacity:1;"
         offset="0"
         id="stop8664" />
      <stop
         style="stop-color:#000000;stop-opacity:0;"
         offset="1"
         id="stop8666" />
    </linearGradient>
    <linearGradient
       inkscape:collect="always"
       xlink:href="#linearGradient5132"
       id="linearGradient2786"
       gradientUnits="userSpaceOnUse"
       x1="21.67729"
       y1="29.705048"
       x2="18.072493"
       y2="55.692348" />
    <linearGradient
       inkscape:collect="always"
       id="linearGradient5132">
      <stop
         style="stop-color:white;stop-opacity:1;"
         offset="0"
         id="stop5134" />
      <stop
         style="stop-color:white;stop-opacity:0;"
         offset="1"
         id="stop5136" />
    </linearGradient>
    <linearGradient
       inkscape:collect="always"
       xlink:href="#linearGradient5891"
       id="linearGradient2788"
       gradientUnits="userSpaceOnUse"
       gradientTransform="matrix(-1.430635,0,0,1.430157,50.64595,2.354766)"
       x1="15.456784"
       y1="8.734375"
       x2="25.561066"
       y2="13.526372" />
    <linearGradient
       inkscape:collect="always"
       id="linearGradient5891">
      <stop
         style="stop-color:#ffffff;stop-opacity:1;"
         offset="0"
         id="stop5893" />
      <stop
         style="stop-color:#ffffff;stop-opacity:0;"
         offset="1"
         id="stop5895" />
    </linearGradient>
    <linearGradient
       y2="13.526372"
       x2="25.561066"
       y1="8.734375"
       x1="15.456784"
       gradientTransform="matrix(-1.430635,0,0,1.430157,50.64595,2.354766)"
       gradientUnits="userSpaceOnUse"
       id="linearGradient4395"
       xlink:href="#linearGradient5891"
       inkscape:collect="always" />
  </defs>
  <sodipodi:namedview
     id="base"
     pagecolor="#ffffff"
     bordercolor="#666666"
     borderopacity="1.0"
     inkscape:pageopacity="0.0"
     inkscape:pageshadow="2"
     inkscape:zoom="0.24306796"
     inkscape:cx="-645.15153"
     inkscape:cy="451.22311"
     inkscape:current-layer="layer1"
     showgrid="true"
     inkscape:document-units="px"
     inkscape:grid-bbox="true"
     inkscape:window-width="927"
     inkscape:window-height="1028"
     inkscape:window-x="65"
     inkscape:window-y="24"
     inkscape:window-maximized="0" />
  <metadata
     id="metadata4365">
    <rdf:RDF>
      <cc:Work
         rdf:about="">
        <dc:format>image/svg+xml</dc:format>
        <dc:type
           rdf:resource="http://purl.org/dc/dcmitype/StillImage" />
        <dc:title></dc:title>
      </cc:Work>
    </rdf:RDF>
  </metadata>
  <g
     id="layer1"
     inkscape:label="Layer 1"
     inkscape:groupmode="layer">
    <g
       style="display:inline"
       id="g2776"
       transform="matrix(-5.5660827,0,0,5.5660827,257.59149,-11.718876)">
      <path
         sodipodi:type="arc"
         style="opacity:0.12999998;color:#000000;fill:url(#radialGradient2782);fill-opacity:1;fill-rule:evenodd;stroke:none;stroke-width:1;marker:none;visibility:visible;display:inline;overflow:visible"
         id="path8660"
         sodipodi:cx="24.837126"
         sodipodi:cy="36.421127"
         sodipodi:rx="15.644737"
         sodipodi:ry="8.3968935"
         d="m 40.481863,36.421127 c 0,4.637477 -7.004387,8.396894 -15.644737,8.396894 -8.64035,0 -15.6447375,-3.759417 -15.6447375,-8.396894 0,-4.637476 7.0043875,-8.396893 15.6447375,-8.396893 8.64035,0 15.644737,3.759417 15.644737,8.396893 z"
         transform="matrix(1.47967,0,0,-0.872353,-13.55145,72.5668)" />
      <path
         sodipodi:nodetypes="ccccccss"
         id="path1432"
         d="M 17.424821,41.893434 C 0.283744,32.442251 9.935604,12.409146 26.422371,12.56649 l 0,-8.0664906 L 42.5,18.558177 26.422371,33.301549 c 0,0 0,-8.729032 0,-8.729032 -10.234617,-0.415164 -14.741673,7.26702 -5.772326,13.363448 2.567094,1.744847 0.788778,6.170696 -3.225224,3.957469 z"
         style="color:#000000;fill:#000080;fill-opacity:1;fill-rule:nonzero;stroke:#e8e1ff;stroke-width:0.99999887;stroke-linecap:butt;stroke-linejoin:miter;stroke-miterlimit:4;stroke-opacity:1;stroke-dasharray:none;stroke-dashoffset:0;marker:none;visibility:visible;display:block;overflow:visible"
         inkscape:connector-curvature="0" />
      <path
         id="path4247"
         d="m 27.4375,6.6875 0,5.875 c -0.0084,0.548754 -0.451246,0.991567 -1,1 C 18.60766,13.487775 12.455124,18.243926 10.28125,24 8.1073762,29.756074 9.7034903,36.491213 17.9375,41.03125 c 0.850178,0.468768 1.465824,0.515729 1.875,0.4375 0.409176,-0.07823 0.667607,-0.297065 0.84375,-0.59375 0.352286,-0.593371 0.30018,-1.507389 -0.5625,-2.09375 -2.357244,-1.602209 -3.908933,-3.351016 -4.6875,-5.15625 -0.778567,-1.805234 -0.739824,-3.672336 0.03125,-5.25 1.542149,-3.155327 5.65403,-5.030625 11.03125,-4.8125 0.536516,0.02478 0.961006,0.462968 0.96875,1 0,0 0,3.934101 0,6.4375 L 41,18.5625 27.4375,6.6875 z"
         style="opacity:0.61797755;color:#000000;fill:none;stroke:url(#linearGradient2786);stroke-width:0.99999893;stroke-linecap:butt;stroke-linejoin:miter;stroke-miterlimit:4;stroke-opacity:1;stroke-dashoffset:0;marker:none;visibility:visible;display:block;overflow:visible"
         inkscape:connector-curvature="0" />
      <path
         sodipodi:nodetypes="ccccc"
         id="path4920"
         d="M 41.660227,18.605336 C 23.110128,15.475328 12.765166,20.754837 8.865084,29.04107 8.711319,16.398198 21.828491,12.721185 26.954933,13.108518 L 26.939308,5.6020321 41.660227,18.605336 z"
         style="opacity:0.45;fill:url(#linearGradient4395);fill-opacity:1;fill-rule:evenodd;stroke:none"
         inkscape:connector-curvature="0" />
    </g>
  </g>
</svg>
