<?xml version="1.0" encoding="UTF-8" standalone="no"?>
<!-- Created with Inkscape (http://www.inkscape.org/) -->

<svg
   xmlns:dc="http://purl.org/dc/elements/1.1/"
   xmlns:cc="http://creativecommons.org/ns#"
   xmlns:rdf="http://www.w3.org/1999/02/22-rdf-syntax-ns#"
   xmlns:svg="http://www.w3.org/2000/svg"
   xmlns="http://www.w3.org/2000/svg"
   xmlns:xlink="http://www.w3.org/1999/xlink"
   xmlns:sodipodi="http://sodipodi.sourceforge.net/DTD/sodipodi-0.dtd"
   xmlns:inkscape="http://www.inkscape.org/namespaces/inkscape"
   width="256px"
   height="256px"
   id="svg2985"
   version="1.1"
   inkscape:version="0.48.4 r9939"
   sodipodi:docname="addcomment.svg">
  <defs
     id="defs2987">
    <linearGradient
       inkscape:collect="always"
       xlink:href="#linearGradient3170"
       id="linearGradient3176"
       x1="138.54547"
       y1="72.72728"
       x2="110.54545"
       y2="180.36363"
       gradientUnits="userSpaceOnUse" />
    <linearGradient
       inkscape:collect="always"
       id="linearGradient3170">
      <stop
         style="stop-color:#00ff00;stop-opacity:1"
         offset="0"
         id="stop3172" />
      <stop
         style="stop-color:#17280b;stop-opacity:1"
         offset="1"
         id="stop3174" />
    </linearGradient>
    <linearGradient
       y2="180.36363"
       x2="110.54545"
       y1="72.72728"
       x1="138.54547"
       gradientUnits="userSpaceOnUse"
       id="linearGradient3025"
       xlink:href="#linearGradient3170"
       inkscape:collect="always" />
    <linearGradient
       inkscape:collect="always"
       xlink:href="#linearGradient3170-3"
       id="linearGradient3423"
       gradientUnits="userSpaceOnUse"
       x1="138.54547"
       y1="72.72728"
       x2="110.54545"
       y2="180.36363" />
    <linearGradient
       id="linearGradient3170-3">
      <stop
         style="stop-color:#c0ffc0;stop-opacity:1;"
         offset="0"
         id="stop3172-1" />
      <stop
         style="stop-color:#73c837;stop-opacity:1;"
         offset="1"
         id="stop3174-7" />
    </linearGradient>
    <linearGradient
       y2="180.36363"
       x2="110.54545"
       y1="72.72728"
       x1="138.54547"
       gradientUnits="userSpaceOnUse"
       id="linearGradient3450"
       xlink:href="#linearGradient3170-3"
       inkscape:collect="always" />
  </defs>
  <sodipodi:namedview
     id="base"
     pagecolor="#ffffff"
     bordercolor="#666666"
     borderopacity="1.0"
     inkscape:pageopacity="0.0"
     inkscape:pageshadow="2"
     inkscape:zoom="1"
     inkscape:cx="162.91995"
     inkscape:cy="46.571501"
     inkscape:current-layer="layer1"
     showgrid="true"
     inkscape:document-units="px"
     inkscape:grid-bbox="true"
     inkscape:window-width="927"
     inkscape:window-height="1028"
     inkscape:window-x="75"
     inkscape:window-y="24"
     inkscape:window-maximized="0" />
  <metadata
     id="metadata2990">
    <rdf:RDF>
      <cc:Work
         rdf:about="">
        <dc:format>image/svg+xml</dc:format>
        <dc:type
           rdf:resource="http://purl.org/dc/dcmitype/StillImage" />
        <dc:title />
      </cc:Work>
    </rdf:RDF>
  </metadata>
  <g
     id="layer1"
     inkscape:label="Layer 1"
     inkscape:groupmode="layer">
    <path
       style="fill:#ffffff;fill-opacity:1;stroke:#000000;stroke-width:14.60162544;stroke-linejoin:round;stroke-miterlimit:4;stroke-opacity:1;stroke-dasharray:none"
       inkscape:transform-center-x="2.2177581"
       inkscape:transform-center-y="0.93107326"
       d="m 159.80754,9.4369297 c 16.65045,2.7549713 14.11242,17.0377773 28.99554,21.9232143 14.88313,4.885427 19.27916,-11.314406 31.48484,-3.943953 12.2057,7.370444 -11.54086,16.109909 -3.5126,25.426669 8.02828,9.316749 27.08164,4.275538 30.10045,14.271649 3.01879,9.9961 -13.15783,8.04311 -12.32408,18.465207 0.83376,10.422096 19.60215,3.17953 14.13586,12.852781 -5.4663,9.673223 -21.82476,8.494923 -29.72393,17.798833 -7.89918,9.30386 -0.74071,8.38696 -8.55602,19.45758 -16.00828,22.67621 17.80609,49.35441 2.79637,54.49755 -15.00968,5.14316 -34.79791,-37.18519 -51.68368,-34.56162 -16.88581,2.62356 -14.47965,-11.4684 -31.75601,-12.04795 -17.27634,-0.57954 -11.58245,12.6047 -28.57945,9.3638 -16.997003,-3.24089 -4.824277,-14.24571 -19.207793,-19.93625 -14.383512,-5.69052 -31.720304,4.37524 -43.783407,-3.33462 -12.063106,-7.70987 12.326682,-9.18631 3.512596,-18.1481 C 32.892141,102.55994 16.649235,106.95881 11.605801,97.250073 6.5623677,87.541357 25.005789,89.159314 23.929867,78.784867 22.853946,68.410422 6.3535505,72.25072 10.009197,62.064255 13.664845,51.877789 31.753437,60.146322 39.72047,50.915235 47.6875,41.684148 28.119186,34.198381 40.061057,26.390412 52.002933,18.582443 62.338075,33.925294 78.21952,29.104623 94.10096,24.283961 81.428728,14.342637 98.741932,12.068634 116.05513,9.7946234 120.43869,23.366435 137.45453,23.284357 154.47038,23.202275 143.15707,6.6819581 159.80754,9.4369297 z"
       id="path3835"
       inkscape:connector-curvature="0"
       sodipodi:nodetypes="sssssssssssssssssssssssss" />
    <g
       style="font-size:40px;font-style:normal;font-weight:normal;line-height:125%;letter-spacing:0px;word-spacing:0px;fill:#000000;fill-opacity:1;stroke:none;font-family:Sans"
       id="text3004">
      <path
         d="m 65.886719,55.1875 c -3.656269,4.8e-5 -6.410173,1.804734 -8.261719,5.414062 -1.828138,3.585977 -2.742199,8.988315 -2.742188,16.207032 -1.1e-5,7.195331 0.91405,12.59767 2.742188,16.207031 1.851546,3.585944 4.60545,5.378911 8.261719,5.378906 3.679661,5e-6 6.433564,-1.792962 8.261718,-5.378906 1.85153,-3.609361 2.77731,-9.0117 2.777344,-16.207031 C 76.925747,69.589877 75.999967,64.187539 74.148437,60.601562 72.320283,56.992234 69.56638,55.187548 65.886719,55.1875 m 0,-5.625 c 5.882783,5.3e-5 10.37106,2.332082 13.464843,6.996094 3.117149,4.640667 4.675741,11.39066 4.675782,20.25 -4.1e-5,8.835955 -1.558633,15.585948 -4.675782,20.25 -3.093783,4.640626 -7.58206,6.960936 -13.464843,6.960936 -5.88283,0 -10.382825,-2.32031 -13.5,-6.960936 -3.093757,-4.664052 -4.64063,-11.414045 -4.640625,-20.25 -5e-6,-8.85934 1.546868,-15.609333 4.640625,-20.25 3.117175,-4.664012 7.61717,-6.996041 13.5,-6.996094"
         style="font-size:72px;font-variant:normal;font-stretch:normal;font-family:DejaVu Sans;-inkscape-font-specification:DejaVu Sans"
         id="path3099" />
      <path
         d="m 130.04687,50.511719 5.97657,0 -18.28125,59.167971 -5.97656,0 18.28124,-59.167971"
         style="font-size:72px;font-variant:normal;font-stretch:normal;font-family:DejaVu Sans;-inkscape-font-specification:DejaVu Sans"
         id="path3101" />
      <path
         d="m 154.375,50.511719 5.97656,0 -18.28125,59.167971 -5.97656,0 18.28125,-59.167971"
         style="font-size:72px;font-variant:normal;font-stretch:normal;font-family:DejaVu Sans;-inkscape-font-specification:DejaVu Sans"
         id="path3103" />
      <path
         d="m 168.12109,94.070312 7.41797,0 0,8.929688 -7.41797,0 0,-8.929688"
         style="font-size:72px;font-variant:normal;font-stretch:normal;font-family:DejaVu Sans;-inkscape-font-specification:DejaVu Sans"
         id="path3105" />
      <path
         d="m 191.04297,94.070312 7.41797,0 0,8.929688 -7.41797,0 0,-8.929688"
         style="font-size:72px;font-variant:normal;font-stretch:normal;font-family:DejaVu Sans;-inkscape-font-specification:DejaVu Sans"
         id="path3107" />
      <path
         d="m 213.96484,94.070312 7.41797,0 0,8.929688 -7.41797,0 0,-8.929688"
         style="font-size:72px;font-variant:normal;font-stretch:normal;font-family:DejaVu Sans;-inkscape-font-specification:DejaVu Sans"
         id="path3109" />
    </g>
    <flowRoot
       xml:space="preserve"
       id="flowRoot3008"
       style="fill:black;stroke:none;stroke-opacity:1;stroke-width:1px;stroke-linejoin:miter;stroke-linecap:butt;fill-opacity:1;font-family:Sans;font-style:normal;font-weight:normal;font-size:40px;line-height:125%;letter-spacing:0px;word-spacing:0px"><flowRegion
         id="flowRegion3010"><rect
           id="rect3012"
           width="141"
           height="66"
           x="81"
           y="-171" /></flowRegion><flowPara
         id="flowPara3014" /></flowRoot>    <path
       sodipodi:type="arc"
       style="fill:#ffffff;fill-opacity:1;stroke:#000000;stroke-width:15.00699997;stroke-linejoin:round;stroke-miterlimit:4;stroke-opacity:1;stroke-dasharray:none"
       id="path3838"
       sodipodi:cx="219.5"
       sodipodi:cy="231.5"
       sodipodi:rx="12.5"
       sodipodi:ry="12.5"
       d="m 232,231.5 a 12.5,12.5 0 1 1 -25,0 12.5,12.5 0 1 1 25,0 z"
       transform="matrix(0.50008748,0,0,0.50008748,119.7308,94.72975)" />
    <path
       sodipodi:type="arc"
       style="fill:#ffffff;fill-opacity:1;stroke:#000000;stroke-width:15.00699997;stroke-linejoin:round;stroke-miterlimit:4;stroke-opacity:1;stroke-dasharray:none"
       id="path3838-1"
       sodipodi:cx="219.5"
       sodipodi:cy="231.5"
       sodipodi:rx="12.5"
       sodipodi:ry="12.5"
       d="m 232,231.5 a 12.5,12.5 0 1 1 -25,0 12.5,12.5 0 1 1 25,0 z"
       transform="matrix(0.40010498,0,0,0.40010498,160.17696,136.3757)" />
    <g
       transform="translate(-55,53.999998)"
       id="g3427">
      <rect
         transform="matrix(0,1,-1,0,0,0)"
         style="fill:#000000"
         id="rect3105"
         width="41.454544"
         height="135.27272"
         x="111.63636"
         y="-192.36363"
         rx="10"
         ry="10" />
      <rect
         ry="10"
         rx="10"
         y="64.727272"
         x="104"
         height="135.27272"
         width="41.454544"
         id="rect3103"
         style="fill:#000000" />
      <path
         sodipodi:nodetypes="ssczzzzcsssscsssscsss"
         inkscape:connector-curvature="0"
         id="rect3105-6"
         d="m 117.09375,71.28125 c -3.75291,0 -6.78125,4.027379 -6.78125,9.03125 0,12.666667 0,38 0,38 0,0 -31.498064,0 -38,0 -6.501936,0 -9.03125,2.48412 -9.03125,5.45148 0,2.96736 0,11.80275 0,15.86102 0,4.05827 0.559617,6.78125 9.03125,6.78125 8.471633,0 25.333333,0 38,0 0,12.67708 0,25.35417 0,38.03125 0,5.00387 3.02834,9.03125 6.78125,9.03125 l 14.53125,0 c 3.7529,0 6.78125,-4.02738 6.78125,-9.03125 l 0,-38.03125 c 0,0 25.35417,0 38.03125,0 5.00387,0 9.03125,-3.02834 9.03125,-6.78125 l 0,-14.53125 c 0,-3.7529 -4.02738,-6.78125 -9.03125,-6.78125 -12.67708,0 -38.03125,0 -38.03125,0 0,0 0,-25.333333 0,-38 0,-5.003871 -3.02835,-9.03125 -6.78125,-9.03125 z"
         style="fill:url(#linearGradient3450);fill-opacity:1" />
    </g>
  </g>
</svg>
