<?xml version="1.0" encoding="UTF-8" standalone="no"?>
<!-- Created with Inkscape (http://www.inkscape.org/) -->

<svg
   xmlns:dc="http://purl.org/dc/elements/1.1/"
   xmlns:cc="http://creativecommons.org/ns#"
   xmlns:rdf="http://www.w3.org/1999/02/22-rdf-syntax-ns#"
   xmlns:svg="http://www.w3.org/2000/svg"
   xmlns="http://www.w3.org/2000/svg"
   xmlns:xlink="http://www.w3.org/1999/xlink"
   xmlns:sodipodi="http://sodipodi.sourceforge.net/DTD/sodipodi-0.dtd"
   xmlns:inkscape="http://www.inkscape.org/namespaces/inkscape"
   width="256px"
   height="256px"
   id="svg4866"
   version="1.1"
   inkscape:version="0.48.4 r9939"
   sodipodi:docname="document-save.svg">
  <defs
     id="defs4868">
    <radialGradient
       inkscape:collect="always"
       xlink:href="#linearGradient2453"
       id="radialGradient2459"
       cx="26"
       cy="39.75"
       fx="26"
       fy="39.75"
       r="24.25"
       gradientTransform="matrix(1,0,0,0.175258,0,32.78351)"
       gradientUnits="userSpaceOnUse" />
    <linearGradient
       inkscape:collect="always"
       id="linearGradient2453">
      <stop
         style="stop-color:#000000;stop-opacity:1;"
         offset="0"
         id="stop2455" />
      <stop
         style="stop-color:#000000;stop-opacity:0;"
         offset="1"
         id="stop2457" />
    </linearGradient>
    <linearGradient
       inkscape:collect="always"
       xlink:href="#linearGradient2223"
       id="linearGradient2502"
       gradientUnits="userSpaceOnUse"
       x1="43.375"
       y1="-9.375"
       x2="21.125"
       y2="31.75"
       gradientTransform="matrix(-4.9563054,0,0,-4.9563054,237.03876,250.88407)" />
    <linearGradient
       inkscape:collect="always"
       id="linearGradient2223">
      <stop
         style="stop-color:#3465a4"
         offset="0"
         id="stop2225" />
      <stop
         style="stop-color:#729fcf"
         offset="1"
         id="stop2227" />
    </linearGradient>
    <linearGradient
       inkscape:collect="always"
       xlink:href="#linearGradient2388"
       id="linearGradient2499"
       gradientUnits="userSpaceOnUse"
       x1="33.349056"
       y1="28.69302"
       x2="35.974056"
       y2="33.049397"
       gradientTransform="matrix(-4.9563054,0,0,-4.9563054,237.03876,250.88407)" />
    <linearGradient
       id="linearGradient2388"
       inkscape:collect="always">
      <stop
         id="stop2390"
         offset="0"
         style="stop-color:#204a87" />
      <stop
         id="stop2392"
         offset="1"
         style="stop-color:#204a87;stop-opacity:0.3984375" />
    </linearGradient>
    <linearGradient
       inkscape:collect="always"
       xlink:href="#linearGradient2207"
       id="linearGradient2496"
       gradientUnits="userSpaceOnUse"
       x1="10.875"
       y1="11.5"
       x2="47"
       y2="47.375"
       gradientTransform="matrix(-4.9563054,0,0,-4.9563054,237.03876,250.88407)" />
    <linearGradient
       inkscape:collect="always"
       id="linearGradient2207">
      <stop
         style="stop-color:#ffffff;stop-opacity:1;"
         offset="0"
         id="stop2209" />
      <stop
         style="stop-color:#ffffff;stop-opacity:0;"
         offset="1"
         id="stop2211" />
    </linearGradient>
    <linearGradient
       inkscape:collect="always"
       xlink:href="#linearGradient2238"
       id="linearGradient2493"
       gradientUnits="userSpaceOnUse"
       x1="34.840229"
       y1="38.464149"
       x2="30.685976"
       y2="29"
       gradientTransform="matrix(-4.9563054,0,0,-4.9563054,237.03876,250.88407)" />
    <linearGradient
       inkscape:collect="always"
       id="linearGradient2238">
      <stop
         style="stop-color:#ffffff;stop-opacity:1;"
         offset="0"
         id="stop2240" />
      <stop
         style="stop-color:#ffffff;stop-opacity:0;"
         offset="1"
         id="stop2242" />
    </linearGradient>
    <linearGradient
       inkscape:collect="always"
       xlink:href="#linearGradient2294"
       id="linearGradient2490"
       gradientUnits="userSpaceOnUse"
       x1="18.75"
       y1="27.654568"
       x2="18.826717"
       y2="36.774681"
       gradientTransform="matrix(4.9563055,0,0,4.9563055,-237.03876,-250.88407)" />
    <linearGradient
       inkscape:collect="always"
       id="linearGradient2294">
      <stop
         style="stop-color:#3465a4"
         offset="0"
         id="stop2296" />
      <stop
         style="stop-color:#3465a4;stop-opacity:0"
         offset="1"
         id="stop2298" />
    </linearGradient>
    <linearGradient
       inkscape:collect="always"
       xlink:href="#linearGradient2356"
       id="linearGradient2487"
       gradientUnits="userSpaceOnUse"
       x1="10"
       y1="27.996471"
       x2="31"
       y2="42"
       gradientTransform="matrix(-4.9563054,0,0,-4.9563054,237.03876,250.88407)" />
    <linearGradient
       id="linearGradient2356">
      <stop
         style="stop-color:#8a9580;stop-opacity:1;"
         offset="0"
         id="stop2358" />
      <stop
         id="stop2364"
         offset="0.38488522"
         style="stop-color:#dcded9;stop-opacity:1;" />
      <stop
         style="stop-color:#b8bcb4;stop-opacity:1;"
         offset="0.6339286"
         id="stop2366" />
      <stop
         id="stop2368"
         offset="0.8214286"
         style="stop-color:#d7d9d5;stop-opacity:1;" />
      <stop
         style="stop-color:#babdb6"
         offset="1"
         id="stop2360" />
    </linearGradient>
    <linearGradient
       inkscape:collect="always"
       xlink:href="#linearGradient2319"
       id="linearGradient2480"
       gradientUnits="userSpaceOnUse"
       x1="20.484835"
       y1="35"
       x2="27.375"
       y2="42.125"
       gradientTransform="matrix(-4.9563054,0,0,-4.9563054,237.03876,250.88407)" />
    <linearGradient
       inkscape:collect="always"
       id="linearGradient2319">
      <stop
         style="stop-color:#ffffff;stop-opacity:1;"
         offset="0"
         id="stop2321" />
      <stop
         style="stop-color:#ffffff;stop-opacity:0;"
         offset="1"
         id="stop2323" />
    </linearGradient>
    <linearGradient
       inkscape:collect="always"
       xlink:href="#linearGradient2249"
       id="linearGradient2477"
       gradientUnits="userSpaceOnUse"
       x1="37.625"
       y1="7.625"
       x2="37.625"
       y2="3.4829895"
       gradientTransform="matrix(-4.9563054,0,0,-4.9563054,237.03876,250.88407)" />
    <linearGradient
       inkscape:collect="always"
       id="linearGradient2249">
      <stop
         style="stop-color:#204a87;stop-opacity:1;"
         offset="0"
         id="stop2251" />
      <stop
         style="stop-color:#204a87;stop-opacity:0;"
         offset="1"
         id="stop2253" />
    </linearGradient>
    <radialGradient
       r="24.25"
       fy="39.75"
       fx="26"
       cy="39.75"
       cx="26"
       gradientTransform="matrix(1,0,0,0.175258,0,32.78351)"
       gradientUnits="userSpaceOnUse"
       id="radialGradient4864"
       xlink:href="#linearGradient2453"
       inkscape:collect="always" />
  </defs>
  <sodipodi:namedview
     id="base"
     pagecolor="#ffffff"
     bordercolor="#666666"
     borderopacity="1.0"
     inkscape:pageopacity="0.0"
     inkscape:pageshadow="2"
     inkscape:zoom="0.12153398"
     inkscape:cx="-403.72801"
     inkscape:cy="285.92168"
     inkscape:current-layer="layer1"
     showgrid="true"
     inkscape:document-units="px"
     inkscape:grid-bbox="true"
     inkscape:window-width="475"
     inkscape:window-height="383"
     inkscape:window-x="1094"
     inkscape:window-y="434"
     inkscape:window-maximized="0" />
  <metadata
     id="metadata4871">
    <rdf:RDF>
      <cc:Work
         rdf:about="">
        <dc:format>image/svg+xml</dc:format>
        <dc:type
           rdf:resource="http://purl.org/dc/dcmitype/StillImage" />
        <dc:title />
      </cc:Work>
    </rdf:RDF>
  </metadata>
  <g
     id="layer1"
     inkscape:label="Layer 1"
     inkscape:groupmode="layer">
    <path
       sodipodi:type="arc"
       style="opacity:0.3;color:#000000;fill:url(#radialGradient4864);fill-opacity:1;fill-rule:nonzero;stroke:none;stroke-width:1;marker:none;visibility:visible;display:inline;overflow:visible"
       id="path2451"
       sodipodi:cx="26"
       sodipodi:cy="39.75"
       sodipodi:rx="24.25"
       sodipodi:ry="4.25"
       d="m 50.25,39.75 a 24.25,4.25 0 1 1 -48.5,0 24.25,4.25 0 1 1 48.5,0 z"
       transform="matrix(-4.905211,0,0,-5.8309497,255.53549,465.63754)" />
    <path
       inkscape:connector-curvature="0"
       style="color:#000000;fill:url(#linearGradient2502);fill-opacity:1;fill-rule:nonzero;stroke:#204a87;stroke-width:4.9563055;stroke-linecap:square;stroke-linejoin:round;stroke-miterlimit:4;stroke-opacity:1;stroke-dashoffset:0;marker:none;visibility:visible;display:inline;overflow:visible"
       d="m 212.24434,233.537 -173.444888,0 c -4.12588,0 -7.4474,-3.32152 -7.4474,-7.44735 l 0,-173.4449 c 0,-4.12582 3.32152,-7.44734 7.4474,-7.44734 l 163.545168,0 17.34707,17.34707 0,163.54517 c 0,4.12583 -3.32152,7.44735 -7.44735,7.44735 z"
       id="rect1314"
       sodipodi:nodetypes="ccccccccc" />
    <path
       inkscape:connector-curvature="0"
       style="opacity:0.4;color:#000000;fill:none;stroke:url(#linearGradient2499);stroke-width:4.9563055;stroke-linecap:square;stroke-linejoin:round;stroke-miterlimit:4;stroke-opacity:1;stroke-dashoffset:0;marker:none;visibility:visible;display:inline;overflow:visible"
       d="m 172.28412,109.62938 -113.349678,0 c -4.29746,0 -7.75717,-3.45971 -7.75717,-7.75711 l 0,-56.67486 128.863968,0 0,56.67486 c 0,4.2974 -3.45967,7.75711 -7.75712,7.75711 z"
       id="rect2194"
       sodipodi:nodetypes="ccccccc" />
    <path
       inkscape:connector-curvature="0"
       style="opacity:0.6;color:#000000;fill:none;stroke:url(#linearGradient2496);stroke-width:4.9563055;stroke-linecap:square;stroke-linejoin:round;stroke-miterlimit:4;stroke-opacity:1;stroke-dashoffset:0;marker:none;visibility:visible;display:inline;overflow:visible"
       d="m 212.37265,228.5807 -173.701518,0 c -1.30896,0 -2.36277,-1.05378 -2.36277,-2.36274 l 0,-173.70152 c 0,-1.30896 1.05381,-2.36273 2.36277,-2.36273 l 161.195338,0 14.86892,14.86892 0,161.19533 c 0,1.30896 -1.05379,2.36274 -2.36274,2.36274 z"
       id="rect2204"
       sodipodi:nodetypes="ccccccccc" />
    <path
       inkscape:connector-curvature="0"
       style="opacity:0.23921569;color:#000000;fill:none;stroke:url(#linearGradient2493);stroke-width:4.9563055;stroke-linecap:round;stroke-linejoin:round;stroke-miterlimit:4;stroke-opacity:1;stroke-dasharray:none;stroke-dashoffset:0;marker:none;visibility:visible;display:inline;overflow:visible"
       d="m 175.08494,50.15371 0,52.15659 c 0,1.30896 -1.05378,2.36277 -2.36274,2.36277 l -114.225848,0 c -1.30896,0 -2.36277,-1.05381 -2.36277,-2.36277 l 0,-52.15659"
       id="rect2231"
       sodipodi:nodetypes="cccccc" />
    <rect
       style="color:#000000;fill:url(#linearGradient2490);fill-opacity:1;fill-rule:nonzero;stroke:none;stroke-width:1;marker:none;visibility:visible;display:inline;overflow:visible"
       id="rect2284"
       width="34.694138"
       height="49.563057"
       x="-170.12865"
       y="-104.67307"
       transform="scale(-1,-1)" />
    <path
       inkscape:connector-curvature="0"
       style="color:#000000;fill:url(#linearGradient2487);fill-opacity:1;fill-rule:nonzero;stroke:#555753;stroke-width:4.9563055;stroke-linecap:square;stroke-linejoin:round;stroke-miterlimit:4;stroke-opacity:1;stroke-dashoffset:0;marker:none;visibility:visible;display:inline;overflow:visible"
       d="m 178.4924,109.62938 c 1.4943,-0.18883 2.94696,-0.92366 4.027,-1.85861 1.49743,-1.36046 2.47815,-3.38402 2.47815,-5.57585 l 0,-56.99751 -99.126138,0 0,56.99751 c 0,4.12583 3.30863,7.43446 7.43446,7.43446 l 84.257218,0 c 0.32231,0 0.618,0.0396 0.92931,0 z m -15.48846,-9.91261 c -0.18264,0.0396 -0.42559,0 -0.61953,0 l -19.20571,0 c -0.63035,0 -1.23665,-0.27061 -1.70374,-0.61954 -0.13827,-0.114 -0.3504,-0.32662 -0.4644,-0.46441 -0.34892,-0.46688 -0.61954,-1.07339 -0.61954,-1.70373 l 0,-34.0746 c 0,-0.63039 0.27062,-1.23669 0.61954,-1.70373 0.114,-0.13828 0.32662,-0.3509 0.4644,-0.4644 0.46689,-0.34892 1.07339,-0.61954 1.70374,-0.61954 l 19.20571,0 c 0.63035,0 1.23668,0.27062 1.70373,0.61954 0.13823,0.11399 0.35065,0.32662 0.46465,0.4644 0.34887,0.46689 0.61954,1.07334 0.61954,1.70373 l 0,34.0746 c 0,0.63034 -0.27067,1.2367 -0.61954,1.70373 -0.114,0.13828 -0.32642,0.35091 -0.46465,0.46441 -0.32335,0.24137 -0.67322,0.53588 -1.0842,0.61954 z"
       id="rect2192"
       sodipodi:nodetypes="csccccccccccssccssccssccssc" />
    <rect
       style="opacity:0.2;color:#000000;fill:#ffffff;fill-opacity:1;fill-rule:nonzero;stroke:none;stroke-width:1;marker:none;visibility:visible;display:inline;overflow:visible"
       id="rect2278"
       width="9.912611"
       height="9.912611"
       x="-212.25723"
       y="-221.14626"
       transform="scale(-1,-1)" />
    <rect
       style="color:#000000;fill:#000000;fill-opacity:1;fill-rule:nonzero;stroke:none;stroke-width:1;marker:none;visibility:visible;display:inline;overflow:visible"
       id="rect2276"
       width="4.9563055"
       height="4.9563055"
       x="-212.25723"
       y="-221.14626"
       transform="scale(-1,-1)" />
    <rect
       style="opacity:0.2;color:#000000;fill:#ffffff;fill-opacity:1;fill-rule:nonzero;stroke:none;stroke-width:1;marker:none;visibility:visible;display:inline;overflow:visible"
       id="rect2280"
       width="9.912611"
       height="9.912611"
       x="-48.699188"
       y="-221.14626"
       transform="scale(-1,-1)" />
    <rect
       style="color:#000000;fill:#000000;fill-opacity:1;fill-rule:nonzero;stroke:none;stroke-width:1;marker:none;visibility:visible;display:inline;overflow:visible"
       id="rect2282"
       width="4.9563055"
       height="4.9563055"
       x="-48.699188"
       y="-221.14626"
       transform="scale(-1,-1)" />
    <path
       inkscape:connector-curvature="0"
       style="opacity:0.29803922;color:#000000;fill:none;stroke:url(#linearGradient2480);stroke-width:4.9563055;stroke-linecap:square;stroke-linejoin:miter;stroke-miterlimit:4;stroke-opacity:1;stroke-dashoffset:0;marker:none;visibility:visible;display:inline;overflow:visible"
       d="m 177.56309,104.67307 -84.106888,0 c -1.45616,0 -2.62848,-1.17231 -2.62848,-2.62847 l 0,-51.89089 89.363848,0 0,51.89089 c 0,1.45616 -1.1723,2.62847 -2.62848,2.62847 z"
       id="rect2316"
       sodipodi:nodetypes="ccccccc" />
    <path
       inkscape:connector-curvature="0"
       style="opacity:0.6;color:#000000;fill:none;stroke:url(#linearGradient2477);stroke-width:4.9563055;stroke-linecap:square;stroke-linejoin:round;stroke-miterlimit:4;stroke-opacity:1;stroke-dashoffset:0;marker:none;visibility:visible;display:inline;overflow:visible"
       d="m 51.177272,233.537 0,-101.52856 c 0,-4.16063 3.34958,-7.51015 7.5102,-7.51015 l 133.668828,0 c 4.16063,0 7.51017,3.34952 7.51017,7.51015 l 0,101.52856 -148.689198,0 z"
       id="rect2247"
       sodipodi:nodetypes="ccccccc" />
    <rect
       style="color:#000000;fill:#ffffff;fill-opacity:1;fill-rule:nonzero;stroke:#e2e2df;stroke-width:4.95630550000000003;stroke-linecap:square;stroke-linejoin:round;stroke-miterlimit:4;stroke-opacity:1;stroke-dasharray:none;stroke-dashoffset:0;marker:none;visibility:visible;display:inline;overflow:visible"
       id="rect2257"
       width="138.77655"
       height="104.08241"
       x="-194.91017"
       y="-233.537"
       rx="2.5538669"
       ry="2.5538669"
       transform="scale(-1,-1)" />
    <rect
       style="color:#000000;fill:#f57900;fill-opacity:1;fill-rule:nonzero;stroke:none;stroke-width:1;marker:none;visibility:visible;display:inline;overflow:visible"
       id="rect2259"
       width="143.73285"
       height="14.868917"
       x="-197.38832"
       y="-236.01517"
       rx="0"
       ry="0"
       transform="scale(-1,-1)" />
    <path
       inkscape:connector-curvature="0"
       style="fill:#ce5c00;fill-opacity:0.75;fill-rule:evenodd;stroke:#ce5c00;stroke-width:4.9563055;stroke-linecap:square;stroke-linejoin:miter;stroke-miterlimit:4;stroke-opacity:1;stroke-dasharray:none;display:inline"
       d="m 194.91016,233.537 -138.776578,0"
       id="path2264"
       sodipodi:nodetypes="cc" />
    <path
       inkscape:connector-curvature="0"
       style="opacity:0.34901961;fill:#ce5c00;fill-opacity:0.75;fill-rule:evenodd;stroke:#ffffff;stroke-width:4.9563055;stroke-linecap:square;stroke-linejoin:miter;stroke-miterlimit:4;stroke-opacity:1;stroke-dasharray:none;display:inline"
       d="m 194.91016,228.5807 -138.776578,0"
       id="path2266"
       sodipodi:nodetypes="cc" />
    <path
       inkscape:connector-curvature="0"
       style="fill:none;stroke:#babdb6;stroke-width:4.95630741;stroke-linecap:round;stroke-linejoin:miter;stroke-miterlimit:4;stroke-opacity:1;stroke-dasharray:none;display:inline"
       d="m 184.99755,198.84287 -118.843798,0"
       id="path2327" />
    <path
       inkscape:connector-curvature="0"
       style="fill:none;stroke:#babdb6;stroke-width:4.95630741;stroke-linecap:round;stroke-linejoin:miter;stroke-miterlimit:4;stroke-opacity:1;stroke-dasharray:none;display:inline"
       d="m 184.99755,174.06135 -118.843798,0"
       id="path2329" />
    <path
       inkscape:connector-curvature="0"
       style="fill:none;stroke:#babdb6;stroke-width:4.95630741;stroke-linecap:round;stroke-linejoin:miter;stroke-miterlimit:4;stroke-opacity:1;stroke-dasharray:none;display:inline"
       d="m 184.99755,149.27982 -118.843798,0"
       id="path2331" />
    <path
       sodipodi:type="arc"
       style="color:#000000;fill:#2e3436;fill-opacity:1;fill-rule:nonzero;stroke:none;stroke-width:1;marker:none;visibility:visible;display:inline;overflow:visible"
       id="path2336"
       sodipodi:cx="38.25"
       sodipodi:cy="14.5"
       sodipodi:rx="4.25"
       sodipodi:ry="4.5"
       d="m 42.5,14.5 a 4.25,4.5 0 1 1 -8.5,0 4.25,4.5 0 1 1 8.5,0 z"
       transform="matrix(-0.58309448,0,0,-0.55070006,88.349572,206.82802)" />
    <path
       sodipodi:type="arc"
       style="color:#000000;fill:#2e3436;fill-opacity:1;fill-rule:nonzero;stroke:none;stroke-width:1;marker:none;visibility:visible;display:inline;overflow:visible"
       id="path2338"
       sodipodi:cx="38.25"
       sodipodi:cy="14.5"
       sodipodi:rx="4.25"
       sodipodi:ry="4.5"
       d="m 42.5,14.5 a 4.25,4.5 0 1 1 -8.5,0 4.25,4.5 0 1 1 8.5,0 z"
       transform="matrix(-0.58309448,0,0,-0.55070006,88.349572,182.0465)" />
    <path
       sodipodi:type="arc"
       style="color:#000000;fill:#2e3436;fill-opacity:1;fill-rule:nonzero;stroke:none;stroke-width:1;marker:none;visibility:visible;display:inline;overflow:visible"
       id="path2340"
       sodipodi:cx="38.25"
       sodipodi:cy="14.5"
       sodipodi:rx="4.25"
       sodipodi:ry="4.5"
       d="m 42.5,14.5 a 4.25,4.5 0 1 1 -8.5,0 4.25,4.5 0 1 1 8.5,0 z"
       transform="matrix(-0.58309448,0,0,-0.55070006,88.349572,157.26498)" />
    <path
       sodipodi:type="arc"
       style="color:#000000;fill:#2e3436;fill-opacity:1;fill-rule:nonzero;stroke:none;stroke-width:1;marker:none;visibility:visible;display:inline;overflow:visible"
       id="path2342"
       sodipodi:cx="38.25"
       sodipodi:cy="14.5"
       sodipodi:rx="4.25"
       sodipodi:ry="4.5"
       d="m 42.5,14.5 a 4.25,4.5 0 1 1 -8.5,0 4.25,4.5 0 1 1 8.5,0 z"
       transform="matrix(-0.58309448,0,0,-0.55070006,207.30093,157.26498)" />
    <path
       sodipodi:type="arc"
       style="color:#000000;fill:#2e3436;fill-opacity:1;fill-rule:nonzero;stroke:none;stroke-width:1;marker:none;visibility:visible;display:inline;overflow:visible"
       id="path2344"
       sodipodi:cx="38.25"
       sodipodi:cy="14.5"
       sodipodi:rx="4.25"
       sodipodi:ry="4.5"
       d="m 42.5,14.5 a 4.25,4.5 0 1 1 -8.5,0 4.25,4.5 0 1 1 8.5,0 z"
       transform="matrix(-0.58309448,0,0,-0.55070006,207.30091,182.0465)" />
    <path
       sodipodi:type="arc"
       style="color:#000000;fill:#2e3436;fill-opacity:1;fill-rule:nonzero;stroke:none;stroke-width:1;marker:none;visibility:visible;display:inline;overflow:visible"
       id="path2346"
       sodipodi:cx="38.25"
       sodipodi:cy="14.5"
       sodipodi:rx="4.25"
       sodipodi:ry="4.5"
       d="m 42.5,14.5 a 4.25,4.5 0 1 1 -8.5,0 4.25,4.5 0 1 1 8.5,0 z"
       transform="matrix(-0.58309448,0,0,-0.55070006,207.30093,206.82802)" />
  </g>
</svg>
