<?xml version="1.0" encoding="UTF-8" standalone="no"?>
<!-- Created with Inkscape (http://www.inkscape.org/) -->

<svg
   xmlns:dc="http://purl.org/dc/elements/1.1/"
   xmlns:cc="http://creativecommons.org/ns#"
   xmlns:rdf="http://www.w3.org/1999/02/22-rdf-syntax-ns#"
   xmlns:svg="http://www.w3.org/2000/svg"
   xmlns="http://www.w3.org/2000/svg"
   xmlns:xlink="http://www.w3.org/1999/xlink"
   xmlns:sodipodi="http://sodipodi.sourceforge.net/DTD/sodipodi-0.dtd"
   xmlns:inkscape="http://www.inkscape.org/namespaces/inkscape"
   width="256px"
   height="256px"
   id="svg2996"
   version="1.1"
   inkscape:version="0.48.4 r9939"
   sodipodi:docname="unhide.svg">
  <defs
     id="defs2998">
    <linearGradient
       id="linearGradient4105">
      <stop
         style="stop-color:#ececec;stop-opacity:1;"
         offset="0"
         id="stop4107" />
      <stop
         style="stop-color:#ececec;stop-opacity:0;"
         offset="1"
         id="stop4109" />
    </linearGradient>
    <linearGradient
       id="linearGradient3702">
      <stop
         id="stop3704"
         offset="0"
         style="stop-color:black;stop-opacity:0;" />
      <stop
         style="stop-color:black;stop-opacity:1;"
         offset="0.5"
         id="stop3710" />
      <stop
         id="stop3706"
         offset="1"
         style="stop-color:black;stop-opacity:0;" />
    </linearGradient>
    <linearGradient
       id="linearGradient6732">
      <stop
         id="stop6734"
         offset="0"
         style="stop-color:#ffffff;stop-opacity:1;" />
      <stop
         id="stop6736"
         offset="1"
         style="stop-color:#dddddd;stop-opacity:1;" />
    </linearGradient>
    <linearGradient
       id="linearGradient3702-5">
      <stop
         id="stop3704-1"
         offset="0"
         style="stop-color:black;stop-opacity:0;" />
      <stop
         style="stop-color:black;stop-opacity:1;"
         offset="0.5"
         id="stop3710-1" />
      <stop
         id="stop3706-9"
         offset="1"
         style="stop-color:black;stop-opacity:0;" />
    </linearGradient>
    <linearGradient
       id="linearGradient6732-7">
      <stop
         id="stop6734-4"
         offset="0"
         style="stop-color:#ffffff;stop-opacity:1;" />
      <stop
         id="stop6736-9"
         offset="1"
         style="stop-color:#dddddd;stop-opacity:1;" />
    </linearGradient>
    <linearGradient
       inkscape:collect="always"
       xlink:href="#linearGradient4105"
       id="linearGradient4111"
       x1="128.72728"
       y1="214.54546"
       x2="133.09091"
       y2="137.45454"
       gradientUnits="userSpaceOnUse" />
    <linearGradient
       inkscape:collect="always"
       xlink:href="#linearGradient4105"
       id="linearGradient4115"
       gradientUnits="userSpaceOnUse"
       x1="50.18182"
       y1="184.72728"
       x2="58.909092"
       y2="168.72728" />
    <radialGradient
       inkscape:collect="always"
       xlink:href="#linearGradient4493"
       id="radialGradient3019"
       gradientUnits="userSpaceOnUse"
       gradientTransform="matrix(1,0,0,0.28866,0,19.82861)"
       cx="16"
       cy="27.875"
       fx="16"
       fy="27.875"
       r="12.125" />
    <linearGradient
       inkscape:collect="always"
       id="linearGradient4493">
      <stop
         style="stop-color:black;stop-opacity:1;"
         offset="0"
         id="stop4495" />
      <stop
         style="stop-color:black;stop-opacity:0;"
         offset="1"
         id="stop4497" />
    </linearGradient>
    <linearGradient
       inkscape:collect="always"
       xlink:href="#linearGradient4447"
       id="linearGradient3826"
       gradientUnits="userSpaceOnUse"
       gradientTransform="matrix(7.763407,0,0,7.7604042,5.747782,2.0129549)"
       x1="16.573217"
       y1="12.237123"
       x2="17.905336"
       y2="41.063381" />
    <linearGradient
       id="linearGradient4447">
      <stop
         style="stop-color:#c00;stop-opacity:1;"
         offset="0"
         id="stop4449" />
      <stop
         style="stop-color:#ad0000;stop-opacity:1;"
         offset="1"
         id="stop4451" />
    </linearGradient>
    <linearGradient
       inkscape:collect="always"
       xlink:href="#linearGradient4465"
       id="linearGradient3023"
       gradientUnits="userSpaceOnUse"
       x1="17.499428"
       y1="14.067684"
       x2="15.6875"
       y2="36.616074" />
    <linearGradient
       inkscape:collect="always"
       id="linearGradient4465">
      <stop
         style="stop-color:white;stop-opacity:1;"
         offset="0"
         id="stop4467" />
      <stop
         style="stop-color:white;stop-opacity:0;"
         offset="1"
         id="stop4469" />
    </linearGradient>
    <radialGradient
       r="12.125"
       fy="27.875"
       fx="16"
       cy="27.875"
       cx="16"
       gradientTransform="matrix(1,0,0,0.28866,0,19.82861)"
       gradientUnits="userSpaceOnUse"
       id="radialGradient3854"
       xlink:href="#linearGradient4493"
       inkscape:collect="always" />
    <linearGradient
       gradientTransform="translate(-0.77175249,-0.82479902)"
       y2="168.72728"
       x2="58.909092"
       y1="184.72728"
       x1="50.18182"
       gradientUnits="userSpaceOnUse"
       id="linearGradient3022"
       xlink:href="#linearGradient4105-8"
       inkscape:collect="always" />
    <linearGradient
       id="linearGradient4105-8">
      <stop
         style="stop-color:#f5f5f5;stop-opacity:1;"
         offset="0"
         id="stop4107-0" />
      <stop
         style="stop-color:#ffffff;stop-opacity:1;"
         offset="1"
         id="stop4109-0" />
    </linearGradient>
  </defs>
  <sodipodi:namedview
     id="base"
     pagecolor="#ffffff"
     bordercolor="#666666"
     borderopacity="1.0"
     inkscape:pageopacity="0.0"
     inkscape:pageshadow="2"
     inkscape:zoom="1.375"
     inkscape:cx="37.785808"
     inkscape:cy="265.43184"
     inkscape:current-layer="layer1"
     showgrid="true"
     inkscape:document-units="px"
     inkscape:grid-bbox="true"
     inkscape:window-width="927"
     inkscape:window-height="1028"
     inkscape:window-x="75"
     inkscape:window-y="24"
     inkscape:window-maximized="0" />
  <metadata
     id="metadata3001">
    <rdf:RDF>
      <cc:Work
         rdf:about="">
        <dc:format>image/svg+xml</dc:format>
        <dc:type
           rdf:resource="http://purl.org/dc/dcmitype/StillImage" />
        <dc:title />
      </cc:Work>
    </rdf:RDF>
  </metadata>
  <g
     id="layer1"
     inkscape:label="Layer 1"
     inkscape:groupmode="layer">
    <path
       style="fill:none;stroke:#000000;stroke-width:10;stroke-linecap:butt;stroke-linejoin:round;stroke-miterlimit:4;stroke-opacity:1;stroke-dasharray:none"
       d="m 3.6363636,173.09091 c 0,0 5.0909091,-18.18182 27.6363634,-20.36364 22.545455,-2.18182 31.272727,-20.36363 31.272727,-20.36363 0,0 12.363637,-55.272728 27.636364,-67.636364 C 105.45455,52.36364 104,34.181821 125.81818,29.090912 c 21.81818,-5.090909 42.90909,-10.909091 58.90909,1.454546 16,12.363636 26.90909,0.727273 32.72728,37.090909 5.81818,36.363633 -2.9091,58.181813 2.90909,71.272723 5.81818,13.09091 8.72727,18.18182 18.90909,27.63636 C 249.45455,176 251.63636,173.09091 252.36364,192 253.09091,210.90909 253.09091,216.72727 240,225.45455 226.90909,234.18182 218.90909,248 202.18182,234.90909 185.45455,221.81818 192,216 176,207.27273 160,198.54545 165.09091,208 154.90909,216 c -10.18182,8 -11.63636,20.36364 -35.63636,24 -24.000003,3.63636 -50.181821,15.27273 -58.181821,0.72727 -8,-14.54545 -11.636364,-38.54545 -24.727273,-27.63636 C 23.272727,224 7.9999997,225.45455 3.6363636,206.54545 c -4.36363629,-18.90909 0,-33.45454 0,-33.45454 z"
       id="path4079"
       inkscape:connector-curvature="0" />
    <path
       style="fill:none;stroke:#000000;stroke-width:10;stroke-linecap:butt;stroke-linejoin:round;stroke-miterlimit:4;stroke-opacity:1;stroke-dasharray:none"
       d="m 112.72727,150.54545 c 0,0 5.81818,12.36364 17.45455,13.81819 C 141.81818,165.81818 144,160 151.27273,154.90909 c 7.27272,-5.09091 16.72727,-3.63636 22.54545,-0.72727 5.81818,2.90909 14.54546,-10.90909 14.54546,-10.90909"
       id="path4081"
       inkscape:connector-curvature="0" />
    <path
       style="fill:none;stroke:#000000;stroke-width:10;stroke-linecap:butt;stroke-linejoin:round;stroke-miterlimit:4;stroke-opacity:1;stroke-dasharray:none"
       d="m 110.54545,101.81818 c 0,0 0.72728,-7.999995 9.45455,-10.181813 8.72727,-2.181818 12.36364,-2.909091 18.18182,0 5.81818,2.909091 5.09091,10.909083 5.09091,10.909083"
       id="path4083"
       inkscape:connector-curvature="0" />
    <path
       style="fill:none;stroke:#000000;stroke-width:10;stroke-linecap:butt;stroke-linejoin:round;stroke-miterlimit:4;stroke-opacity:1;stroke-dasharray:none"
       d="m 158.89454,103.14119 c 0,0 0.72728,-7.999999 9.45455,-10.181817 8.72727,-2.181818 12.36364,-2.909091 18.18182,0 5.81818,2.909091 5.09091,10.909087 5.09091,10.909087"
       id="path4083-1"
       inkscape:connector-curvature="0" />
    <path
       inkscape:connector-curvature="0"
       id="path4113"
       d="m 68.717773,240.58854 c -2.61852,-1.19803 -4.22421,-4.00659 -9.73834,-17.03363 -4.30082,-10.1606 -7.34729,-14.99501 -10.95298,-17.38115 -2.38634,-1.5792 -3.38531,-1.79317 -7.11282,-1.52355 -3.68024,0.26621 -4.97549,0.77636 -8.55803,3.37071 -6.22154,4.50541 -9.42728,6.02699 -13.587,6.44897 -6.121181,0.62095 -8.9781753,-2.53613 -11.0021563,-12.1578 -1.2472257,-5.92911 -1.4353957,-19.75412 -0.347318,-25.51783 1.555467,-8.23955 8.2588773,-15.23809 17.1207043,-17.87447 2.77687,-0.82611 7.74412,-2.00772 11.03834,-2.62579 8.22168,-1.54259 15.81053,-5.33858 21.71519,-10.8621 7.49061,-7.0071 8.70295,-9.23755 12.26688,-22.56854 5.33365,-19.9507 11.23379,-36.127082 16.84513,-46.184224 1.39973,-2.508724 5.06139,-7.090542 8.137017,-10.181815 3.07563,-3.09128 6.44628,-6.92959 7.49034,-8.52959 1.04405,-1.6 4.03463,-6.21905 6.64573,-10.26455 6.99814,-10.84258 9.30105,-12.2833 25.49012,-15.94683 14.62312,-3.30917 22.14457,-4.25421 29.41501,-3.69586 7.16069,0.54992 10.33199,1.70397 17.89821,6.51321 3.14121,1.99662 8.84321,4.88558 12.67111,6.4199 3.82791,1.53433 7.647,3.23995 8.48687,3.79026 4.0352,2.64395 7.48916,13.41008 9.59605,29.911139 0.90821,7.113201 1.02184,13.252718 0.61431,33.19633 -0.5681,27.80216 -0.55922,27.8699 5.16131,39.36427 5.26361,10.57628 9.51777,15.96504 19.51372,24.71815 3.23493,2.83272 6.32162,5.95182 6.8593,6.93133 1.2186,2.21999 2.49968,20.00212 1.87704,26.05449 -0.79094,7.68835 -1.69037,8.75726 -17.67733,21.00815 -8.27038,6.33764 -11.35203,7.98509 -14.76891,7.8955 -5.60186,-0.14689 -14.11987,-7.2882 -20.51199,-17.19679 -4.83848,-7.50026 -9.78452,-12.0062 -17.3175,-15.77657 -9.38091,-4.6953 -14.92294,-3.94382 -19.27638,2.61379 -1.03249,1.55524 -4.52976,5.63037 -7.77171,9.05584 -3.24195,3.42547 -7.81763,8.28929 -10.16817,10.80848 -5.89537,6.31837 -10.03261,8.10005 -27.01155,11.63239 -7.5931,1.57969 -16.91474,3.5502 -20.714737,4.3789 -9.46215,2.06352 -19.29435,2.59609 -22.32546,1.20928 l 0,0 z m 73.234547,-73.37037 c 1.4,-0.69195 4.99484,-3.20985 7.98854,-5.59534 7.58999,-6.04799 10.33603,-6.54448 20.0979,-3.63371 6.89062,2.05461 9.46079,1.12336 16.51011,-5.98211 3.12809,-3.15302 5.58264,-6.04456 5.45454,-6.42563 -0.1281,-0.38109 -2.03291,-1.98253 -4.23291,-3.55879 l -4,-2.86591 -4.08217,4.49325 -4.08218,4.49325 -4.76447,-1.26955 c -6.40478,-1.70663 -13.31185,-1.63804 -18.13481,0.18009 -2.115,0.7973 -6.13637,3.28333 -8.93637,5.52451 -2.8,2.24118 -5.70029,4.40179 -6.44509,4.80136 -1.97196,1.05792 -7.90723,0.84028 -10.87249,-0.39868 -2.82408,-1.17998 -8.18349,-6.32289 -8.88178,-8.52301 -0.24426,-0.7696 -0.75429,-1.39927 -1.13339,-1.39927 -0.55824,0 -8.20872,3.97932 -9.33372,4.85484 -0.16656,0.12962 0.95392,2.06044 2.48996,4.29069 3.91855,5.68957 9.64382,10.09608 15.62635,12.02699 3.16668,1.02206 13.93336,0.37023 16.73198,-1.01298 l 0,0 z m 22.11452,-65.60489 c 0.6341,-2.526427 3.02014,-3.869107 9.14527,-5.146227 4.09577,-0.854 5.82725,-0.91884 7.73376,-0.28963 2.78874,0.92036 4.64281,3.15208 4.64281,5.588487 0,1.57639 0.26332,1.65636 5.45455,1.65636 3,0 5.45455,-0.28261 5.45455,-0.62801 0,-0.34541 -0.33238,-2.38064 -0.73862,-4.522737 -1.59924,-8.432721 -7.76574,-13.031069 -17.47501,-13.031069 -11.72816,0 -21.44091,4.625485 -24.03393,11.445619 -1.84874,4.862557 -1.79142,5.002407 2.37833,5.802597 6.29429,1.20789 6.93433,1.13256 7.43829,-0.87539 l 0,0 z m -47.92795,-2.037207 c 3.15709,-5.05296 17.27436,-6.739089 20.16593,-2.40856 0.29388,0.44012 0.53933,1.70021 0.54546,2.80021 l 0.0111,1.999997 5.45455,0 5.45454,0 -0.007,-2.727267 c -0.0108,-4.1717 -3.03489,-9.95877 -6.30138,-12.058972 -4.30224,-2.766134 -7.87037,-3.612082 -13.60924,-3.226537 -10.99378,0.73858 -18.2994,4.394196 -21.5619,10.789229 -2.24337,4.39735 -1.9379,5.569537 1.66144,6.375587 5.43647,1.21746 6.59829,0.99838 8.18657,-1.543687 l 1.7e-4,0 z"
       style="fill:url(#linearGradient3022);fill-opacity:1;stroke:none" />
    <path
       style="color:#000000;fill:url(#linearGradient3826);fill-opacity:1;fill-rule:nonzero;stroke:#a40000;stroke-width:5.30915403000000019;stroke-linecap:butt;stroke-linejoin:miter;stroke-miterlimit:4;stroke-opacity:1;stroke-dasharray:none;stroke-dashoffset:0;marker:none;visibility:visible;display:inline;overflow:visible;opacity:0.73"
       d="m 127.53125,11.700938 c -62.43834,0 -113.05574,50.611026 -113.05574,113.025222 0,62.41419 50.6174,112.99469 113.05574,112.99469 62.43834,0 113.05574,-50.5805 113.05574,-112.99469 0,-62.414196 -50.6174,-113.025222 -113.05574,-113.025222 z m 1.12934,22.800388 c 16.16792,-0.338122 32.64943,3.594313 47.67631,12.270089 40.0717,23.135404 56.06062,71.963485 39.19103,113.666195 L 58.305975,69.66337 C 75.606488,47.500333 101.71404,35.064866 128.66059,34.501326 z M 45.48648,91.853306 202.70843,182.62754 C 175.02958,218.09795 124.7537,228.65749 84.677508,205.5195 44.601324,182.3815 28.607639,133.55911 45.48648,91.853306 z"
       id="path4445"
       inkscape:connector-curvature="0" />
    <path
       transform="matrix(7.3869325,0,0,7.3840714,11.653698,10.805043)"
       d="m 30.25,15.8125 a 14.5625,14.5625 0 1 1 -29.125,0 14.5625,14.5625 0 1 1 29.125,0 z"
       sodipodi:ry="14.5625"
       sodipodi:rx="14.5625"
       sodipodi:cy="15.8125"
       sodipodi:cx="15.6875"
       id="path4455"
       style="opacity:0.46;color:#000000;fill:none;stroke:url(#linearGradient3023);stroke-width:0.71886134000000002;stroke-linecap:butt;stroke-linejoin:miter;stroke-miterlimit:4;stroke-opacity:1;stroke-dasharray:none;stroke-dashoffset:0;marker:none;visibility:visible;display:inline;overflow:visible"
       sodipodi:type="arc" />
    <path
       style="opacity:0.34000000000000002;color:#000000;fill:#ff0000;fill-opacity:1;fill-rule:nonzero;stroke:none;stroke-width:1;marker:none;visibility:visible;display:inline;overflow:visible"
       d="m 128.23327,22.020354 c -59.375904,0 -107.56167,48.178184 -107.56167,107.531146 0,7.34029 0.671442,14.52912 2.075537,21.4574 0.01486,0.0741 -0.0154,0.16979 0,0.24418 6.700634,0.22035 13.180884,0.56493 19.473424,1.00724 -5.324553,-19.03214 -4.512684,-39.74959 3.265919,-58.969676 L 169.042,164.62198 c 13.30893,-0.45219 26.40203,-2.4131 39.77095,-6.65393 L 58.305975,71.070185 C 85.986795,35.609332 136.26521,25.042825 176.3369,48.178229 c 37.80782,21.828353 54.1642,66.516601 41.72441,106.523901 5.38277,-2.12608 10.81137,-4.62868 16.36011,-7.60013 0.93569,-5.70105 1.40404,-11.58609 1.40404,-17.5505 0,-59.352962 -48.21624,-107.531146 -107.59219,-107.531146 z"
       id="path4501"
       inkscape:connector-curvature="0" />
  </g>
</svg>
